<svg width="21" height="18" viewBox="0 0 21 18" fill="none" xmlns="http://www.w3.org/2000/svg">
<g clip-path="url(#clip0_2371_4042)">
<path d="M1.5625 8.0625H20.3125C20.5611 8.0625 20.7996 8.16127 20.9754 8.33709C21.1512 8.5129 21.25 8.75136 21.25 9C21.25 9.24864 21.1512 9.4871 20.9754 9.66291C20.7996 9.83873 20.5611 9.9375 20.3125 9.9375H1.5625C1.31386 9.9375 1.0754 9.83873 0.899588 9.66291C0.723772 9.4871 0.625 9.24864 0.625 9C0.625 8.75136 0.723772 8.5129 0.899588 8.33709C1.0754 8.16127 1.31386 8.0625 1.5625 8.0625Z" fill="#8B95A0"/>
<path d="M1.95084 9.00021L9.72646 16.774C9.9025 16.95 10.0014 17.1888 10.0014 17.4377C10.0014 17.6867 9.9025 17.9254 9.72646 18.1015C9.55042 18.2775 9.31167 18.3764 9.06271 18.3764C8.81376 18.3764 8.575 18.2775 8.39896 18.1015L-0.0385391 9.66396C-0.125845 9.57687 -0.195113 9.47342 -0.242375 9.35952C-0.289637 9.24562 -0.313965 9.12352 -0.313965 9.00021C-0.313965 8.87689 -0.289637 8.75479 -0.242375 8.64089C-0.195113 8.527 -0.125845 8.42354 -0.0385391 8.33646L8.39896 -0.101043C8.575 -0.27708 8.81376 -0.375977 9.06271 -0.375977C9.31167 -0.375977 9.55042 -0.27708 9.72646 -0.101043C9.9025 0.0749949 10.0014 0.313753 10.0014 0.562708C10.0014 0.811662 9.9025 1.05042 9.72646 1.22646L1.95084 9.00021Z" fill="#8B95A0"/>
</g>
<defs>
<clipPath id="clip0_2371_4042">
<rect width="21" height="18" fill="white"/>
</clipPath>
</defs>
</svg>
