<svg width="20" height="25" viewBox="0 0 20 25" fill="none" xmlns="http://www.w3.org/2000/svg">
<path d="M8.5625 19.5312L15.7188 12.375L14.5 11.1562L8.5625 17.0938L5.34375 13.875L4.125 15.0938L8.5625 19.5312ZM1.875 25C1.375 25 0.9375 24.8125 0.5625 24.4375C0.1875 24.0625 0 23.625 0 23.125V1.875C0 1.375 0.1875 0.9375 0.5625 0.5625C0.9375 0.1875 1.375 0 1.875 0H13.1562L20 6.84375V23.125C20 23.625 19.8125 24.0625 19.4375 24.4375C19.0625 24.8125 18.625 25 18.125 25H1.875ZM12.2188 7.6875V1.875H1.875V23.125H18.125V7.6875H12.2188Z" fill="white"/>
</svg>
