<svg width="24" height="24" viewBox="0 0 24 24" fill="none" xmlns="http://www.w3.org/2000/svg">
<path d="M17.8447 5.57647C16.3976 2.29412 13.1224 0 9.31765 0C4.17882 0 0 4.17882 0 9.31765C0 9.93882 0.0776472 10.5953 0.232941 11.3012V17.3929C0.232941 17.9506 0.684706 18.3953 1.23529 18.3953H5.66824C7.28471 21.4024 10.4329 23.3082 13.8635 23.3082C14.4847 23.3082 15.1412 23.2306 15.8471 23.0753H21.9388C22.4965 23.0753 22.9412 22.6235 22.9412 22.0729V15.9812C23.0965 15.2753 23.1741 14.6259 23.1741 13.9976C23.1812 10.3624 21.0988 7.10824 17.8447 5.57647ZM2.23765 11.04C2.08235 10.3976 2.01176 9.84706 2.01176 9.31765C2.01176 5.28706 5.28706 2.01176 9.31765 2.01176C12.3812 2.01176 15.0141 3.91059 16.0941 6.59294C16.1012 6.62118 16.1012 6.64941 16.1153 6.67765C16.3694 7.32706 16.5247 7.99059 16.5953 8.64706C16.6165 8.86588 16.6306 9.09176 16.6306 9.31765C16.6306 13.3482 13.3553 16.6235 9.32471 16.6235C8.79529 16.6235 8.24471 16.5529 7.60235 16.3976C7.53176 16.3765 7.45412 16.3694 7.38353 16.3694C7.38353 16.3694 7.38353 16.3694 7.37647 16.3694C7.31294 16.3694 7.24941 16.3765 7.18588 16.3906H6.29647H2.24471V11.4847C2.27294 11.3365 2.27294 11.1882 2.23765 11.04ZM20.9435 15.7129C20.9082 15.8541 20.9082 15.9953 20.9365 16.1294V21.0565H16.0306C15.8824 21.0282 15.7341 21.0282 15.5859 21.0635C14.9435 21.2188 14.3929 21.2894 13.8635 21.2894C11.6259 21.2894 9.54353 20.2518 8.17412 18.5435C8.21647 18.5506 8.25176 18.5506 8.28706 18.5576C8.33647 18.5647 8.39294 18.5718 8.44235 18.5718C8.73882 18.6071 9.02824 18.6212 9.31059 18.6212C14.4494 18.6212 18.6282 14.4424 18.6282 9.30353C18.6282 9 18.6141 8.70353 18.5859 8.40706C20.2024 9.76941 21.1694 11.7882 21.1694 13.9835C21.1765 14.52 21.0988 15.0847 20.9435 15.7129Z" fill="#00A8E2"/>
</svg>
