<svg width="17" height="17" viewBox="0 0 17 17" fill="none" xmlns="http://www.w3.org/2000/svg">
<g clip-path="url(#clip0_1432_9368)">
<path d="M15 1H5.42857C5.35 1 5.28571 1.06429 5.28571 1.14286V2.14286C5.28571 2.22143 5.35 2.28571 5.42857 2.28571H14.2857V14.5714C14.2857 14.65 14.35 14.7143 14.4286 14.7143H15.4286C15.5071 14.7143 15.5714 14.65 15.5714 14.5714V1.57143C15.5714 1.25536 15.3161 1 15 1ZM12.7143 3.28571H3.57143C3.25536 3.28571 3 3.54107 3 3.85714V13.3339C3 13.4857 3.06071 13.6304 3.16786 13.7375L6.2625 16.8321C6.30179 16.8714 6.34643 16.9036 6.39464 16.9304V16.9643H6.46964C6.53214 16.9875 6.59821 17 6.66607 17H12.7143C13.0304 17 13.2857 16.7446 13.2857 16.4286V3.85714C13.2857 3.54107 13.0304 3.28571 12.7143 3.28571ZM6.39286 15.1464L4.85536 13.6071H6.39286V15.1464ZM12 15.7143H7.53571V13.1786C7.53571 12.7839 7.21607 12.4643 6.82143 12.4643H4.28571V4.57143H12V15.7143Z" fill="#8B95A0"/>
<path fill-rule="evenodd" clip-rule="evenodd" d="M6.46945 16.9641H6.39445V16.9302C6.34623 16.9034 6.30159 16.8712 6.2623 16.8319L3.16766 13.7373C3.06052 13.6302 2.9998 13.4855 2.9998 13.3337V3.85695C2.9998 3.54088 3.25516 3.28552 3.57123 3.28552H12.7141C13.0302 3.28552 13.2855 3.54088 13.2855 3.85695V16.4284C13.2855 16.7444 13.0302 16.9998 12.7141 16.9998H6.66588C6.59802 16.9998 6.53195 16.9873 6.46945 16.9641ZM6.19445 17.0378C6.16907 17.0183 6.14443 16.9969 6.12088 16.9734L3.02624 13.8787C2.88207 13.7346 2.7998 13.5392 2.7998 13.3337V3.85695C2.7998 3.43042 3.1447 3.08552 3.57123 3.08552H12.7141C13.1406 3.08552 13.4855 3.43042 13.4855 3.85695V16.4284C13.4855 16.8549 13.1406 17.1998 12.7141 17.1998H6.66588C6.5865 17.1998 6.50937 17.1873 6.4362 17.1641H6.19445V17.0378ZM5.42838 0.799805H14.9998C15.4263 0.799805 15.7712 1.1447 15.7712 1.57123V14.5712C15.7712 14.7603 15.6174 14.9141 15.4284 14.9141H14.4284C14.2393 14.9141 14.0855 14.7603 14.0855 14.5712V2.48552H5.42838C5.23935 2.48552 5.08552 2.33169 5.08552 2.14266V1.14266C5.08552 0.953633 5.23935 0.799805 5.42838 0.799805ZM6.39266 15.1462V13.6069H4.85516L6.39266 15.1462ZM6.19266 14.663V13.8069H5.33761L6.19266 14.663ZM7.73552 15.5141H11.7998V4.77123H4.48552V12.2641H6.82123C7.32633 12.2641 7.73552 12.6733 7.73552 13.1784V15.5141ZM5.42838 0.999805H14.9998C15.3159 0.999805 15.5712 1.25516 15.5712 1.57123V14.5712C15.5712 14.6498 15.5069 14.7141 15.4284 14.7141H14.4284C14.3498 14.7141 14.2855 14.6498 14.2855 14.5712V2.28552H5.42838C5.3498 2.28552 5.28552 2.22123 5.28552 2.14266V1.14266C5.28552 1.06409 5.3498 0.999805 5.42838 0.999805ZM11.9998 15.7141V4.57123H4.28552V12.4641H6.82123C7.21588 12.4641 7.53552 12.7837 7.53552 13.1784V15.7141H11.9998Z" fill="#8B95A0"/>
</g>
<defs>
<clipPath id="clip0_1432_9368">
<rect width="17" height="17" fill="white"/>
</clipPath>
</defs>
</svg>
