<svg width="17" height="17" viewBox="0 0 17 17" fill="none" xmlns="http://www.w3.org/2000/svg">
<g clip-path="url(#clip0_2033_3814)">
<path d="M13.0866 8.00977C13.0148 7.71455 12.827 7.51548 12.5426 7.43513C12.4632 7.41256 12.3846 7.40127 12.3088 7.40127C12.0984 7.40127 11.9052 7.48749 11.7355 7.65812C11.318 8.07657 10.9004 8.49457 10.4824 8.91257C9.93261 9.46238 9.3828 10.0122 8.83435 10.5634C8.81584 10.5819 8.8014 10.6031 8.78921 10.6247V9.5161C8.78921 6.96341 8.78921 4.41073 8.78921 1.85849V1.82193C8.78921 1.74925 8.78966 1.67387 8.78289 1.59938C8.74723 1.21569 8.401 0.90332 8.01144 0.90332C7.97668 0.90332 7.94192 0.906029 7.90762 0.910994C7.4693 0.974191 7.21787 1.29062 7.21787 1.77904C7.21787 4.01304 7.21787 6.24749 7.21787 8.48148V10.604C7.20117 10.5882 7.18582 10.5733 7.17093 10.5584L6.49969 9.88761C5.77564 9.16446 5.02676 8.41648 4.29233 7.67889C4.10951 7.49562 3.90908 7.40263 3.69692 7.40263C3.61432 7.40263 3.5281 7.41662 3.44143 7.44461C3.1742 7.53038 2.98461 7.72899 2.92186 7.989C2.85506 8.26571 2.94624 8.56274 3.16607 8.78302C4.28555 9.90431 5.40594 11.0238 6.52632 12.1437L7.37135 12.9883C7.57764 13.1946 7.79025 13.2989 8.00377 13.2989C8.21818 13.2989 8.43305 13.1932 8.64115 12.9851C10.0315 11.5957 11.4209 10.2058 12.8108 8.81597L12.8225 8.80424C12.8591 8.76767 12.897 8.72976 12.9313 8.68732C13.0942 8.48284 13.1471 8.25578 13.0875 8.01157L13.0866 8.00977Z" fill="#8B95A0"/>
<path d="M16.0036 12.5742C16.0036 12.4542 15.9851 12.3382 15.9508 12.2384C15.8438 11.9269 15.5513 11.7179 15.2231 11.7179C15.1834 11.7179 15.1432 11.7211 15.104 11.7274C14.7009 11.792 14.4291 12.1043 14.4273 12.5047C14.4246 13.1466 14.4251 13.7994 14.4255 14.4304C14.4255 14.6895 14.4255 14.9491 14.4255 15.2082V15.3192H1.58127V14.4665C1.58082 13.84 1.58036 13.1918 1.58217 12.5548C1.58307 12.2786 1.48737 12.0601 1.29824 11.9048C1.14386 11.778 0.976837 11.7139 0.801693 11.7139C0.69155 11.7139 0.579151 11.7396 0.468105 11.7906C0.162505 11.9301 0.000451404 12.196 0.000451404 12.5589V13.589C0 14.406 -0.000451404 15.2226 0.000902807 16.0397C0.00180561 16.5795 0.327268 16.9023 0.872112 16.9023C3.21444 16.9023 5.55633 16.9028 7.89866 16.9028C10.241 16.9028 12.7224 16.9028 15.1338 16.9023C15.6777 16.9023 16.0032 16.5791 16.0041 16.0383C16.0063 14.773 16.0059 13.64 16.0027 12.5742H16.0036Z" fill="#8B95A0"/>
</g>
<defs>
<clipPath id="clip0_2033_3814">
<rect width="16.0059" height="16" fill="white" transform="translate(0 0.902344)"/>
</clipPath>
</defs>
</svg>
