<svg width="24" height="24" viewBox="0 0 24 24" fill="none" xmlns="http://www.w3.org/2000/svg">
<path d="M12 0C5.37696 0 0 5.37696 0 12C0 18.623 5.37696 24 12 24C18.611 24 23.9786 18.6422 23.9981 12.0355C23.9993 12.0237 23.9999 12.0119 24 12C24 11.9893 23.9995 11.9787 23.9986 11.9681C23.9813 5.35968 18.6125 0 12 0ZM12 0.72C12.5258 0.72 13.0426 0.75888 13.5492 0.82824C13.5276 0.85704 13.5866 0.92184 13.793 1.04016L14.0386 1.12368C14.3458 1.08552 14.215 0.9804 14.0122 0.9024C14.7536 1.03556 15.4796 1.24317 16.1794 1.52208C15.9854 1.56576 15.6902 1.58976 15.3984 1.57824C15.4056 2.15688 15.6624 3.70296 16.5432 3.4224C16.3867 3.45672 17.0405 4.10376 16.7026 4.212C16.5226 5.4216 15.5422 3.40536 15.0446 3.43176C14.3006 3.55728 15.1858 3.92496 14.9174 4.1052C14.2135 4.71 15.5266 5.34432 15.4205 4.32792C15.5069 5.14728 15.7843 5.12208 16.4484 5.07936C14.9314 5.33568 17.2932 5.92344 16.5262 6.41448C15.7661 6.3444 15.3401 6.62808 15.7697 7.37208C15.5681 8.06088 16.249 8.09112 16.4825 8.3292L16.7376 8.30568L16.9027 8.28408C16.8962 8.28336 16.8893 8.2848 16.883 8.28384C17.8303 7.99224 17.3405 6.09648 18.3502 6.22032C18.1387 6.95352 19.3056 7.65168 18.6797 6.58824C18.253 6.0492 20.0638 6.97608 19.266 7.24104C20.0419 8.26536 19.495 6.2844 20.0729 6.82272C20.4485 7.47696 20.8884 6.99 20.9906 6.96552C21.2393 6.89616 21.6144 7.00536 21.713 7.06368C22.6646 7.97232 20.8116 7.59552 20.7842 8.29032C20.885 8.73504 19.7666 8.17152 19.5994 8.05032C19.109 6.72864 17.9921 8.04696 17.1706 8.25936C17.1427 8.2812 16.4678 8.80776 16.3884 8.8776C16.1959 10.0356 15.2652 10.7395 14.9198 11.911C14.8505 12.5878 15.0749 13.524 14.9808 14.2543C15.1997 15.1908 16.0858 15.727 16.8581 16.1854C17.4394 16.5598 18.0454 15.8426 18.6708 15.8345C19.218 15.0295 20.094 15.6197 20.5889 15.5602C20.0189 16.4578 21.0127 17.1514 20.7314 18.1224C20.2906 18.6619 20.1665 19.3788 19.9303 20.0227C17.8934 22.0363 15.0936 23.28 12 23.28C10.5008 23.2819 9.01629 22.9842 7.63368 22.4045C7.88832 22.1729 8.03688 21.8278 8.37936 21.7289C9.9348 22.105 9.25776 20.1804 10.3138 19.745C11.0215 18.4481 8.7624 18.2417 7.956 17.7694C6.59232 17.5634 6.72048 15.9036 5.48208 15.5446C4.46784 15.383 4.83576 13.9214 4.09224 13.9997C3.45048 14.119 3.19584 13.2358 2.83824 13.2989C2.75184 13.3901 2.3904 12.7061 2.0016 13.4597C0.9036 13.2166 1.67184 11.9558 1.20792 11.25C1.01568 10.9267 1.75656 9.26904 0.96288 10.2324C0.93168 10.1772 0.91056 10.1021 0.8976 10.014C0.998794 9.44229 1.14427 8.87932 1.33272 8.33016C1.4496 8.20032 1.584 8.13576 1.73208 8.18448C2.31888 8.05104 2.12376 8.97288 2.17224 9.54384C2.61456 9.73344 2.40744 7.87008 3.32664 7.82664C3.95232 7.12224 4.67784 6.52248 5.43864 6.03744C5.73528 6.24912 6.37368 6.22344 6.87432 5.75352C6.31656 5.64144 6.27648 5.21592 7.02192 5.0484C8.208 4.53864 6.48672 5.60712 7.45512 5.7612C8.50632 6.0708 7.61496 4.84728 8.1132 4.36872C7.59144 4.01352 8.4288 2.63256 7.51632 3.246C7.83192 3.0204 7.34112 2.59704 7.62288 2.43192C7.73928 2.75832 8.32608 3.20664 8.53464 2.454C9.12096 2.55408 9.03864 1.70472 9.35544 1.24776C10.8422 0.72384 9.61128 2.16528 9.55536 2.88048C10.0339 4.27488 10.841 2.34288 11.6914 2.29488C12.7253 2.33016 12.6072 1.34184 12.5911 0.81288C12.3677 0.77123 12.1424 0.740792 11.916 0.72168C11.9441 0.72168 11.9719 0.72 12 0.72ZM8.01096 1.91208C8.20128 1.8888 7.90104 2.30184 7.49064 2.37C6.94344 2.82624 7.40976 2.20968 7.64304 2.10936C7.82952 1.97592 7.9476 1.91976 8.01096 1.91208ZM16.4038 2.214C16.4203 2.21256 16.4462 2.21712 16.4854 2.23032C16.6615 2.52216 16.2898 2.22312 16.4038 2.214ZM6.74304 2.35128C7.16376 2.38176 6.71544 3.3636 6.24792 3.41208C5.99736 3.3888 5.82624 3.78408 5.63256 3.9132C5.61336 3.9996 5.64792 2.56056 6.30216 2.50512C6.50256 2.38752 6.64584 2.34432 6.74304 2.35128ZM12.8002 2.37768C12.5856 2.38656 12.4262 2.47704 12.5138 2.71032C12.6391 2.83104 12.8218 2.86032 12.9881 2.86128C14.0129 2.73408 13.2722 2.35776 12.8002 2.37744V2.37768ZM16.4302 2.56488C16.4758 2.5692 16.5821 2.60952 16.7798 2.70936C17.1792 3.21336 16.2334 2.54712 16.4302 2.56512V2.56488ZM14.4566 2.93496C14.4437 2.94048 14.4329 2.96472 14.429 3.01776C14.617 3.22896 14.513 2.91 14.4566 2.93496ZM15.1824 3.1092C15.167 3.10512 15.1656 3.13848 15.1963 3.2436C15.3982 3.47352 15.228 3.12168 15.1824 3.1092ZM17.2368 3.1116C17.4019 3.11088 17.8639 3.39816 17.7708 3.7116C17.3246 4.07208 17.5313 3.8796 17.4442 3.48C17.1454 3.21576 17.1379 3.11208 17.2368 3.1116ZM4.22904 4.56936C4.26168 4.5732 4.30824 4.61232 4.37208 4.70856C4.21272 5.19768 4.08792 4.5528 4.22904 4.56936ZM6.45744 4.85304C6.4872 4.85328 6.53568 4.87704 6.60696 4.94424C6.4512 5.06184 6.36864 4.85184 6.45744 4.85304ZM20.111 4.93944C20.1535 4.9344 20.237 4.99392 20.3765 5.15496C20.543 4.88136 21.4027 5.5164 20.6568 5.63112C20.5162 6.19224 19.9279 4.96056 20.1113 4.9392L20.111 4.93944ZM4.24632 5.1648C4.26192 5.1612 4.27848 5.1708 4.29504 5.19936C4.07136 5.85864 4.13712 5.18904 4.24632 5.1648ZM18.7627 5.84208C18.7704 5.84063 18.7784 5.84079 18.786 5.84256C18.9204 5.86488 19.4501 6.16608 19.6613 6.37584C19.7906 6.66528 19.2372 6.14976 19.1251 6.18336C18.8117 5.9496 18.7253 5.85336 18.7627 5.84208ZM3.97032 5.8476C3.99768 5.85312 4.01904 5.8812 4.02504 5.946C3.62016 6.22752 3.85176 5.8236 3.97032 5.8476ZM20.3808 6.384C20.4014 6.37512 20.461 6.40848 20.5838 6.52416C20.6054 6.81744 20.3186 6.4104 20.3808 6.384ZM17.915 6.93936C17.8654 6.94728 17.789 7.03392 17.6849 7.26384C17.9753 7.60272 18.0643 6.91584 17.9153 6.93936H17.915ZM20.9719 7.18128C20.9177 7.18848 20.8608 7.2492 20.8229 7.40616C21.2741 7.62144 21.1344 7.16016 20.9717 7.18128H20.9719ZM12.2023 7.84848C12.144 7.8432 12.0624 7.86768 11.963 7.95C12.3456 8.14776 12.378 7.86384 12.2026 7.84824L12.2023 7.84848ZM12.7318 8.02872C12.7078 8.01984 12.6602 8.0364 12.5794 8.10432C12.6626 8.31264 12.8033 8.0556 12.7318 8.02872ZM14.6374 9.24744C14.6141 9.25296 14.5838 9.27864 14.545 9.33696C14.6923 9.5808 14.737 9.22344 14.6371 9.24744H14.6374ZM2.59728 9.35016C2.57544 9.3504 2.56224 9.40488 2.5752 9.56112C2.80944 9.84 2.66304 9.34944 2.59728 9.35016ZM2.46696 9.74616C2.44512 9.74256 2.41224 9.8076 2.36856 10.0013C2.50056 10.3855 2.53296 9.75744 2.46696 9.74616ZM1.79664 9.94872C1.3308 9.90072 2.18808 10.7232 2.22192 11.0858C3.08472 11.3186 2.1012 11.5822 2.8308 11.8762C3.92928 12.2717 3.25032 11.3882 2.78448 11.2022C2.96712 10.9087 2.32104 10.6922 2.08368 10.0265C1.95672 9.98016 1.86336 9.95568 1.79664 9.94872ZM15.4054 10.1326C15.3559 10.1326 15.3014 10.2238 15.2784 10.4957C15.6005 10.5732 15.5146 10.1326 15.4056 10.1326H15.4054ZM2.70336 10.3284C2.70032 10.3275 2.69713 10.3272 2.69398 10.3276C2.69084 10.328 2.68781 10.3291 2.68512 10.3308C2.65992 10.3469 2.65824 10.4251 2.72832 10.5955L2.78256 10.6315C2.82744 10.4724 2.75112 10.3406 2.70336 10.3284ZM14.5848 10.3486C14.4437 10.3567 14.3527 10.4206 14.4528 10.5876L14.495 10.6073H14.7348C15.4469 10.5838 14.8949 10.3308 14.5848 10.3486ZM2.0352 11.2234C1.97208 11.2099 1.9632 11.2831 2.1144 11.5382C2.57616 11.6988 2.1744 11.2526 2.0352 11.2234ZM0.74664 11.2594C0.90672 11.9527 1.00872 12.7589 1.30584 13.3682C1.50216 14.1142 1.64688 13.1753 1.69584 13.763C1.8624 14.8733 1.1856 16.0171 2.0184 17.0818C2.4144 18.1553 3.28416 18.9074 3.8928 19.8422C1.9296 17.8128 0.72 15.0494 0.72 12C0.72 11.7509 0.7308 11.5044 0.74664 11.2594ZM3.61824 11.8997C3.56064 11.9069 3.50928 11.9683 3.49536 12.127C4.02432 12.3432 3.79128 11.8778 3.61824 11.8997ZM4.46064 12.7745C4.43736 12.7651 4.41312 12.8702 4.39728 13.1858L4.40688 13.3598C4.59408 13.86 4.53072 12.8018 4.46064 12.7742V12.7745ZM12.8789 13.4789C12.8191 13.4724 12.8184 13.519 12.9845 13.6766C13.4278 13.7645 13.0104 13.4933 12.8789 13.4789ZM13.5235 13.6265C13.4959 13.627 13.4599 13.6469 13.4148 13.6987C13.5986 13.9877 13.6428 13.6246 13.5235 13.6267V13.6265ZM13.4165 13.9426C13.3742 13.9493 13.315 13.9774 13.2348 14.0381C13.4554 14.2762 13.5996 13.9128 13.4165 13.9426ZM13.1069 13.9889C13.0843 13.9865 13.0502 14.0196 13.0037 14.1197C13.1357 14.3227 13.1741 13.9961 13.1069 13.9889ZM20.1197 16.224C20.0971 16.2216 20.063 16.2545 20.0165 16.3548C20.1485 16.5578 20.1871 16.231 20.1197 16.224Z" fill="#465363"/>
</svg>
