<svg width="16" height="17" viewBox="0 0 16 17" fill="none" xmlns="http://www.w3.org/2000/svg">
<path d="M8 5.35689C10.7564 5.35689 13.2145 6.90598 14.4145 9.35689C13.2145 11.8078 10.7564 13.3569 8 13.3569C5.24364 13.3569 2.78545 11.8078 1.58545 9.35689C2.78545 6.90598 5.24364 5.35689 8 5.35689ZM8 3.90234C4.36364 3.90234 1.25818 6.16416 0 9.35689C1.25818 12.5496 4.36364 14.8114 8 14.8114C11.6364 14.8114 14.7418 12.5496 16 9.35689C14.7418 6.16416 11.6364 3.90234 8 3.90234ZM8 7.53871C9.00364 7.53871 9.81818 8.35325 9.81818 9.35689C9.81818 10.3605 9.00364 11.1751 8 11.1751C6.99636 11.1751 6.18182 10.3605 6.18182 9.35689C6.18182 8.35325 6.99636 7.53871 8 7.53871ZM8 6.08416C6.19636 6.08416 4.72727 7.55325 4.72727 9.35689C4.72727 11.1605 6.19636 12.6296 8 12.6296C9.80364 12.6296 11.2727 11.1605 11.2727 9.35689C11.2727 7.55325 9.80364 6.08416 8 6.08416Z" fill="#8B95A0"/>
</svg>
