<svg width="16" height="16" viewBox="0 0 16 16" fill="none" xmlns="http://www.w3.org/2000/svg">
<g clip-path="url(#clip0_2660_11812)">
<path d="M13.3163 0.509879L12.5507 1.79897C12.416 2.0258 12.4933 2.31436 12.7234 2.44349C12.9534 2.57262 13.2491 2.49342 13.3838 2.26659L14.1493 0.977498C14.284 0.750667 14.2068 0.462104 13.9767 0.332975C13.7467 0.203846 13.451 0.283048 13.3163 0.509879Z" fill="white" stroke="white" stroke-width="0.1"/>
<path d="M15.6246 3.8311H13.8431C13.5796 3.8311 13.366 4.0447 13.366 4.30819C13.366 4.57167 13.5796 4.78527 13.8431 4.78527H15.6246C15.8881 4.78527 16.1017 4.57167 16.1017 4.30819C16.1017 4.0447 15.8881 3.8311 15.6246 3.8311Z" fill="white" stroke="white" stroke-width="0.1"/>
<path d="M10.8335 1.38907L10.2723 0.444049C10.1046 0.161511 9.73625 0.0628571 9.44971 0.223699C9.16316 0.384542 9.06688 0.743972 9.23467 1.02651L9.79587 1.97153C9.96365 2.25407 10.332 2.35273 10.6185 2.19188C10.9051 2.03104 11.0013 1.67161 10.8335 1.38907Z" fill="white" stroke="white" stroke-width="0.1"/>
<path d="M6.15233 15.0891L6.19759 15.1122L6.2429 15.0892L12.4707 11.9337L12.5255 11.9059V11.8445V5.19415V5.1318L12.4695 5.10436L6.24172 2.05132L6.19759 2.02969L6.15351 2.05141L-0.0441901 5.10444L-0.1 5.13194V5.19415V11.8445V11.9058L-0.0453723 11.9336L6.15233 15.0891ZM6.20031 14.4754L0.476531 11.5611V5.4809L6.2003 2.66253L11.949 5.48102V11.561L6.20031 14.4754Z" fill="white" stroke="white" stroke-width="0.2"/>
<path d="M6.16766 8.66305L6.21284 8.686L6.25806 8.66313L12.398 5.55885L12.4893 5.51272L12.4411 5.42252L12.2679 5.09794L12.2219 5.01167L12.1346 5.05576L6.21305 8.04692L0.32157 5.05585L0.234726 5.01176L0.18836 5.09741L0.0126452 5.422L-0.0362285 5.51228L0.055304 5.55876L6.16766 8.66305Z" fill="white" stroke="white" stroke-width="0.2"/>
<path d="M6.02441 8.34727H5.92441V8.44727V14.7925V14.8925H6.02441H6.40094H6.50094V14.7925V8.44727V8.34727H6.40094H6.02441Z" fill="white" stroke="white" stroke-width="0.2"/>
<path d="M4.10769 9.08665L4.19144 9.16329V9.04976V7.36699L10.3345 4.19126L10.4228 4.14561L10.3335 4.10193L8.32282 3.11842L8.29987 3.10719L8.27732 3.11922L2.23525 6.34309L2.20879 6.35721V6.3872V7.87833V7.92278L2.25293 7.92799L2.58627 7.96734L3.00052 8.408L3.01157 8.41975L3.02741 8.42283L3.47798 8.51044L4.10769 9.08665ZM9.38192 4.15783L3.74196 7.07249L3.71491 7.08646V7.1169V8.0871L3.70544 8.07844L3.69167 8.07575L3.25812 7.99098L2.82985 7.53654L2.81748 7.52342L2.79959 7.52121L2.68532 7.5071V6.63198L8.31186 3.63435L9.38192 4.15783Z" fill="white" stroke="white" stroke-width="0.1"/>
<path d="M10.9118 10.6312L7.88281 12.1885L8.05883 12.5121L11.0878 10.9548L10.9118 10.6312Z" fill="white"/>
<path d="M10.6685 7.71509H10.292V10.1556H10.6685V7.71509Z" fill="white"/>
<path d="M10.0156 8.88669L9.69434 8.6939L10.4223 7.53711L11.2105 8.05693L10.9996 8.35955L10.5378 8.05449L10.0156 8.88669Z" fill="white"/>
<path d="M8.65973 8.69116H8.2832V11.1316H8.65973V8.69116Z" fill="white"/>
<path d="M8.00783 9.86277L7.68652 9.66997L8.41448 8.51318L9.20269 9.03301L8.99183 9.33562L8.52995 9.03056L8.00783 9.86277Z" fill="white"/>
</g>
<defs>
<clipPath id="clip0_2660_11812">
<rect width="16" height="16" fill="white"/>
</clipPath>
</defs>
</svg>
