<svg width="16" height="16" viewBox="0 0 16 16" fill="none" xmlns="http://www.w3.org/2000/svg">
<path d="M11.4094 4.25294C10.5653 2.33824 8.65471 1 6.43529 1C3.43765 1 1 3.43765 1 6.43529C1 6.79765 1.04529 7.18059 1.13588 7.59235V11.1459C1.13588 11.4712 1.39941 11.7306 1.72059 11.7306H4.30647C5.24941 13.4847 7.08588 14.5965 9.08706 14.5965C9.44941 14.5965 9.83235 14.5512 10.2441 14.4606H13.7976C14.1229 14.4606 14.3824 14.1971 14.3824 13.8759V10.3224C14.4729 9.91059 14.5182 9.53176 14.5182 9.16529C14.5224 7.04471 13.3076 5.14647 11.4094 4.25294ZM2.30529 7.44C2.21471 7.06529 2.17353 6.74412 2.17353 6.43529C2.17353 4.08412 4.08412 2.17353 6.43529 2.17353C8.22235 2.17353 9.75824 3.28118 10.3882 4.84588C10.3924 4.86235 10.3924 4.87882 10.4006 4.89529C10.5488 5.27412 10.6394 5.66118 10.6806 6.04412C10.6929 6.17176 10.7012 6.30353 10.7012 6.43529C10.7012 8.78647 8.79059 10.6971 6.43941 10.6971C6.13059 10.6971 5.80941 10.6559 5.43471 10.5653C5.39353 10.5529 5.34824 10.5488 5.30706 10.5488C5.30706 10.5488 5.30706 10.5488 5.30294 10.5488C5.26588 10.5488 5.22882 10.5529 5.19176 10.5612H4.67294H2.30941V7.69941C2.32588 7.61294 2.32588 7.52647 2.30529 7.44ZM13.2171 10.1659C13.1965 10.2482 13.1965 10.3306 13.2129 10.4088V13.2829H10.3512C10.2647 13.2665 10.1782 13.2665 10.0918 13.2871C9.71706 13.3776 9.39588 13.4188 9.08706 13.4188C7.78176 13.4188 6.56706 12.8135 5.76824 11.8171C5.79294 11.8212 5.81353 11.8212 5.83412 11.8253C5.86294 11.8294 5.89588 11.8335 5.92471 11.8335C6.09765 11.8541 6.26647 11.8624 6.43118 11.8624C9.42882 11.8624 11.8665 9.42471 11.8665 6.42706C11.8665 6.25 11.8582 6.07706 11.8418 5.90412C12.7847 6.69882 13.3488 7.87647 13.3488 9.15706C13.3529 9.47 13.3076 9.79941 13.2171 10.1659Z" fill="white"/>
</svg>
