<svg width="320" height="219" viewBox="0 0 320 219" fill="none" xmlns="http://www.w3.org/2000/svg">
<rect width="320" height="219" fill="white"/>
<mask id="mask0_1637_10535" style="mask-type:alpha" maskUnits="userSpaceOnUse" x="0" y="0" width="320" height="205">
<path d="M320 0H0V205H320V0Z" fill="#C4C4C4"/>
</mask>
<g mask="url(#mask0_1637_10535)">
<path opacity="0.8" d="M176.889 32.51C162.337 31.9799 148.477 27.0342 135.242 21.6247C122.007 16.2151 108.898 10.2235 94.6937 7.35783C85.5579 5.51443 75.1089 5.25176 67.7494 10.401C60.6643 15.3703 58.3752 23.9248 57.1453 31.8686C56.2189 37.8461 55.6747 44.1383 58.2111 49.7348C59.974 53.6203 63.0994 56.8859 65.2625 60.6082C72.7884 73.557 67.4683 89.5252 59.3151 102.169C55.4926 108.099 51.0517 113.764 48.0994 120.07C45.1471 126.377 43.7822 133.628 46.3658 140.078C48.9246 146.467 55.0249 151.257 61.6334 154.629C75.0549 161.479 90.8644 163.439 106.292 164.551C140.431 167.007 174.751 165.945 208.98 164.878C221.649 164.484 234.371 164.084 246.832 162.023C253.753 160.878 260.897 159.061 265.922 154.674C272.299 149.105 273.88 139.678 269.605 132.697C262.437 120.983 242.623 118.075 237.606 105.508C234.85 98.5884 237.681 90.8835 241.69 84.4682C250.288 70.7031 264.699 58.6276 265.457 42.896C265.979 32.0911 259.051 21.2697 248.339 16.156C237.112 10.7962 221.541 11.4706 213.261 20.3421C204.728 29.4668 189.739 32.9808 176.889 32.51Z" fill="#F3F6F8"/>
<path opacity="0.1" d="M107.159 84.5664C107.159 84.5664 105.845 87.3251 106.653 87.1382C107.461 86.9514 107.159 84.5664 107.159 84.5664Z" fill="black"/>
<g opacity="0.1">
<path opacity="0.1" d="M95.9743 31.3261C95.997 31.199 96.0122 31.0666 96.0401 30.9395C95.7996 31.1548 95.7869 31.5207 95.7236 31.8451C95.6917 32.0323 95.6417 32.2158 95.5742 32.3927C95.7736 32.0671 95.9094 31.7048 95.9743 31.3261Z" fill="black"/>
<path opacity="0.1" d="M96.0554 33.4698C96.1815 33.1358 96.2665 32.7871 96.3086 32.4316C96.0551 32.541 95.7806 32.5898 95.506 32.5744C95.4261 32.7569 95.3285 32.9308 95.2148 33.0935C95.5019 33.1162 95.7902 33.0682 96.0554 32.9533C96.0134 33.3087 95.9283 33.6574 95.8022 33.9914C95.9599 33.9952 96.1154 33.9524 96.25 33.8682C96.3847 33.784 96.4929 33.6619 96.5618 33.5164C96.6249 33.3985 96.6758 33.2741 96.7137 33.1453C96.6394 33.2517 96.5402 33.3372 96.4251 33.3939C96.31 33.4507 96.1829 33.4767 96.0554 33.4698Z" fill="black"/>
</g>
<path opacity="0.1" d="M93.9805 147.21C93.9805 147.21 98.2213 151.427 100.057 151.103C100.057 151.103 94.8666 150.649 93.9805 147.21Z" fill="black"/>
<path opacity="0.1" d="M93.0938 149.164C93.0938 149.164 93.4734 151.334 94.4862 151.121C95.4989 150.909 93.0938 149.164 93.0938 149.164Z" fill="black"/>
<path d="M143.059 88.9753L162.554 85.7236V104.642L144.031 103.648L143.059 88.9753Z" fill="#00A8E2"/>
<path opacity="0.07" d="M143.059 88.9753L162.554 85.7236V104.642L144.031 103.648L143.059 88.9753Z" fill="black"/>
<path d="M162.555 85.7236L185.934 87.5169L184.641 103.98L162.555 104.642V85.7236Z" fill="#00A8E2"/>
<path opacity="0.15" d="M162.555 85.7236L185.934 87.5169L184.641 103.98L162.555 104.642V85.7236Z" fill="black"/>
<path d="M169.743 79.9502L162.555 85.7244L185.934 87.5177L189.755 81.6085L169.743 79.9502Z" fill="#00A8E2"/>
<path d="M136 82.6698L153.551 80.4795L162.555 85.7243L143.059 88.976L136 82.6698Z" fill="#00A8E2"/>
<path d="M166.828 90.6365V116.502L157.696 115.542L153.723 115.127L152.513 114.998L148.543 114.58L143.059 114.004V88.9756L162.552 90.3355L166.828 90.6365Z" fill="#00A8E2"/>
<path d="M185.934 87.5176V112.742L178.614 114.183L175.055 114.883L166.828 116.503V90.637L185.934 87.5176Z" fill="#00A8E2"/>
<path opacity="0.1" d="M185.934 87.5176V112.742L178.614 114.183L175.055 114.883L166.828 116.503V90.637L185.934 87.5176Z" fill="black"/>
<g filter="url(#filter0_d_1637_10535)">
<rect x="152" y="65" width="24" height="24" rx="1" fill="white"/>
</g>
<path d="M136 94.4202L143.059 88.9756L166.828 90.6365L163.329 96.6781L136 94.4202Z" fill="#00A8E2"/>
<path opacity="0.15" d="M136 94.4202L143.059 88.9756L166.828 90.6365L163.329 96.6781L136 94.4202Z" fill="white"/>
<path d="M185.934 87.5176L166.828 90.637L173.047 96.3463L193.512 92.8273L185.934 87.5176Z" fill="#00A8E2"/>
<path opacity="0.15" d="M185.934 87.5176L166.828 90.637L173.047 96.3463L193.512 92.8273L185.934 87.5176Z" fill="white"/>
<path opacity="0.15" d="M178.615 114.183L175.055 114.883V109.494L178.39 108.632L178.615 114.183Z" fill="white"/>
<path opacity="0.15" d="M157.696 111.978V115.544L153.723 115.128V111.978H157.696Z" fill="white"/>
<path opacity="0.15" d="M152.513 113.101V114.997L148.543 114.58V113.101H152.513Z" fill="white"/>
<path opacity="0.1" d="M218.76 63.7706C218.76 63.7706 209.139 63.1763 210.263 70.0949C210.263 70.0949 210.038 71.3174 211.119 71.8727C211.119 71.8727 211.137 71.3536 212.109 71.5327C212.454 71.5923 212.805 71.6097 213.155 71.5846C213.622 71.5498 214.067 71.3604 214.421 71.0448C214.421 71.0448 217.13 69.8977 218.183 65.3614C218.183 65.3614 218.96 64.3727 218.93 64.1184L217.304 64.8294C217.304 64.8294 217.859 66.0309 217.423 67.0301C217.423 67.0301 217.37 64.8735 217.059 64.9228C216.995 64.9228 216.213 65.3407 216.213 65.3407C216.213 65.3407 217.17 67.435 216.449 68.9557C216.449 68.9557 216.722 66.3761 215.914 65.4912L214.783 66.1685C214.783 66.1685 215.899 68.3303 215.142 70.0949C215.142 70.0949 215.337 67.3882 214.542 66.3346L213.507 67.1651C213.507 67.1651 214.555 69.2956 213.917 70.7593C213.917 70.7593 213.833 67.6088 213.281 67.3701C213.281 67.3701 212.375 68.1902 212.236 68.5275C212.236 68.5275 212.955 70.0846 212.509 70.8917C212.509 70.8917 212.236 68.7922 212.003 68.7818C212.003 68.7818 211.099 70.1728 211.005 71.1175C211.05 70.2367 211.319 69.3833 211.785 68.6417C211.263 68.743 210.782 68.9982 210.4 69.3761C210.4 69.3761 210.542 68.3925 212.008 68.3069C212.008 68.3069 212.755 67.2507 212.955 67.1858C212.955 67.1858 211.496 67.0612 210.613 67.4635C210.613 67.4635 211.39 66.5371 213.22 66.9574L214.233 66.101C214.233 66.101 212.312 65.8415 211.499 66.1296C211.499 66.1296 212.436 65.3095 214.509 65.9064L215.623 65.2238C215.623 65.2238 213.985 64.8631 213.01 64.9929C213.01 64.9929 214.041 64.4245 215.95 65.0396L216.747 64.6737C216.747 64.6737 215.547 64.4323 215.195 64.3934C214.843 64.3545 214.826 64.2558 214.826 64.2558C215.586 64.1263 216.366 64.2162 217.079 64.5154C217.079 64.5154 218.791 63.8795 218.76 63.7706Z" fill="#349EFF"/>
<path opacity="0.1" d="M97.5667 149.154C97.5667 149.154 99.7817 139.528 92.9357 139.494C92.9357 139.494 91.7987 139.058 91.0827 140.055C91.0827 140.055 91.5707 140.161 91.2397 141.111C91.1247 141.447 91.0487 141.795 91.0117 142.149C90.9627 142.632 91.0687 143.117 91.3127 143.532C91.3127 143.532 91.9537 146.465 96.1237 148.302C96.1237 148.302 96.9437 149.257 97.1917 149.268L96.7867 147.506C96.7867 147.506 95.5357 147.861 94.6497 147.246C94.6497 147.246 96.7337 147.56 96.7357 147.246C96.7357 147.181 96.4827 146.322 96.4827 146.322C96.4827 146.322 94.3077 146.93 92.9667 145.941C92.9667 145.941 95.3997 146.657 96.3897 145.995L95.9337 144.718C95.9337 144.718 93.6547 145.479 92.0957 144.412C92.0957 144.412 94.6647 145.071 95.8147 144.449L95.1947 143.26C95.1947 143.26 92.9667 143.955 91.6677 143.06C91.6677 143.06 94.7057 143.512 95.0347 142.998C95.0347 142.998 94.4017 141.942 94.1007 141.744C94.1007 141.744 92.4907 142.206 91.7817 141.617C91.7817 141.617 93.8447 141.698 93.8927 141.474C93.8927 141.474 92.7107 140.325 91.8087 140.065C92.6487 140.261 93.4247 140.678 94.0597 141.275C94.0507 140.731 93.8867 140.201 93.5887 139.751C93.5887 139.751 94.5107 140.063 94.3487 141.568C94.3487 141.568 95.2347 142.502 95.2627 142.715C95.2627 142.715 95.6297 141.264 95.3947 140.301C95.3947 140.301 96.1537 141.246 95.4377 143.024L96.0857 144.205C96.0857 144.205 96.6727 142.31 96.5237 141.438C96.5237 141.438 97.1537 142.523 96.2247 144.516L96.6927 145.759C96.6927 145.759 97.3187 144.166 97.3587 143.164C97.3587 143.164 97.7317 144.301 96.8117 146.125L97.0297 146.992C97.0297 146.992 97.4657 145.821 97.5617 145.474C97.6577 145.126 97.7567 145.123 97.7567 145.123C97.7527 145.913 97.5347 146.686 97.1257 147.355C97.1257 147.355 97.4577 149.167 97.5667 149.154Z" fill="#349EFF"/>
<path opacity="0.1" d="M99.946 49.6424C99.946 49.6424 92.219 43.7177 89.457 50.1354C89.457 50.1354 88.613 51.0308 89.219 52.1026C89.219 52.1026 89.507 51.6848 90.231 52.3777C90.488 52.6223 90.772 52.8349 91.077 53.0109C91.49 53.2469 91.968 53.338 92.437 53.2704C92.437 53.2704 95.313 53.8387 98.624 50.6441C98.624 50.6441 99.807 50.2548 99.918 50.0265L98.174 49.7124C98.174 49.7124 97.992 51.0282 97.093 51.6173C97.093 51.6173 98.204 49.7851 97.916 49.6527C97.857 49.6243 96.986 49.523 96.986 49.523C96.986 49.523 96.662 51.8119 95.244 52.6761C95.244 52.6761 96.857 50.6753 96.657 49.4815L95.333 49.4088C95.333 49.4088 95.108 51.8456 93.528 52.8941C93.528 52.8941 95.141 50.7427 95.047 49.414L93.735 49.523C93.735 49.523 93.47 51.8924 92.15 52.754C92.15 52.754 93.768 50.0758 93.437 49.5672C93.437 49.5672 92.239 49.741 91.943 49.9434C91.943 49.9434 91.712 51.6406 90.902 52.0714C90.902 52.0714 91.801 50.164 91.619 50.0317C91.619 50.0317 90.117 50.6831 89.527 51.4253C90.038 50.7146 90.72 50.1528 91.507 49.7955C91.018 49.5868 90.479 49.5291 89.958 49.6294C89.958 49.6294 90.601 48.8872 91.872 49.6424C91.872 49.6424 93.062 49.183 93.265 49.2401C93.265 49.2401 92.113 48.3137 91.158 48.1528C91.158 48.1528 92.307 47.8154 93.611 49.1908L94.925 49.0533C94.925 49.0533 93.465 47.7557 92.626 47.5377C92.626 47.5377 93.849 47.3794 95.26 49.0455L96.556 49.1052C96.556 49.1052 95.384 47.8803 94.5 47.4391C94.5 47.4391 95.662 47.5429 96.928 49.1337L97.791 49.2765C97.791 49.2765 96.918 48.3993 96.645 48.1709C96.371 47.9425 96.409 47.8465 96.409 47.8465C97.113 48.1662 97.717 48.6801 98.154 49.331C98.154 49.331 99.913 49.7488 99.946 49.6424Z" fill="#349EFF"/>
<path opacity="0.1" d="M164.966 5.86231C164.966 5.86231 157.238 -0.0650523 154.476 6.35539C154.476 6.35539 153.633 7.25072 154.238 8.32253C154.238 8.32253 154.527 7.90471 155.251 8.59762C155.509 8.84093 155.793 9.05257 156.099 9.22824C156.513 9.46443 156.99 9.55557 157.459 9.48776C157.459 9.48776 160.335 10.0561 163.647 6.85885C163.647 6.85885 164.829 6.47217 164.938 6.24121L163.193 5.93237C163.193 5.93237 163.014 7.24813 162.112 7.83723C162.112 7.83723 163.226 6.00505 162.938 5.87269C162.879 5.84414 162.008 5.74293 162.008 5.74293C162.008 5.74293 161.674 8.03706 160.256 8.89606C160.256 8.89606 161.867 6.89519 161.669 5.70141L160.345 5.62875C160.345 5.62875 160.117 8.0656 158.54 9.11146C158.54 9.11146 160.153 6.96007 160.059 5.63134L158.75 5.74034C158.75 5.74034 158.482 8.11232 157.162 8.97392C157.162 8.97392 158.783 6.29571 158.451 5.78705C158.451 5.78705 157.254 5.96092 156.957 6.16335C156.957 6.16335 156.727 7.86058 155.917 8.29139C155.917 8.29139 156.816 6.38394 156.633 6.24899C156.633 6.24899 155.132 6.90297 154.542 7.64519C155.052 6.93378 155.734 6.37182 156.522 6.01542C156.032 5.80523 155.492 5.74747 154.97 5.84933C154.97 5.84933 155.615 5.10712 156.886 5.86231C156.886 5.86231 158.076 5.40037 158.279 5.46005C158.279 5.46005 157.127 4.53359 156.172 4.37009C156.172 4.37009 157.319 4.03531 158.623 5.40816L159.937 5.27061C159.937 5.27061 158.479 3.97303 157.638 3.75243C157.638 3.75243 158.861 3.59673 160.274 5.26282L161.57 5.31992C161.57 5.31992 160.398 4.095 159.512 3.65642C159.512 3.65642 160.677 3.76023 161.943 5.35107L162.803 5.4938C162.803 5.4938 161.927 4.62701 161.654 4.40382C161.381 4.18064 161.419 4.08202 161.419 4.08202C162.123 4.40138 162.727 4.91536 163.163 5.56646C163.163 5.56646 164.923 5.96093 164.966 5.86231Z" fill="#349EFF"/>
<path opacity="0.1" d="M194.495 13.3703C194.495 13.3703 191.406 3.99913 185.581 7.68167C185.581 7.68167 184.391 7.94119 184.297 9.16351C184.297 9.16351 184.765 8.98704 184.973 9.9732C185.05 10.324 185.166 10.6645 185.32 10.9879C185.529 11.4232 185.87 11.7773 186.292 11.9974C186.292 11.9974 188.348 14.1384 192.844 13.4299C192.844 13.4299 194.032 13.7985 194.25 13.6713L192.984 12.397C192.984 12.397 192.108 13.3755 191.039 13.3366C191.039 13.3366 192.971 12.4749 192.812 12.1973C192.779 12.1427 192.118 11.5537 192.118 11.5537C192.118 11.5537 190.583 13.2483 188.938 13.1367C188.938 13.1367 191.371 12.4256 191.867 11.3201L190.819 10.4923C190.819 10.4923 189.285 12.366 187.403 12.3089C187.403 12.3089 189.935 11.4758 190.576 10.3236L189.437 9.6514C189.437 9.6514 187.917 11.4498 186.343 11.3927C186.343 11.3927 189.158 10.1289 189.166 9.51645C189.166 9.51645 188.085 8.96368 187.728 8.95849C187.728 8.95849 186.598 10.2223 185.702 10.1081C185.702 10.1081 187.495 9.0571 187.419 8.84171C187.419 8.84171 185.824 8.50693 184.925 8.77683C185.738 8.4867 186.611 8.41961 187.457 8.58219C187.168 8.12517 186.755 7.76444 186.269 7.54412C186.269 7.54412 187.211 7.30796 187.841 8.66783C187.841 8.66783 189.077 8.98185 189.209 9.14534C189.209 9.14534 188.773 7.7154 188.077 7.02509C188.077 7.02509 189.209 7.41696 189.518 9.31403L190.677 9.96282C190.677 9.96282 190.199 8.0398 189.621 7.36765C189.621 7.36765 190.718 7.94897 190.956 10.1419L191.994 10.9438C191.994 10.9438 191.705 9.25174 191.219 8.37458C191.219 8.37458 192.12 9.13756 192.282 11.1852L192.913 11.8027C192.913 11.8027 192.68 10.5726 192.584 10.2249C192.487 9.87718 192.566 9.85383 192.566 9.85383C192.968 10.527 193.181 11.3013 193.181 12.0909C193.181 12.0909 194.407 13.4377 194.495 13.3703Z" fill="#349EFF"/>
<path opacity="0.1" d="M174.334 13.832C174.334 13.832 164.738 12.7368 165.531 19.7152C165.531 19.7152 165.245 20.9246 166.29 21.5318C166.29 21.5318 166.333 21.0128 167.303 21.2464C167.646 21.322 167.996 21.3577 168.346 21.3528C168.82 21.3441 169.278 21.1773 169.65 20.8779C169.65 20.8779 172.413 19.8736 173.701 15.3969C173.701 15.3969 174.527 14.4497 174.509 14.1927L172.851 14.8208C172.851 14.8208 173.357 16.0483 172.851 17.0241C172.851 17.0241 172.904 14.8675 172.597 14.9012C172.534 14.9012 171.734 15.2749 171.734 15.2749C171.734 15.2749 172.585 17.4159 171.79 18.9081C171.79 18.9081 172.19 16.3441 171.428 15.4203L170.25 16.0431C170.25 16.0431 171.263 18.262 170.415 19.9851C170.415 19.9851 170.744 17.2913 170.002 16.1988L168.926 16.9774C168.926 16.9774 169.868 19.1599 169.157 20.5899C169.157 20.5899 169.23 17.4393 168.691 17.172C168.691 17.172 167.744 17.9505 167.589 18.2723C167.589 18.2723 168.23 19.8553 167.746 20.647C167.746 20.647 167.577 18.537 167.354 18.5163C167.354 18.5163 166.382 19.858 166.24 20.8052C166.328 19.927 166.638 19.0877 167.141 18.3709C166.616 18.4454 166.123 18.6754 165.723 19.0327C165.723 19.0327 165.911 18.0595 167.379 18.0492C167.379 18.0492 168.177 17.0344 168.392 16.9799C168.392 16.9799 166.941 16.7801 166.037 17.1356C166.037 17.1356 166.86 16.2481 168.668 16.7646L169.734 15.9626C169.734 15.9626 167.807 15.563 166.992 15.8225C166.992 15.8225 167.969 15.044 170.01 15.7576L171.157 15.1321C171.157 15.1321 169.539 14.6859 168.559 14.7662C168.559 14.7662 169.615 14.2473 171.491 14.9661L172.306 14.6417C172.306 14.6417 171.119 14.3381 170.769 14.281C170.42 14.2239 170.407 14.1253 170.407 14.1253C171.173 14.0352 171.947 14.1647 172.645 14.499C172.645 14.499 174.352 13.941 174.334 13.832Z" fill="#349EFF"/>
<path opacity="0.1" d="M258.29 90.1739C258.29 90.1739 248.699 89.0788 249.492 96.0494C249.492 96.0494 249.206 97.2587 250.251 97.866C250.251 97.866 250.294 97.347 251.264 97.578C251.606 97.6561 251.957 97.6919 252.307 97.6844C252.781 97.6769 253.239 97.5101 253.611 97.2094C253.611 97.2094 256.374 96.2051 257.65 91.7311C257.65 91.7311 258.475 90.7812 258.457 90.5269L256.799 91.1524C256.799 91.1524 257.305 92.3825 256.799 93.3582C256.799 93.3582 256.852 91.199 256.546 91.2354C256.482 91.2354 255.682 91.6065 255.682 91.6065C255.682 91.6065 256.533 93.7475 255.738 95.2397C255.738 95.2397 256.138 92.6783 255.376 91.7518L254.199 92.3773C254.199 92.3773 255.211 94.5961 254.366 96.3193C254.366 96.3193 254.692 93.6255 253.951 92.5304L252.874 93.3089C252.874 93.3089 253.816 95.4914 253.105 96.9188C253.105 96.9188 253.178 93.7683 252.639 93.5035C252.639 93.5035 251.695 94.2821 251.538 94.6039C251.538 94.6039 252.181 96.187 251.695 96.9785C251.695 96.9785 251.525 94.8686 251.302 94.8478C251.302 94.8478 250.33 96.1895 250.188 97.1368C250.276 96.2586 250.587 95.4194 251.089 94.7026C250.564 94.7757 250.071 95.0058 249.672 95.3643C249.672 95.3643 249.859 94.3885 251.327 94.3782C251.327 94.3782 252.128 93.3634 252.34 93.3116C252.34 93.3116 250.889 93.1091 249.986 93.4646C249.986 93.4646 250.808 92.5797 252.619 93.0961L253.682 92.2942C253.682 92.2942 251.778 91.9258 250.95 92.1801C250.95 92.1801 251.928 91.4015 253.968 92.1125L255.115 91.4897C255.115 91.4897 253.497 91.0433 252.517 91.1238C252.517 91.1238 253.573 90.6047 255.449 91.3237L256.265 90.9966C256.265 90.9966 255.077 90.693 254.728 90.6385C254.378 90.584 254.366 90.4828 254.366 90.4828C255.131 90.3911 255.906 90.5197 256.604 90.8539C256.604 90.8539 258.315 90.2855 258.29 90.1739Z" fill="#349EFF"/>
<path opacity="0.1" d="M272.954 99.3562C272.954 99.3562 263.363 98.2637 264.156 105.232C264.156 105.232 263.872 106.441 264.915 107.048C264.915 107.048 264.959 106.529 265.928 106.763C266.27 106.839 266.619 106.874 266.969 106.867C267.44 106.856 267.896 106.691 268.268 106.394C268.268 106.394 271.027 105.39 272.303 100.913C272.303 100.913 273.131 99.9661 273.111 99.7091L271.453 100.335C271.453 100.335 271.959 101.565 271.453 102.54C271.453 102.54 271.506 100.384 271.2 100.418C271.136 100.418 270.336 100.789 270.336 100.789C270.336 100.789 271.187 102.93 270.392 104.422C270.392 104.422 270.792 101.861 270.03 100.937L268.853 101.56C268.853 101.56 269.865 103.778 269.02 105.501C269.02 105.501 269.346 102.808 268.604 101.715L267.528 102.494C267.528 102.494 268.47 104.676 267.761 106.106C267.761 106.106 267.832 102.953 267.293 102.689C267.293 102.689 266.349 103.467 266.192 103.789C266.192 103.789 266.835 105.372 266.349 106.163C266.349 106.163 266.179 104.053 265.956 104.032C265.956 104.032 264.984 105.374 264.845 106.321C264.932 105.444 265.242 104.604 265.743 103.887C265.218 103.962 264.725 104.191 264.326 104.549C264.326 104.549 264.515 103.573 265.984 103.566C265.984 103.566 266.781 102.551 266.997 102.496C266.997 102.496 265.546 102.297 264.642 102.652C264.642 102.652 265.465 101.765 267.275 102.281L268.339 101.479C268.339 101.479 266.435 101.111 265.607 101.365C265.607 101.365 266.584 100.586 268.625 101.3L269.772 100.675C269.772 100.675 268.154 100.228 267.174 100.309C267.174 100.309 268.23 99.7896 270.106 100.509L270.921 100.184C270.921 100.184 269.734 99.8805 269.387 99.8234C269.04 99.7663 269.022 99.6676 269.022 99.6676C269.788 99.5776 270.562 99.707 271.26 100.041C271.26 100.041 272.979 99.4678 272.954 99.3562Z" fill="#349EFF"/>
<path opacity="0.1" d="M240.403 22.0164C240.403 22.0164 232.676 16.0917 229.914 22.5095C229.914 22.5095 229.071 23.4049 229.676 24.4767C229.676 24.4767 229.964 24.0588 230.688 24.7517C230.945 24.9963 231.229 25.2089 231.534 25.385C231.948 25.6208 232.425 25.7119 232.894 25.6445C232.894 25.6445 235.77 26.2128 239.084 23.0181C239.084 23.0181 240.264 22.6289 240.375 22.4006L238.636 22.0787C238.636 22.0787 238.454 23.3945 237.555 23.9836C237.555 23.9836 238.666 22.1514 238.378 22.0191C238.319 21.9905 237.451 21.8893 237.451 21.8893C237.451 21.8893 237.124 24.1782 235.707 25.0424C235.707 25.0424 237.319 23.0415 237.119 21.8478L235.795 21.7751C235.795 21.7751 235.57 24.2119 233.99 25.2604C233.99 25.2604 235.605 23.109 235.509 21.7802L234.198 21.8893C234.198 21.8893 233.944 24.2587 232.613 25.1203C232.613 25.1203 234.233 22.4421 233.899 21.9334C233.899 21.9334 232.701 22.1073 232.405 22.3096C232.405 22.3096 232.177 24.0069 231.367 24.4377C231.367 24.4377 232.263 22.5303 232.081 22.3979C232.081 22.3979 230.58 23.0493 229.99 23.7915C230.5 23.0809 231.182 22.5191 231.969 22.1617C231.48 21.9531 230.941 21.8954 230.42 21.9957C230.42 21.9957 231.066 21.2535 232.337 22.0086C232.337 22.0086 233.524 21.5493 233.727 21.6064C233.727 21.6064 232.575 20.6799 231.62 20.5191C231.62 20.5191 232.77 20.1816 234.073 21.5571L235.388 21.4195C235.388 21.4195 233.929 20.122 233.089 19.904C233.089 19.904 234.311 19.7457 235.722 21.4117L237.021 21.4714C237.021 21.4714 235.846 20.2465 234.962 19.8054C234.962 19.8054 236.127 19.9092 237.39 21.5L238.254 21.6428C238.254 21.6428 237.38 20.7656 237.107 20.5372C236.833 20.3088 236.874 20.2335 236.874 20.2335C237.577 20.5538 238.18 21.0677 238.616 21.718C238.616 21.718 240.37 22.1228 240.403 22.0164Z" fill="#349EFF"/>
<path opacity="0.1" d="M246.371 64.7899C246.371 64.7899 243.707 55.2839 237.717 58.6965C237.717 58.6965 236.517 58.8859 236.367 60.116C236.367 60.116 236.843 59.963 237.008 60.957C237.069 61.314 237.171 61.6625 237.312 61.995C237.499 62.4422 237.825 62.8141 238.238 63.0538C238.238 63.0538 240.198 65.2856 244.72 64.7874C244.72 64.7874 245.89 65.2078 246.112 65.0937L244.915 63.7597C244.915 63.7597 243.996 64.6991 242.932 64.6109C242.932 64.6109 244.897 63.8324 244.745 63.5547C244.715 63.4976 244.082 62.8773 244.082 62.8773C244.082 62.8773 242.477 64.5019 240.836 64.3125C240.836 64.3125 243.299 63.7155 243.841 62.6411L242.829 61.764C242.829 61.764 241.213 63.5651 239.337 63.425C239.337 63.425 241.889 62.706 242.593 61.5875L241.484 60.8635C241.484 60.8635 239.876 62.5893 238.317 62.4595C238.317 62.4595 241.185 61.3254 241.221 60.7156C241.221 60.7156 240.162 60.1135 239.805 60.0927C239.805 60.0927 238.623 61.3021 237.724 61.1464C237.724 61.1464 239.562 60.1784 239.497 59.9604C239.497 59.9604 237.917 59.5529 237.008 59.7787C237.831 59.5285 238.704 59.5026 239.54 59.7035C239.272 59.2338 238.876 58.855 238.4 58.6135C238.4 58.6135 239.352 58.4189 239.919 59.8072C239.919 59.8072 241.137 60.1758 241.264 60.3471C241.264 60.3471 240.892 58.8964 240.226 58.1775C240.226 58.1775 241.34 58.6186 241.565 60.5287L242.694 61.232C242.694 61.232 242.299 59.2856 241.752 58.6005C241.752 58.6005 242.821 59.2312 242.965 61.4318L243.978 62.2804C243.978 62.2804 243.763 60.578 243.317 59.6852C243.317 59.6852 244.186 60.4898 244.256 62.54L244.859 63.1888C244.859 63.1888 244.682 61.9482 244.606 61.5953C244.53 61.2424 244.606 61.1931 244.606 61.1931C244.981 61.8834 245.16 62.667 245.125 63.4561C245.125 63.4561 246.279 64.8523 246.371 64.7899Z" fill="#349EFF"/>
<path opacity="0.1" d="M187.018 86.2109C187.018 86.2109 181.845 77.8597 177.042 82.858C177.042 82.858 175.943 83.377 176.136 84.6097C176.136 84.6097 176.554 84.3242 176.984 85.2326C177.139 85.5544 177.331 85.856 177.556 86.1305C177.858 86.5052 178.272 86.7678 178.734 86.8779C178.734 86.8779 181.227 88.4558 185.43 86.6702C185.43 86.6702 186.668 86.7378 186.851 86.5638L185.332 85.6297C185.332 85.6297 184.706 86.7974 183.661 87.018C183.661 87.018 185.337 85.7205 185.111 85.4817C185.068 85.435 184.289 85.0249 184.289 85.0249C184.289 85.0249 183.192 87.044 181.567 87.3372C181.567 87.3372 183.767 86.0527 183.995 84.8641L182.782 84.3164C182.782 84.3164 181.726 86.5094 179.888 86.9116C179.888 86.9116 182.141 85.4869 182.509 84.21L181.243 83.8363C181.243 83.8363 180.174 85.9566 178.642 86.2811C178.642 86.2811 181.083 84.3657 180.949 83.7689C180.949 83.7689 179.769 83.4964 179.43 83.5795C179.43 83.5795 178.627 85.082 177.721 85.1911C177.721 85.1911 179.22 83.7326 179.096 83.5405C179.096 83.5405 177.468 83.6054 176.657 84.0855C177.38 83.6056 178.213 83.3282 179.073 83.281C178.688 82.9075 178.205 82.6577 177.683 82.5621C177.683 82.5621 178.541 82.1028 179.455 83.2706C179.455 83.2706 180.721 83.2706 180.896 83.4004C180.896 83.4004 180.136 82.1028 179.303 81.6175C179.303 81.6175 180.493 81.7213 181.233 83.4886L182.511 83.8363C182.511 83.8363 181.597 82.0846 180.886 81.5838C180.886 81.5838 182.083 81.8796 182.825 83.9532L184.02 84.4721C184.02 84.4721 183.347 82.9021 182.671 82.1676C182.671 82.1676 183.724 82.6867 184.354 84.6357L185.114 85.0847C185.114 85.0847 184.608 83.9454 184.428 83.6313C184.248 83.3174 184.319 83.2447 184.319 83.2447C184.867 83.7994 185.253 84.4993 185.435 85.2663C185.435 85.2663 186.95 86.2992 187.018 86.2109Z" fill="#349EFF"/>
<path opacity="0.1" d="M200.971 187.073C204.736 187.073 207.789 186.544 207.789 185.892C207.789 185.24 204.736 184.711 200.971 184.711C197.205 184.711 194.152 185.24 194.152 185.892C194.152 186.544 197.205 187.073 200.971 187.073Z" fill="#349EFF"/>
<path opacity="0.1" d="M176.115 205C179.881 205 182.934 204.471 182.934 203.819C182.934 203.168 179.881 202.639 176.115 202.639C172.35 202.639 169.297 203.168 169.297 203.819C169.297 204.471 172.35 205 176.115 205Z" fill="#349EFF"/>
<path opacity="0.1" d="M47.58 195.815C51.3457 195.815 54.3984 195.287 54.3984 194.634C54.3984 193.982 51.3457 193.453 47.58 193.453C43.8144 193.453 40.7617 193.982 40.7617 194.634C40.7617 195.287 43.8144 195.815 47.58 195.815Z" fill="#E7EEF1"/>
<path opacity="0.1" d="M227.83 203.819C231.596 203.819 234.648 203.29 234.648 202.638C234.648 201.986 231.596 201.457 227.83 201.457C224.064 201.457 221.012 201.986 221.012 202.638C221.012 203.29 224.064 203.819 227.83 203.819Z" fill="#349EFF"/>
<path d="M234.931 188.396C240.553 188.396 245.111 187.606 245.111 186.631C245.111 185.656 240.553 184.866 234.931 184.866C229.308 184.866 224.75 185.656 224.75 186.631C224.75 187.606 229.308 188.396 234.931 188.396Z" fill="#E7EEF1"/>
<path d="M239.038 184.746C239.484 184.313 239.809 183.728 239.969 183.07C240.09 182.403 239.852 181.605 239.32 181.361C238.722 181.089 238.083 181.582 237.597 182.081C237.111 182.58 236.56 183.151 235.925 183.047C236.251 182.694 236.495 182.246 236.633 181.748C236.771 181.249 236.798 180.717 236.713 180.201C236.685 179.988 236.61 179.788 236.494 179.622C236.161 179.198 235.561 179.381 235.162 179.714C233.899 180.776 233.547 182.823 233.539 184.668C233.413 184.004 233.52 183.311 233.517 182.638C233.515 181.965 233.357 181.187 232.873 180.834C232.577 180.637 232.241 180.536 231.901 180.543C231.333 180.521 230.699 180.588 230.312 181.084C229.826 181.698 229.955 182.733 230.373 183.403C230.791 184.074 231.43 184.505 232.018 184.976C232.489 185.311 232.891 185.768 233.194 186.312C233.229 186.388 233.257 186.468 233.279 186.55H236.842C237.639 186.07 238.378 185.464 239.038 184.746Z" fill="#F68B39"/>
<rect x="163.542" y="54" width="1" height="6" rx="0.5" fill="#F68B39"/>
<rect x="155" y="56.0801" width="1" height="6" rx="0.5" transform="rotate(-45 155 56.0801)" fill="#F68B39"/>
<rect width="1" height="6" rx="0.5" transform="matrix(0.707107 0.707107 0.707107 -0.707107 167.542 60.2422)" fill="#F68B39"/>
</g>
<defs>
<filter id="filter0_d_1637_10535" x="148" y="65" width="32" height="32" filterUnits="userSpaceOnUse" color-interpolation-filters="sRGB">
<feFlood flood-opacity="0" result="BackgroundImageFix"/>
<feColorMatrix in="SourceAlpha" type="matrix" values="0 0 0 0 0 0 0 0 0 0 0 0 0 0 0 0 0 0 127 0" result="hardAlpha"/>
<feOffset dy="4"/>
<feGaussianBlur stdDeviation="2"/>
<feComposite in2="hardAlpha" operator="out"/>
<feColorMatrix type="matrix" values="0 0 0 0 0 0 0 0 0 0 0 0 0 0 0 0 0 0 0.25 0"/>
<feBlend mode="normal" in2="BackgroundImageFix" result="effect1_dropShadow_1637_10535"/>
<feBlend mode="normal" in="SourceGraphic" in2="effect1_dropShadow_1637_10535" result="shape"/>
</filter>
</defs>
</svg>
