<svg width="320" height="200" viewBox="0 0 320 200" fill="none" xmlns="http://www.w3.org/2000/svg">
<g clip-path="url(#clip0_533_2302)">
<mask id="mask0_533_2302" style="mask-type:alpha" maskUnits="userSpaceOnUse" x="0" y="0" width="320" height="200">
<path d="M320 0H0V200H320V0Z" fill="#C4C4C4"/>
</mask>
<g mask="url(#mask0_533_2302)">
<path d="M113.66 196.126C138.285 196.126 158.247 192.345 158.247 187.68C158.247 183.015 138.285 179.233 113.66 179.233C89.0361 179.233 69.0742 183.015 69.0742 187.68C69.0742 192.345 89.0361 196.126 113.66 196.126Z" fill="white"/>
<path opacity="0.8" d="M176.889 31.7176C162.337 31.2005 148.477 26.3754 135.242 21.0978C122.007 15.8202 108.898 9.97472 94.6937 7.17894C85.5579 5.3805 75.1089 5.12424 67.7494 10.1479C60.6643 14.996 58.3752 23.3418 57.1453 31.0919C56.2189 36.9236 55.6747 43.0623 58.2111 48.5223C59.974 52.3131 63.0994 55.499 65.2625 59.1305C72.7884 71.7635 67.4683 87.3422 59.3151 99.6774C55.4926 105.463 51.0517 110.99 48.0994 117.142C45.1471 123.295 43.7822 130.369 46.3658 136.662C48.9246 142.895 55.0249 147.568 61.6334 150.858C75.0549 157.541 90.8644 159.453 106.292 160.538C140.431 162.934 174.751 161.898 208.98 160.857C221.649 160.473 234.371 160.083 246.832 158.072C253.753 156.955 260.897 155.182 265.922 150.902C272.299 145.469 273.88 136.272 269.605 129.461C262.437 118.033 242.623 115.196 237.606 102.935C234.85 96.1844 237.681 88.6674 241.69 82.4086C250.288 68.9792 264.699 57.1982 265.457 41.8503C265.979 31.309 259.051 20.7515 248.339 15.7625C237.112 10.5334 221.541 11.1914 213.261 19.8465C204.728 28.7487 189.739 32.177 176.889 31.7176Z" fill="white"/>
<path d="M159.486 91.5879L151.731 86.3596L155.643 80.5363L135.16 78.9032L127.8 84.5949L118.586 79.4298L110.902 80.354L110.811 78.3285C110.716 76.2169 110.504 74.1122 110.175 72.0241C110.208 71.3912 110.231 70.6645 110.229 69.8746C110.229 66.5452 109.778 62.1321 107.798 59.1901L108.254 55.0935L104.557 50.726C105.151 49.5435 105.828 48.4047 106.583 47.3181C106.709 47.1358 106.836 46.9586 106.973 46.7864C111.77 46.4396 115.556 42.4949 115.556 37.6717C115.556 37.4489 115.556 37.2261 115.53 37.0058C115.53 36.9172 115.513 36.8261 115.502 36.7374C115.971 36.9906 116.444 37.2438 116.918 37.497C117.006 37.6236 117.108 37.7502 117.219 37.8996L117.242 37.9274L117.384 38.1021L117.429 38.1553C117.48 38.2161 117.533 38.2743 117.586 38.3351L117.622 38.3756C117.756 38.525 117.898 38.6769 118.05 38.8262C118.068 38.841 118.085 38.857 118.1 38.8743L118.29 39.0516L118.343 39.0997C118.505 39.244 118.677 39.3833 118.85 39.5149L118.905 39.5554L119.123 39.7048L119.194 39.7504C119.277 39.801 119.364 39.8542 119.447 39.9023L119.478 39.92C119.576 39.9732 119.678 40.0238 119.779 40.0719L119.829 40.0922C119.916 40.1293 120 40.1648 120.083 40.1985L120.161 40.2264C120.25 40.2567 120.336 40.2846 120.427 40.3099L120.483 40.3251C120.594 40.353 120.705 40.3757 120.819 40.3935H120.832C120.939 40.4108 121.048 40.4218 121.156 40.4264H121.23C121.327 40.4315 121.424 40.4315 121.521 40.4264H121.584C121.705 40.4194 121.826 40.405 121.946 40.3833C122.513 40.3089 123.056 40.1137 123.541 39.8111C123.665 39.7286 123.774 39.6269 123.865 39.5098C124.372 38.8465 123.815 38.1198 123.815 38.1198C123.617 37.6489 122.336 37.3172 122.336 37.3172C122.336 37.3172 118.285 35.626 118.285 34.279C118.285 32.932 117.272 25.9441 106.818 24.3465C106.818 24.3465 100.018 23.9642 98.106 27.605L98.0655 28.0303C97.5034 28.3823 97.0375 29.0887 96.4831 29.2963C96.2435 29.3477 96.0125 29.433 95.7969 29.5495V29.5014C95.7329 29.5573 95.6804 29.6253 95.6425 29.7014C95.5234 29.9384 95.452 30.1964 95.4323 30.4609C95.3753 30.7841 95.2631 31.0949 95.1007 31.38C95.0554 31.461 95.0046 31.5388 94.9487 31.6129L94.9057 31.6813C95.1996 31.7042 95.4948 31.6565 95.7665 31.5421C95.7237 31.8887 95.6387 32.2288 95.5133 32.5548C95.6743 32.56 95.8334 32.5189 95.9716 32.4363C96.1099 32.3537 96.2215 32.2331 96.2932 32.0889V32.0687L96.3261 32.0231C96.3898 31.9059 96.4423 31.783 96.4831 31.656L96.4552 31.6864C96.5058 31.5218 96.5514 31.3547 96.6071 31.1927C96.6326 31.1014 96.6747 31.0156 96.7312 30.9395C96.7988 30.8713 96.8814 30.82 96.9724 30.7897C97.0635 30.7594 97.1603 30.7508 97.2553 30.7648L97.1515 32.9599H97.197C97.1361 33.1196 97.0615 33.2737 96.9742 33.4207C96.6147 34.003 95.9615 34.4005 95.721 35.0386C95.6173 35.3463 95.5776 35.672 95.6045 35.9956C95.6045 36.1855 95.6273 36.3779 95.6425 36.5678V36.5526C95.6779 37.059 95.6881 37.5401 95.4146 37.9477C95.2272 38.2262 94.926 38.4363 94.8222 38.7528C94.7934 38.841 94.7806 38.9336 94.7842 39.0263C94.8045 39.3037 94.8624 39.5771 94.9563 39.839C94.9574 39.834 94.9574 39.8288 94.9563 39.8238C95.0195 40.0164 95.0343 40.2216 94.9994 40.4213C94.8854 40.9277 94.2702 41.3505 94.3006 41.8341C94.2988 41.8977 94.3083 41.9611 94.3284 42.0215C94.4468 42.2577 94.6518 42.4391 94.9006 42.5278C95.291 42.7498 95.7393 42.8487 96.1868 42.8114C96.3546 42.7811 96.5167 42.7256 96.6679 42.6468C96.4907 43.0545 96.3084 43.457 96.1235 43.8393C96.0957 43.9001 96.0653 43.9609 96.0349 44.0216C96.0349 44.0216 94.4702 42.976 93.5815 45.1078C93.3221 45.5508 93.1365 46.0331 93.0321 46.5358C92.9876 46.7369 92.9249 46.9335 92.8448 47.1232C92.4502 47.7911 91.8597 48.3215 91.1535 48.6423C89.3406 49.4728 82.0185 58.6052 81.8894 60.97C81.826 61.8931 81.6699 62.8075 81.4235 63.6993C80.8471 65.7996 80.699 67.9944 80.988 70.1531C81.0785 70.8507 81.2284 71.5394 81.4361 72.2115C82.2134 74.5737 82.7325 78.9817 82.7325 78.9817L83.573 86.633C83.5418 87.689 83.5875 88.7459 83.7098 89.7953C82.8515 90.7752 79.4056 94.8591 80.7222 95.9706C81.7349 96.8466 83.5072 96.7023 84.5022 96.5225C83.6642 98.5961 82.3451 102.201 82.1704 104.678C81.9172 108.341 82.6033 113.195 83.6895 115.058C84.7757 116.922 88.3963 121.702 88.3963 121.702C88.3963 121.702 88.2266 128.259 89.5204 130.642C90.8142 133.024 91.3358 137.967 91.3358 137.967C91.3358 137.967 92.5435 142.139 91.9383 143.674C91.3332 145.208 93.06 146.484 91.2471 147.504C89.4343 148.525 87.1151 171.522 87.1151 171.522C87.1151 171.522 86.1809 186.594 87.1151 187.361C87.1651 187.397 87.2186 187.429 87.2746 187.455V192.518C87.2746 192.518 86.6265 193.582 89.2622 193.797C91.0674 193.941 96.1843 194.268 99.22 194.458L101.572 194.605C101.572 194.605 107.142 195.714 109.603 194.605C112.064 193.496 116.427 193.521 115.778 190.592C115.692 190.193 115.577 189.801 115.434 189.419C114.723 187.601 113.515 187.394 111.289 186.887C111.16 186.86 111.036 186.834 110.922 186.814C108.578 186.406 107.808 187.498 106.494 186.077C105.352 184.849 101.716 183.475 100.478 183.039C100.509 182.948 100.547 182.859 100.577 182.766C100.227 182.706 99.9004 182.547 99.6378 182.307L102.992 182.52L104.99 182.644C104.99 182.644 109.725 183.588 111.826 182.644C113.928 181.7 117.624 181.725 117.072 179.236C117 178.897 116.902 178.564 116.781 178.239C116.176 176.694 115.148 176.525 113.257 176.097C113.148 176.074 113.047 176.051 112.945 176.033C110.953 175.686 110.299 176.613 109.183 175.408C108.226 174.38 105.205 173.228 104.119 172.836C104.119 172.273 103.36 171.473 102.881 170.671C102.319 169.734 103.357 166.455 103.357 166.455L103.95 152.852C104.175 152.751 104.414 152.683 104.658 152.649C104.658 152.649 107.337 150.092 106.732 147.368C106.609 146.544 106.544 145.712 106.54 144.879C107.421 144.061 108.633 142.853 108.978 142.109C109.54 140.896 108.978 135.02 108.978 135.02V112.549L113.459 113.002L117.525 113.42L118.764 113.547L122.83 113.957L132.175 114.901L140.596 113.306L144.239 112.618L151.731 111.2V92.869L159.486 91.5879ZM97.8072 30.8458L97.2857 30.7901C97.4578 30.7977 97.6401 30.8306 97.8072 30.8458Z" fill="url(#paint0_linear_533_2302)"/>
<path d="M141.309 103.49C138.777 107.113 129.675 105.194 129.675 105.194L122.621 98.5937L121.672 97.7L123.264 94.3174C123.264 94.3174 123.771 94.4566 124.639 94.7048C129.199 96.0289 143.446 100.445 141.309 103.49Z" fill="#EFB7B9"/>
<path opacity="0.1" d="M124.634 94.7048C124.323 95.7884 123.47 97.4113 122.621 98.5937L121.672 97.7L123.264 94.3174C123.264 94.3174 123.776 94.4566 124.634 94.7048Z" fill="black"/>
<path d="M100.44 56.5595C100.44 56.5595 93.9384 59.4433 94.2575 66.5249C94.487 71.0873 94.9841 75.6322 95.7462 80.1363C95.7462 80.1363 94.417 90.7929 99.9516 93.54C105.486 96.2871 110.608 98.5455 110.608 98.5455C110.608 98.5455 119.267 99.4772 120.343 99.8621C121.419 100.247 124.782 94.3628 124.161 93.4463C123.541 92.5298 115.594 90.6081 114.581 89.0788C113.568 87.5496 111.226 86.6052 111.226 86.6052C111.226 86.6052 108.808 85.1418 108.644 83.8201C108.479 82.4985 109.117 81.5136 109.279 80.9338C109.441 80.354 109.851 74.7561 109.851 74.7561C109.851 74.7561 112.581 54.8302 100.44 56.5595Z" fill="#DCE6F2"/>
<path opacity="0.1" d="M104.732 79.8447C104.732 79.8447 95.8127 81.3385 96.6761 84.4603C96.6761 84.4603 99.9143 81.0904 104.732 79.8447Z" fill="black"/>
<path opacity="0.1" d="M104.803 81.1084C104.803 81.1084 99.8992 85.1113 100.859 85.3164C101.818 85.5215 104.803 81.1084 104.803 81.1084Z" fill="black"/>
<path opacity="0.1" d="M107.159 82.5039C107.159 82.5039 105.845 85.1953 106.653 85.013C107.461 84.8307 107.159 82.5039 107.159 82.5039Z" fill="black"/>
<path opacity="0.1" d="M124.963 94.9904L124.421 94.836C124.575 94.3296 124.618 93.9194 124.492 93.7295C123.872 92.813 115.929 90.8938 114.919 89.3621C113.909 87.8303 111.564 86.8884 111.564 86.8884C111.564 86.8884 109.146 85.425 108.982 84.1034C108.817 82.7817 109.455 81.7968 109.617 81.217C109.779 80.6372 110.189 75.0367 110.189 75.0367C110.189 75.0367 112.911 55.1135 100.771 56.8427C100.771 56.8427 94.2689 59.7291 94.5854 66.8107C94.815 71.3731 95.313 75.9181 96.0767 80.422C96.0767 80.422 94.7474 91.0787 100.282 93.8257C105.817 96.5728 110.939 98.8313 110.939 98.8313C110.939 98.8313 119.595 99.7604 120.674 100.148C121.081 100.295 121.818 99.5376 122.54 98.497L122.95 98.8794L130.004 105.477C130.004 105.477 139.106 107.399 141.638 103.776C143.777 100.728 129.533 96.312 124.963 94.9904Z" fill="black"/>
<path d="M96.7 29.9796C96.4521 30.028 96.2147 30.1197 95.9986 30.2505C95.7455 30.4606 95.7455 30.8202 95.6822 31.1341C95.6078 31.5709 95.4346 31.9848 95.1758 32.3444C95.4639 32.3655 95.7529 32.3178 96.0189 32.2051C95.9756 32.5516 95.8905 32.8917 95.7657 33.2179C95.9235 33.2219 96.079 33.1803 96.2138 33.0981C96.3485 33.0159 96.4566 32.8966 96.5253 32.7545C96.6592 32.4692 96.7652 32.1716 96.8417 31.8658C96.8655 31.7744 96.9068 31.6884 96.9633 31.6126C97.1962 31.3367 97.6292 31.4607 97.9887 31.4962C98.2879 31.5214 98.5884 31.4662 98.8591 31.3362C99.1297 31.2062 99.3607 31.0062 99.5281 30.7569C99.9104 30.1771 99.9332 28.6934 99.0217 28.5364C98.0697 28.3795 97.4772 29.691 96.7 29.9796Z" fill="#EAA300"/>
<g opacity="0.1">
<path opacity="0.1" d="M95.9743 30.5618C95.997 30.4378 96.0122 30.3086 96.0401 30.1846C95.7996 30.3947 95.7869 30.7517 95.7236 31.0682C95.6917 31.2508 95.6417 31.4298 95.5742 31.6024C95.7736 31.2847 95.9094 30.9313 95.9743 30.5618Z" fill="black"/>
<path opacity="0.1" d="M96.0554 32.6534C96.1815 32.3276 96.2665 31.9874 96.3086 31.6406C96.0551 31.7473 95.7806 31.7949 95.506 31.7799C95.4261 31.9579 95.3285 32.1276 95.2148 32.2863C95.5019 32.3085 95.7902 32.2616 96.0554 32.1495C96.0134 32.4963 95.9283 32.8365 95.8022 33.1623C95.9599 33.166 96.1154 33.1243 96.25 33.0421C96.3847 32.96 96.4929 32.8409 96.5618 32.6989C96.6249 32.5839 96.6758 32.4625 96.7137 32.3369C96.6394 32.4407 96.5402 32.5241 96.4251 32.5794C96.31 32.6348 96.1829 32.6602 96.0554 32.6534Z" fill="black"/>
<path opacity="0.1" d="M98.2766 30.9318C97.9171 30.8964 97.4816 30.7723 97.2487 31.0483C97.1933 31.1247 97.1521 31.2104 97.1272 31.3015C97.1044 31.3673 97.0841 31.4357 97.0664 31.504C97.3069 31.3141 97.6968 31.4154 98.0235 31.4483C98.3226 31.4727 98.6228 31.4171 98.8933 31.2872C99.1638 31.1573 99.3949 30.9577 99.5628 30.709C99.6396 30.5861 99.6968 30.452 99.7325 30.3115C99.5591 30.5261 99.3357 30.6949 99.0818 30.8031C98.828 30.9112 98.5515 30.9554 98.2766 30.9318Z" fill="black"/>
</g>
<path d="M104.321 50.8906L108.182 55.5341L107.678 60.2206L103.012 52.9161L104.321 50.8906Z" fill="#DCE6F2"/>
<path opacity="0.1" d="M108.179 55.5341L107.706 59.942L107.675 60.2206L103.465 53.6276L103.012 52.9161L103.143 52.711L104.318 50.8906L104.579 51.2046L108.179 55.5341Z" fill="black"/>
<path d="M110.185 44.6037C108.879 44.9784 107.631 46.2646 106.545 47.8267C105.81 48.9046 105.154 50.0333 104.58 51.2042C104.223 51.9182 103.909 52.6044 103.648 53.2019L103.466 53.6272C103.025 54.6678 102.78 55.3641 102.78 55.3641C102.78 55.3641 92.7788 47.8445 94.3612 47.3381C94.8929 47.1684 95.5917 46.0291 96.2829 44.5935L96.3689 44.4112C96.807 43.4896 97.2374 42.4617 97.6197 41.4945C98.402 39.507 98.9818 37.7803 98.9818 37.7803C98.9818 37.7803 114.173 43.4643 110.185 44.6037Z" fill="#FFCBCB"/>
<path d="M116.168 37.3574C116.168 37.3574 118.477 41.535 121.579 40.9653C124.68 40.3957 123.404 38.7221 123.404 38.7221L116.168 37.3574Z" fill="#444053"/>
<path d="M111.693 181.966C109.647 182.9 105.021 181.966 105.021 181.966L103.072 181.844C100.54 181.682 96.3016 181.409 94.8027 181.287C92.6152 181.107 93.1519 180.211 93.1519 180.211V174.795L103.766 172.106C103.766 172.106 107.961 173.542 109.11 174.795C110.202 175.99 110.84 175.071 112.787 175.416C112.883 175.433 112.984 175.454 113.09 175.479C114.939 175.902 115.941 176.069 116.534 177.601C116.653 177.922 116.748 178.252 116.82 178.588C117.367 181.054 113.736 181.036 111.693 181.966Z" fill="#97A3B7"/>
<path opacity="0.1" d="M116.534 177.6C116.153 177.838 115.754 178.043 115.339 178.213C113.946 178.848 112.622 179.623 111.214 180.223C109.807 180.823 108.29 181.251 106.766 181.137C105.968 181.079 105.153 180.884 104.391 181.112C103.92 181.294 103.476 181.54 103.072 181.844C100.54 181.681 96.3016 181.408 94.8027 181.286C92.6152 181.107 93.1519 180.21 93.1519 180.21V179.577C93.2304 179.577 93.319 179.555 93.4203 179.547C93.9443 179.539 94.466 179.617 94.9647 179.777C96.0636 180.076 97.1573 180.37 98.2562 180.664C98.3465 180.323 98.5054 180.004 98.723 179.726C98.9407 179.448 99.2125 179.218 99.5221 179.048C100.149 178.715 100.853 178.554 101.563 178.58C103.267 178.603 104.88 179.41 106.581 179.491C107.057 179.535 107.536 179.455 107.971 179.258C108.204 179.142 108.409 178.972 108.637 178.843C109.002 178.667 109.387 178.537 109.784 178.456C110.9 178.178 111.995 177.825 113.063 177.398C113.366 177.279 113.721 177.063 113.68 176.739C113.627 176.309 112.951 176.258 112.774 175.863C112.743 175.792 112.728 175.714 112.732 175.637C112.735 175.559 112.757 175.483 112.794 175.415C112.89 175.433 112.992 175.453 113.098 175.478C114.939 175.901 115.941 176.068 116.534 177.6Z" fill="black"/>
<path d="M109.533 193.815C107.128 194.913 101.684 193.815 101.684 193.815L99.393 193.68C96.4257 193.49 91.4278 193.174 89.6631 193.025C87.0881 192.812 87.7211 191.759 87.7211 191.759V185.376L100.211 182.211C100.211 182.211 105.148 183.9 106.5 185.376C107.784 186.781 108.525 185.7 110.827 186.105C110.941 186.125 111.06 186.151 111.184 186.178C113.359 186.685 114.539 186.875 115.235 188.677C115.376 189.056 115.488 189.444 115.572 189.839C116.2 192.741 111.938 192.718 109.533 193.815Z" fill="#97A3B7"/>
<path opacity="0.1" d="M115.23 188.678C114.782 188.957 114.312 189.199 113.825 189.399C112.187 190.146 110.627 191.058 108.971 191.764C107.315 192.471 105.53 192.972 103.735 192.84C102.798 192.772 101.839 192.536 100.95 192.81C100.393 193.027 99.8692 193.32 99.393 193.681C96.4257 193.491 91.4278 193.174 89.6631 193.025C87.0881 192.812 87.7211 191.759 87.7211 191.759V191.015C87.8259 190.998 87.9316 190.986 88.0376 190.979C88.6544 190.968 89.2688 191.06 89.8555 191.25L93.7267 192.293C93.8345 191.891 94.0233 191.515 94.2815 191.188C94.5396 190.861 94.8617 190.59 95.2281 190.392C95.966 189.999 96.7952 189.808 97.6308 189.84C99.6361 189.868 101.532 190.817 103.535 190.914C104.093 190.964 104.654 190.871 105.166 190.643C105.442 190.503 105.672 190.303 105.951 190.154C106.379 189.944 106.832 189.791 107.3 189.698C108.606 189.369 109.888 188.953 111.138 188.453C111.495 188.311 111.913 188.058 111.865 187.678C111.802 187.171 111.007 187.111 110.797 186.645C110.761 186.561 110.745 186.47 110.749 186.379C110.754 186.287 110.779 186.198 110.822 186.118C110.936 186.138 111.055 186.164 111.179 186.192C113.354 186.678 114.534 186.875 115.23 188.678Z" fill="black"/>
<path d="M104.09 150.016L103.414 165.923C103.414 165.923 102.401 169.172 102.951 170.101C103.5 171.03 104.427 171.957 104.09 172.506C103.753 173.056 99.7022 178.995 98.3932 176.717C97.0842 174.438 95.793 164.564 95.793 164.564L97.0007 152.368L104.09 150.016Z" fill="#2A3850"/>
<path d="M107.02 110.382L108.899 112.893V134.738C108.899 134.738 109.449 140.562 108.899 141.764C108.35 142.967 105.565 145.372 105.565 145.372L103.223 133.346L103.729 120.623L107.02 110.382Z" fill="#2A3850"/>
<path opacity="0.1" d="M104.09 150.016L103.414 165.923C103.414 165.923 102.401 169.172 102.951 170.101C103.5 171.03 104.427 171.957 104.09 172.506C103.753 173.056 99.7022 178.995 98.3932 176.717C97.0842 174.438 95.793 164.564 95.793 164.564L97.0007 152.368L104.09 150.016Z" fill="#233047"/>
<path opacity="0.1" d="M107.02 110.382L108.899 112.893V134.738C108.899 134.738 109.449 140.562 108.899 141.764C108.35 142.967 105.565 145.372 105.565 145.372L103.223 133.346L103.729 120.623L107.02 110.382Z" fill="#2A3850"/>
<path d="M108.897 101.065V112.881L106.788 122.079C106.788 122.079 106.112 144.276 106.702 146.975C107.292 149.674 104.677 152.209 104.677 152.209C104.677 152.209 103.157 152.378 103.157 153.558C103.157 154.738 100.626 158.115 100.626 158.115L100.709 164.698C100.709 164.698 101.808 177.021 100.119 179.383C98.4304 181.745 100.709 182.085 100.709 182.085C98.6 189.004 88.4725 187.402 87.5585 186.642C86.6445 185.882 87.5585 170.944 87.5585 170.944C87.5585 170.944 89.822 148.158 91.5943 147.145C93.3666 146.132 91.6804 144.866 92.2703 143.347C92.8603 141.828 91.6804 137.693 91.6804 137.693C91.6804 137.693 91.174 132.797 89.9081 130.434C88.6422 128.072 88.8093 121.573 88.8093 121.573C88.8093 121.573 85.2646 116.846 84.2114 114.99C83.1581 113.134 82.4796 108.324 82.7328 104.693C82.9049 102.24 84.1937 98.6671 85.0115 96.6112C85.4039 95.6263 85.6875 94.9883 85.6875 94.9883L85.928 95.0516L99.7571 98.6721L108.897 101.065Z" fill="#43536D"/>
<path opacity="0.1" d="M110.185 44.6038C108.879 44.9785 107.631 46.2647 106.545 47.8269H106.261C104.669 47.828 103.105 47.4088 101.727 46.6117C100.348 45.8146 99.2051 44.6678 98.4122 43.2872C98.0808 42.7152 97.8142 42.108 97.6172 41.477C98.3995 39.4894 98.9793 37.7627 98.9793 37.7627C98.9793 37.7627 114.173 43.4645 110.185 44.6038Z" fill="black"/>
<path d="M115.314 38.2741C115.316 39.6594 115 41.0268 114.391 42.2708C113.781 43.5149 112.894 44.6025 111.798 45.4498C110.702 46.2971 109.427 46.8815 108.069 47.158C106.712 47.4345 105.309 47.3958 103.969 47.0447C102.629 46.6937 101.387 46.0397 100.339 45.1331C99.2918 44.2266 98.4663 43.0917 97.9264 41.8159C97.3866 40.54 97.1468 39.1573 97.2256 37.7742C97.3043 36.3911 97.6995 35.0445 98.3807 33.8382C98.655 33.3481 98.9755 32.8852 99.3377 32.4558C99.9348 31.7445 100.637 31.1281 101.419 30.6278C102.74 29.788 104.257 29.3054 105.821 29.2271C107.385 29.1489 108.942 29.4776 110.341 30.1812C111.74 30.8848 112.932 31.9392 113.801 33.2414C114.671 34.5436 115.188 36.0491 115.301 37.6107C115.306 37.8335 115.314 38.0538 115.314 38.2741Z" fill="#FFCBCB"/>
<path opacity="0.1" d="M107.707 59.9416L107.676 60.2201L103.466 53.6373C103.025 54.6779 102.78 55.3741 102.78 55.3741C102.78 55.3741 92.7788 47.8443 94.3612 47.338C94.8929 47.1683 95.5917 46.029 96.2829 44.5934L96.3689 44.4111C97.1032 46.5987 101.369 50.9712 103.144 52.7233C103.349 52.9258 103.519 53.0929 103.651 53.2144L103.922 53.4676L104.063 53.6094C104.709 54.2753 107.433 57.2123 107.707 59.9416Z" fill="black"/>
<path d="M110.852 82.2781L110.392 97.1073L110.311 99.748C110.311 99.748 104.852 99.2416 99.7578 98.6846C95.6562 98.2365 91.79 97.7529 91.195 97.4693C90.4354 97.1123 88.8075 96.8363 87.5238 96.6617C86.5313 96.5275 85.7515 96.4566 85.7515 96.4566C85.7515 96.4566 85.4603 96.5427 85.0122 96.6237C84.0349 96.8009 82.3183 96.9452 81.3182 96.0768C80.0396 94.9653 83.3994 90.927 84.2374 89.9573L84.4223 89.7471L84.1058 86.8228L83.2829 79.2399C83.2829 79.2399 82.7765 74.8724 82.017 72.5304C81.8139 71.8645 81.6674 71.1827 81.579 70.4922C81.2968 68.3532 81.4413 66.1795 82.0043 64.0967C82.2449 63.2117 82.3975 62.3052 82.4601 61.3902C82.5867 59.0482 89.7392 49.9968 91.5115 49.1739C92.3088 48.8021 92.9503 48.1624 93.3243 47.3661C93.4478 47.1158 93.5405 46.8514 93.6003 46.5787C94.3598 43.2873 96.2815 44.5937 96.2815 44.5937C96.7449 47.1687 103.918 53.9845 103.918 53.9845L104.059 54.1262C104.771 54.8554 107.941 58.2785 107.715 61.2003C107.67 62.2877 107.833 63.3738 108.194 64.4006C109.653 68.9946 110.492 73.7629 110.688 78.579L110.852 82.2781Z" fill="white"/>
<path opacity="0.1" d="M100.692 64.6689C100.692 64.6689 98.9198 68.9731 97.5906 69.6694C96.2613 70.3656 101.325 71.1379 100.692 64.6689Z" fill="black"/>
<path opacity="0.1" d="M102.02 72.708C102.02 72.708 97.9688 73.2144 97.9688 73.9739C97.9688 74.7335 102.02 72.708 102.02 72.708Z" fill="black"/>
<path opacity="0.1" d="M106.261 77.6445C106.261 77.6445 100.375 90.1773 98.7288 90.557C97.0831 90.9368 106.261 77.6445 106.261 77.6445Z" fill="black"/>
<path opacity="0.1" d="M103.808 54.6204L98.939 56.737L93.0625 47.8603C93.186 47.6099 93.2786 47.3455 93.3385 47.0729C94.098 43.7814 96.0197 45.0879 96.0197 45.0879C96.4831 47.6628 103.656 54.4786 103.656 54.4786L103.808 54.6204Z" fill="black"/>
<path d="M104.062 54.1135L99.1929 56.2302L93.3164 47.3534C93.4399 47.1031 93.5325 46.8387 93.5924 46.566C94.3519 43.2746 96.2736 44.5811 96.2736 44.5811C96.737 47.156 103.91 53.9718 103.91 53.9718L104.062 54.1135Z" fill="white"/>
<path opacity="0.1" d="M110.313 99.7479C110.313 99.7479 104.854 99.2415 99.7598 98.6845L108.9 101.077V103.862C108.5 104.224 108.153 104.412 107.928 104.315C106.874 103.872 98.2786 102.48 98.2786 102.48C98.2786 102.48 93.2858 99.9479 87.898 96.9096C87.7672 96.8372 87.6404 96.7577 87.5182 96.6716C86.89 96.2451 86.3487 95.7029 85.9231 95.074C84.9281 93.6334 84.442 91.7826 84.2318 89.9672C84.1137 88.9269 84.0697 87.8794 84.1002 86.8328C84.1263 85.646 84.2346 84.4625 84.4243 83.2907C83.9032 78.7522 83.6496 74.1869 83.6647 69.6186C83.728 62.5294 90.3742 59.9975 90.3742 59.9975C102.59 58.9215 98.8027 78.67 98.8027 78.67C98.8027 78.67 98.0963 84.2402 97.9039 84.8098C97.7115 85.3795 97.0203 86.329 97.114 87.6582C97.2077 88.9874 99.542 90.5774 99.542 90.5774C99.542 90.5774 101.821 91.6459 102.76 93.2283C103.444 94.3955 107.885 95.9779 110.394 97.1071L110.313 99.7479Z" fill="black"/>
<path opacity="0.1" d="M114.403 32.6537C114.408 33.0707 114.322 33.4837 114.15 33.8639C114.02 34.1742 113.87 34.4753 113.699 34.7653C113.433 35.2987 113.055 35.7684 112.59 36.1426C112.006 36.5604 111.266 36.6768 110.565 36.8465C109.864 37.0161 109.134 37.287 108.734 37.8845C108.518 38.2686 108.373 38.6891 108.307 39.1251C108.239 39.5609 108.065 39.9732 107.8 40.3253C107.662 40.4971 107.471 40.6183 107.256 40.6696C107.042 40.7209 106.816 40.6996 106.615 40.6088C106.403 40.4661 106.243 40.2594 106.157 40.0189C105.868 39.3682 105.795 38.6466 105.678 37.9453C105.562 37.244 105.397 36.5224 104.967 35.9578C104.537 35.3932 103.774 35.021 103.098 35.2413C102.872 35.3284 102.666 35.4603 102.492 35.6291C102.318 35.7979 102.18 36.0001 102.086 36.2236C101.899 36.6711 101.77 37.1408 101.703 37.6212C101.389 39.3395 101.019 41.0477 100.592 42.7457C100.579 42.8153 100.55 42.8811 100.508 42.9381C100.441 43.0052 100.35 43.0434 100.255 43.0445C99.688 43.1204 99.1437 42.7229 98.5715 42.766C98.5125 42.7699 98.454 42.7792 98.3968 42.7938C97.4716 41.186 97.0631 39.3326 97.2266 37.4848C97.3901 35.6371 98.1177 33.8842 99.3108 32.4638L99.3563 32.4511C99.737 32.316 100.083 32.0981 100.369 31.8131C100.735 31.4474 101.073 31.0556 101.382 30.6408L101.584 30.3877C102.166 29.6866 102.829 29.0568 103.559 28.5115C103.759 28.3483 103.987 28.2246 104.233 28.147C104.443 28.106 104.658 28.0992 104.871 28.1267C105.745 28.2317 106.627 28.2647 107.506 28.2254C108.119 28.1291 108.737 28.0665 109.357 28.0381C110.96 28.0837 112.327 29.2154 113.34 30.456C113.884 31.0915 114.37 31.8232 114.403 32.6537Z" fill="black"/>
<path d="M97.1982 34.0786C96.8463 34.6559 96.2108 35.0483 95.9728 35.6813C95.6234 36.6004 96.2133 37.7448 95.6715 38.5651C95.4918 38.8411 95.1955 39.0462 95.0943 39.3626C94.9221 39.8969 95.393 40.4665 95.2715 41.0159C95.15 41.5654 94.4259 42.0287 94.6183 42.5654C94.732 42.7995 94.9314 42.9809 95.1753 43.0718C95.5589 43.2919 96.0005 43.3899 96.4412 43.3529C97.1324 43.2389 97.6464 42.5604 98.3477 42.5097C98.9174 42.4692 99.4617 42.8642 100.029 42.7908C100.124 42.7875 100.214 42.7486 100.282 42.6819C100.325 42.6255 100.354 42.5595 100.366 42.4895C100.791 40.7931 101.162 39.085 101.48 37.365C101.544 36.8845 101.672 36.4146 101.859 35.9674C101.954 35.7443 102.093 35.5425 102.266 35.3738C102.44 35.2051 102.646 35.0729 102.872 34.985C103.548 34.7673 104.308 35.1369 104.741 35.7015C105.174 36.2662 105.338 36.9877 105.455 37.6891C105.571 38.3904 105.645 39.112 105.931 39.7627C106.018 40.004 106.179 40.2115 106.391 40.3551C106.771 40.5754 107.283 40.4007 107.574 40.0716C107.841 39.7194 108.015 39.3058 108.08 38.8689C108.146 38.4336 108.291 38.014 108.508 37.6308C108.908 37.0333 109.64 36.7624 110.339 36.5928C111.037 36.4231 111.774 36.3041 112.364 35.8864C112.828 35.5126 113.206 35.0438 113.473 34.5116C113.848 33.8583 114.197 33.1494 114.167 32.3975C114.134 31.5771 113.648 30.8454 113.129 30.2074C112.116 28.9668 110.746 27.835 109.144 27.792C108.524 27.8179 107.906 27.8805 107.293 27.9793C106.413 28.0189 105.531 27.985 104.657 27.8781C104.445 27.8526 104.229 27.8603 104.019 27.9009C103.773 27.976 103.545 28.1 103.348 28.2655C102.617 28.8098 101.954 29.4387 101.371 30.139C100.995 30.6374 100.587 31.111 100.15 31.5569C99.8641 31.8423 99.5183 32.0611 99.1377 32.1974C98.8845 32.2683 98.6313 32.2177 98.3908 32.2962C97.6439 32.5317 97.5451 33.5064 97.1982 34.0786Z" fill="#EAA300"/>
<path opacity="0.1" d="M121.579 40.9628C119.553 41.335 117.874 39.6969 116.945 38.5018C116.66 38.1389 116.4 37.7565 116.168 37.3574L123.12 38.6689L123.401 38.7221C123.401 38.7221 124.68 40.3957 121.579 40.9628Z" fill="#2A3850"/>
<g opacity="0.1">
<path opacity="0.1" d="M95.2666 40.2925C95.2949 39.9614 95.2446 39.6283 95.1197 39.3203C95.1197 39.3456 95.0969 39.371 95.0893 39.3963C94.9804 39.7355 95.1273 40.0875 95.221 40.4394C95.2411 40.3921 95.2564 40.3429 95.2666 40.2925Z" fill="black"/>
<path opacity="0.1" d="M95.871 36.1475C95.8449 36.4976 95.8517 36.8493 95.8912 37.1982C95.9172 36.8481 95.9104 36.4963 95.871 36.1475Z" fill="black"/>
<path opacity="0.1" d="M113.455 33.7805C113.188 34.3139 112.81 34.7837 112.346 35.1579C111.761 35.5756 111.024 35.6921 110.32 35.8617C109.616 36.0314 108.89 36.3023 108.49 36.8998C108.273 37.2841 108.128 37.7044 108.062 38.1404C107.996 38.5772 107.822 38.9906 107.555 39.343C107.264 39.6722 106.753 39.8494 106.373 39.6266C106.16 39.4829 105.999 39.2755 105.912 39.0341C105.626 38.3835 105.55 37.6644 105.436 36.9605C105.322 36.2567 105.153 35.5376 104.722 34.973C104.292 34.4084 103.53 34.0362 102.854 34.2565C102.628 34.344 102.421 34.476 102.247 34.6448C102.074 34.8136 101.935 35.0156 101.841 35.2389C101.653 35.686 101.526 36.1559 101.461 36.6365C101.145 38.3565 100.774 40.0646 100.347 41.761C100.335 41.8309 100.307 41.897 100.264 41.9534C100.196 42.0201 100.105 42.059 100.01 42.0623C99.4432 42.1357 98.8989 41.7407 98.3292 41.7812C97.6279 41.8319 97.1139 42.5104 96.4227 42.6218C95.9818 42.6614 95.5395 42.5632 95.1568 42.3408C94.9808 42.2651 94.8229 42.1529 94.6935 42.0116C94.6342 42.0965 94.595 42.1936 94.5788 42.2958C94.5625 42.398 94.5697 42.5025 94.5998 42.6016C94.7113 42.8373 94.9115 43.0193 95.1568 43.1079C95.5395 43.3303 95.9818 43.4285 96.4227 43.389C97.1139 43.2776 97.6279 42.599 98.3292 42.5484C98.8989 42.5079 99.4432 42.9029 100.01 42.8294C100.105 42.8261 100.196 42.7873 100.264 42.7206C100.307 42.6641 100.335 42.5981 100.347 42.5281C100.772 40.8402 101.144 39.132 101.461 37.4036C101.526 36.9231 101.653 36.4532 101.841 36.006C101.935 35.7828 102.074 35.5807 102.247 35.412C102.421 35.2432 102.628 35.1112 102.854 35.0237C103.53 34.8034 104.289 35.1756 104.722 35.7402C105.155 36.3048 105.32 37.0264 105.436 37.7277C105.553 38.429 105.626 39.1506 105.912 39.8013C105.999 40.0426 106.16 40.2501 106.373 40.3938C106.753 40.614 107.264 40.4393 107.555 40.1102C107.822 39.7578 107.996 39.3444 108.062 38.9076C108.128 38.4716 108.273 38.0512 108.49 37.6669C108.89 37.0694 109.621 36.801 110.32 36.6289C111.019 36.4567 111.756 36.3428 112.346 35.925C112.81 35.5508 113.188 35.0811 113.455 34.5477C113.829 33.897 114.179 33.1881 114.148 32.4361C114.143 32.3394 114.133 32.2431 114.118 32.1475C113.996 32.727 113.771 33.28 113.455 33.7805Z" fill="black"/>
</g>
<path opacity="0.1" d="M114.16 33.8558C114.809 35.0102 115.194 36.2944 115.287 37.6157C113.031 36.3497 110.909 34.9597 109.838 34.4761C107.972 33.633 100.994 33.7596 98.3711 33.8381C98.6455 33.348 98.9659 32.8851 99.3281 32.4557C99.9275 31.7438 100.632 31.1274 101.417 30.6277C102.457 29.9679 103.62 29.527 104.836 29.332C106.052 29.137 107.295 29.1921 108.488 29.4937C109.682 29.7954 110.802 30.3374 111.779 31.0865C112.757 31.8357 113.571 32.7763 114.172 33.8508L114.16 33.8558Z" fill="black"/>
<path opacity="0.1" d="M122.212 39.8893C120.994 40.264 119.006 39.5399 116.945 38.5018C116.66 38.1389 116.4 37.7565 116.168 37.3574L123.12 38.6689C123.581 38.9829 123.698 39.431 122.212 39.8893Z" fill="black"/>
<path d="M106.799 25.0779C106.799 25.0779 100.152 24.6981 98.2839 28.306L97.9826 31.5038L97.4763 31.4481L97.375 33.623C97.375 33.623 107.533 33.1799 109.844 34.223C112.156 35.2661 119.339 40.5223 122.218 39.6361C125.096 38.75 121.965 37.9271 121.965 37.9271C121.965 37.9271 118.002 36.2485 118.002 34.9319C118.002 33.6154 117.02 26.6603 106.799 25.0779Z" fill="#43536D"/>
<path opacity="0.1" d="M93.9805 143.62C93.9805 143.62 98.2213 147.734 100.057 147.418C100.057 147.418 94.8666 146.975 93.9805 143.62Z" fill="black"/>
<path opacity="0.1" d="M93.0938 145.526C93.0938 145.526 93.4734 147.643 94.4862 147.435C95.4989 147.228 93.0938 145.526 93.0938 145.526Z" fill="black"/>
<path opacity="0.1" d="M99.742 180.902C99.742 180.902 93.7212 185.586 94.7364 185.713C95.7517 185.839 99.742 180.902 99.742 180.902Z" fill="black"/>
<path d="M107.793 87.939L127.288 84.7666V103.224L108.765 102.254L107.793 87.939Z" fill="#00A8E2"/>
<path opacity="0.07" d="M107.793 87.939L127.288 84.7666V103.224L108.765 102.254L107.793 87.939Z" fill="black"/>
<path d="M127.289 84.7666L150.668 86.5161L149.375 102.578L127.289 103.224V84.7666Z" fill="#00A8E2"/>
<path opacity="0.15" d="M127.289 84.7666L150.668 86.5161L149.375 102.578L127.289 103.224V84.7666Z" fill="black"/>
<path d="M134.477 79.1338L127.289 84.7672L150.668 86.5167L154.489 80.7517L134.477 79.1338Z" fill="#00A8E2"/>
<path d="M100.734 81.7873L118.285 79.6504L127.289 84.7673L107.793 87.9397L100.734 81.7873Z" fill="#00A8E2"/>
<path d="M131.562 89.5599V114.795L122.43 113.858L118.457 113.453L117.247 113.327L113.277 112.919L107.793 112.357V87.9395L127.286 89.2662L131.562 89.5599Z" fill="#00A8E2"/>
<path d="M150.668 86.5166V111.126L143.348 112.532L139.789 113.215L131.562 114.795V89.5599L150.668 86.5166Z" fill="#00A8E2"/>
<path opacity="0.1" d="M150.668 86.5166V111.126L143.348 112.532L139.789 113.215L131.562 114.795V89.5599L150.668 86.5166Z" fill="black"/>
<path d="M100.734 93.2513L107.793 87.9395L131.562 89.5599L128.063 95.4541L100.734 93.2513Z" fill="#00A8E2"/>
<path opacity="0.15" d="M100.734 93.2513L107.793 87.9395L131.562 89.5599L128.063 95.4541L100.734 93.2513Z" fill="white"/>
<path d="M150.668 86.5166L131.562 89.5599L137.781 95.13L158.246 91.6968L150.668 86.5166Z" fill="#00A8E2"/>
<path opacity="0.15" d="M150.668 86.5166L131.562 89.5599L137.781 95.13L158.246 91.6968L150.668 86.5166Z" fill="white"/>
<path opacity="0.15" d="M143.349 112.532L139.789 113.215V107.957L143.124 107.116L143.349 112.532Z" fill="white"/>
<path opacity="0.15" d="M122.43 110.38V113.859L118.457 113.454V110.38H122.43Z" fill="white"/>
<path opacity="0.15" d="M117.247 111.476V113.326L113.277 112.919V111.476H117.247Z" fill="white"/>
<path opacity="0.1" d="M129.174 108.534C126.453 112.015 117.464 109.61 117.464 109.61L110.785 102.642L109.879 101.698L111.651 98.4062C111.651 98.4062 112.158 98.5733 113.003 98.867C117.48 100.432 131.466 105.604 129.174 108.534Z" fill="black"/>
<path d="M128.92 108.027C126.199 111.508 117.21 109.103 117.21 109.103L110.531 102.135L109.625 101.191L111.397 97.8994C111.397 97.8994 111.904 98.0665 112.749 98.3602C117.226 99.9249 131.212 105.098 128.92 108.027Z" fill="#FFCBCB"/>
<path opacity="0.1" d="M112.738 98.3602C112.368 99.4236 111.429 100.998 110.52 102.135L109.613 101.191L111.386 97.8994C111.386 97.8994 111.895 98.0665 112.738 98.3602Z" fill="black"/>
<path d="M90.3614 60.5491C90.3614 60.5491 84.0877 63.0697 84.0279 70.1275C84.0137 74.6756 84.2531 79.2206 84.7449 83.739C84.7449 83.739 82.9525 94.2627 88.0311 97.2875C93.1098 100.312 97.83 102.833 97.83 102.833C97.83 102.833 105.944 104.219 106.941 104.66C107.937 105.101 111.4 99.43 110.863 98.4848C110.325 97.5395 102.937 95.208 102.06 93.6325C101.183 92.0571 99.0226 90.9959 99.0226 90.9959C99.0226 90.9959 96.8191 89.4105 96.7306 88.0871C96.6422 86.7638 97.2923 85.8185 97.4763 85.2514C97.6603 84.6842 98.3271 79.1388 98.3271 79.1388C98.3271 79.1388 101.893 59.4652 90.3614 60.5491Z" fill="white"/>
<path opacity="0.1" d="M93.6663 82.4551C93.6663 82.4551 84.6781 83.4678 85.3744 86.6327C85.3744 86.6327 88.7899 83.44 93.6663 82.4551Z" fill="black"/>
<path opacity="0.1" d="M93.6626 83.7217C93.6626 83.7217 88.5609 87.4562 89.4977 87.7094C90.4344 87.9626 93.6626 83.7217 93.6626 83.7217Z" fill="black"/>
<path opacity="0.1" d="M95.9435 85.2402C95.9435 85.2402 94.4877 87.8582 95.3106 87.7215C96.1334 87.5847 95.9435 85.2402 95.9435 85.2402Z" fill="black"/>
<path d="M189.526 28.4558C189.526 28.4558 179.905 27.876 181.029 34.626C181.029 34.626 180.804 35.8185 181.885 36.3603C181.885 36.3603 181.902 35.8539 182.872 36.0286C183.217 36.0868 183.568 36.1038 183.918 36.0793C184.391 36.0477 184.841 35.8618 185.199 35.5501C185.199 35.5501 187.905 34.4336 188.959 30.0079C188.959 30.0079 189.739 29.0407 189.718 28.7926L188.093 29.4888C188.093 29.4888 188.647 30.6611 188.209 31.6359C188.209 31.6359 188.159 29.5319 187.845 29.58C187.781 29.58 187.002 29.9876 187.002 29.9876C187.002 29.9876 187.956 32.0283 187.234 33.5145C187.234 33.5145 187.508 30.9978 186.703 30.1345L185.558 30.8029C185.558 30.8029 186.675 32.9119 185.918 34.6336C185.918 34.6336 186.113 31.9928 185.318 30.9649L184.28 31.7726C184.28 31.7726 185.331 33.8538 184.69 35.2817C184.69 35.2817 184.606 32.2081 184.054 31.9751C184.054 31.9751 183.148 32.7752 183.011 33.1043C183.011 33.1043 183.728 34.6235 183.282 35.4109C183.282 35.4109 183.009 33.3626 182.776 33.3525C182.776 33.3525 181.872 34.7095 181.778 35.6311C181.822 34.772 182.09 33.9392 182.556 33.2157C182.035 33.3143 181.554 33.5634 181.173 33.9323C181.173 33.9323 181.312 32.9727 182.778 32.8891C182.778 32.8891 183.538 31.8587 183.725 31.7954C183.725 31.7954 182.267 31.6738 181.383 32.0663C181.383 32.0663 182.161 31.1624 183.994 31.5599L185.006 30.7244C185.006 30.7244 183.087 30.4712 182.272 30.7522C182.272 30.7522 183.209 29.9522 185.282 30.5345L186.396 29.8686C186.396 29.8686 184.761 29.5141 183.786 29.6433C183.786 29.6433 184.814 29.0888 186.723 29.6888L187.521 29.3319C187.521 29.3319 186.32 29.0964 185.971 29.0584C185.622 29.0204 185.601 28.9242 185.601 28.9242C186.361 28.7979 187.14 28.8855 187.852 29.1774C187.852 29.1774 189.561 28.5622 189.526 28.4558Z" fill="#F68B39"/>
<path opacity="0.1" d="M218.76 62.2156C218.76 62.2156 209.139 61.6358 210.263 68.3857C210.263 68.3857 210.038 69.5783 211.119 70.1201C211.119 70.1201 211.137 69.6137 212.109 69.7884C212.454 69.8465 212.805 69.8635 213.155 69.839C213.622 69.8051 214.067 69.6203 214.421 69.3124C214.421 69.3124 217.13 68.1933 218.183 63.7676C218.183 63.7676 218.96 62.803 218.93 62.5549L217.304 63.2486C217.304 63.2486 217.859 64.4208 217.423 65.3956C217.423 65.3956 217.37 63.2916 217.059 63.3397C216.995 63.3397 216.213 63.7474 216.213 63.7474C216.213 63.7474 217.17 65.7906 216.449 67.2742C216.449 67.2742 216.722 64.7576 215.914 63.8942L214.783 64.555C214.783 64.555 215.899 66.6641 215.142 68.3857C215.142 68.3857 215.337 65.745 214.542 64.7171L213.507 65.5273C213.507 65.5273 214.555 67.6059 213.917 69.0339C213.917 69.0339 213.833 65.9602 213.281 65.7273C213.281 65.7273 212.375 66.5274 212.236 66.8565C212.236 66.8565 212.955 68.3756 212.509 69.163C212.509 69.163 212.236 67.1147 212.003 67.1046C212.003 67.1046 211.099 68.4617 211.005 69.3833C211.05 68.524 211.319 67.6914 211.785 66.9679C211.263 67.0667 210.782 67.3157 210.4 67.6844C210.4 67.6844 210.542 66.7248 212.008 66.6413C212.008 66.6413 212.755 65.6108 212.955 65.5475C212.955 65.5475 211.496 65.426 210.613 65.8184C210.613 65.8184 211.39 64.9146 213.22 65.3247L214.233 64.4892C214.233 64.4892 212.312 64.236 211.499 64.5171C211.499 64.5171 212.436 63.717 214.509 64.2993L215.623 63.6334C215.623 63.6334 213.985 63.2815 213.01 63.4081C213.01 63.4081 214.041 62.8536 215.95 63.4537L216.747 63.0967C216.747 63.0967 215.547 62.8612 215.195 62.8232C214.843 62.7853 214.826 62.689 214.826 62.689C215.586 62.5626 216.366 62.6503 217.079 62.9422C217.079 62.9422 218.791 62.3219 218.76 62.2156Z" fill="#349EFF"/>
<path opacity="0.1" d="M160.309 56.2223C160.309 56.2223 162.524 46.8316 155.678 46.7987C155.678 46.7987 154.541 46.3733 153.825 47.3456C153.825 47.3456 154.313 47.4494 153.982 48.376C153.867 48.7037 153.791 49.0436 153.754 49.3888C153.705 49.8594 153.811 50.3332 154.055 50.7383C154.055 50.7383 154.696 53.5993 158.866 55.3919C158.866 55.3919 159.686 56.3236 159.934 56.3337L159.529 54.6146C159.529 54.6146 158.278 54.9614 157.392 54.3614C157.392 54.3614 159.476 54.6677 159.478 54.3614C159.478 54.2981 159.225 53.46 159.225 53.46C159.225 53.46 157.05 54.0525 155.709 53.0879C155.709 53.0879 158.142 53.7867 159.132 53.141L158.676 51.8953C158.676 51.8953 156.397 52.6372 154.838 51.5966C154.838 51.5966 157.407 52.2397 158.557 51.632L157.937 50.4724C157.937 50.4724 155.709 51.151 154.41 50.2775C154.41 50.2775 157.448 50.718 157.777 50.2167C157.777 50.2167 157.144 49.1862 156.843 48.9938C156.843 48.9938 155.233 49.4445 154.524 48.8698C154.524 48.8698 156.587 48.9482 156.635 48.7305C156.635 48.7305 155.453 47.6089 154.551 47.3557C155.391 47.547 156.167 47.9536 156.802 48.5355C156.793 48.0049 156.629 47.4885 156.331 47.0493C156.331 47.0493 157.253 47.3532 157.091 48.8217C157.091 48.8217 157.977 49.7331 158.005 49.9407C158.005 49.9407 158.372 48.5254 158.137 47.5861C158.137 47.5861 158.896 48.5077 158.18 50.242L158.828 51.394C158.828 51.394 159.415 49.5458 159.266 48.6951C159.266 48.6951 159.896 49.7534 158.967 51.6979L159.435 52.9106C159.435 52.9106 160.061 51.3561 160.101 50.3788C160.101 50.3788 160.474 51.4877 159.554 53.2676L159.772 54.1133C159.772 54.1133 160.208 52.9714 160.304 52.6321C160.4 52.2928 160.499 52.2903 160.499 52.2903C160.495 53.0606 160.277 53.8146 159.868 54.4677C159.868 54.4677 160.2 56.235 160.309 56.2223Z" fill="#349EFF"/>
<path opacity="0.1" d="M139.239 59.4234C139.239 59.4234 131.512 53.6432 128.75 59.9044C128.75 59.9044 127.906 60.7779 128.512 61.8236C128.512 61.8236 128.8 61.416 129.524 62.092C129.781 62.3306 130.065 62.538 130.37 62.7097C130.783 62.94 131.261 63.0289 131.73 62.9629C131.73 62.9629 134.606 63.5174 137.917 60.4007C137.917 60.4007 139.1 60.0209 139.211 59.7981L137.467 59.4917C137.467 59.4917 137.285 60.7754 136.386 61.3501C136.386 61.3501 137.497 59.5626 137.209 59.4335C137.15 59.4057 136.279 59.3069 136.279 59.3069C136.279 59.3069 135.955 61.54 134.537 62.3831C134.537 62.3831 136.15 60.4311 135.95 59.2664L134.626 59.1955C134.626 59.1955 134.401 61.5729 132.821 62.5958C132.821 62.5958 134.434 60.4969 134.34 59.2006L133.028 59.3069C133.028 59.3069 132.763 61.6185 131.443 62.4591C131.443 62.4591 133.061 59.8462 132.73 59.35C132.73 59.35 131.532 59.5196 131.236 59.7171C131.236 59.7171 131.005 61.3729 130.195 61.7932C130.195 61.7932 131.094 59.9323 130.912 59.8032C130.912 59.8032 129.41 60.4387 128.82 61.1628C129.331 60.4695 130.013 59.9214 130.8 59.5728C130.311 59.3692 129.772 59.3129 129.251 59.4107C129.251 59.4107 129.894 58.6866 131.165 59.4234C131.165 59.4234 132.355 58.9752 132.558 59.0309C132.558 59.0309 131.406 58.1271 130.451 57.9701C130.451 57.9701 131.6 57.641 132.904 58.9828L134.218 58.8487C134.218 58.8487 132.758 57.5827 131.919 57.37C131.919 57.37 133.142 57.2156 134.553 58.8411L135.849 58.8993C135.849 58.8993 134.677 57.7043 133.793 57.2738C133.793 57.2738 134.955 57.3751 136.221 58.9271L137.084 59.0664C137.084 59.0664 136.211 58.2106 135.938 57.9878C135.664 57.765 135.702 57.6713 135.702 57.6713C136.406 57.9832 137.01 58.4846 137.447 59.1196C137.447 59.1196 139.206 59.5272 139.239 59.4234Z" fill="#349EFF"/>
<path opacity="0.1" d="M164.966 5.71944C164.966 5.71944 157.238 -0.0633466 154.476 6.2005C154.476 6.2005 153.633 7.07399 154.238 8.11966C154.238 8.11966 154.527 7.71203 155.251 8.38804C155.509 8.62542 155.793 8.83189 156.099 9.00328C156.513 9.23371 156.99 9.32263 157.459 9.25647C157.459 9.25647 160.335 9.81095 163.647 6.69168C163.647 6.69168 164.829 6.31443 164.938 6.0891L163.193 5.7878C163.193 5.7878 163.014 7.07146 162.112 7.6462C162.112 7.6462 163.226 5.8587 162.938 5.72957C162.879 5.70172 162.008 5.60298 162.008 5.60298C162.008 5.60298 161.674 7.84115 160.256 8.6792C160.256 8.6792 161.867 6.72713 161.669 5.56247L160.345 5.49158C160.345 5.49158 160.117 7.869 158.54 8.88935C158.54 8.88935 160.153 6.79043 160.059 5.49411L158.75 5.60045C158.75 5.60045 158.482 7.91458 157.162 8.75516C157.162 8.75516 158.783 6.14227 158.451 5.64602C158.451 5.64602 157.254 5.81565 156.957 6.01314C156.957 6.01314 156.727 7.66898 155.917 8.08928C155.917 8.08928 156.816 6.22835 156.633 6.09669C156.633 6.09669 155.132 6.73472 154.542 7.45884C155.052 6.76478 155.734 6.21653 156.522 5.86882C156.032 5.66376 155.492 5.60741 154.97 5.70678C154.97 5.70678 155.615 4.98267 156.886 5.71944C156.886 5.71944 158.076 5.26877 158.279 5.327C158.279 5.327 157.127 4.42313 156.172 4.26362C156.172 4.26362 157.319 3.93701 158.623 5.27637L159.937 5.14218C159.937 5.14218 158.479 3.87624 157.638 3.66103C157.638 3.66103 158.861 3.50912 160.274 5.13458L161.57 5.19028C161.57 5.19028 160.398 3.99524 159.512 3.56736C159.512 3.56736 160.677 3.66863 161.943 5.22067L162.803 5.35992C162.803 5.35992 161.927 4.51427 161.654 4.29653C161.381 4.07879 161.419 3.98258 161.419 3.98258C162.123 4.29415 162.727 4.79559 163.163 5.43081C163.163 5.43081 164.923 5.81566 164.966 5.71944Z" fill="#349EFF"/>
<path opacity="0.1" d="M194.495 13.0446C194.495 13.0446 191.406 3.90202 185.581 7.49474C185.581 7.49474 184.391 7.74793 184.297 8.94044C184.297 8.94044 184.765 8.76827 184.973 9.73038C185.05 10.0726 185.166 10.4048 185.32 10.7203C185.529 11.145 185.87 11.4905 186.292 11.7052C186.292 11.7052 188.348 13.794 192.844 13.1028C192.844 13.1028 194.032 13.4624 194.25 13.3383L192.984 12.0951C192.984 12.0951 192.108 13.0497 191.039 13.0117C191.039 13.0117 192.971 12.1711 192.812 11.9002C192.779 11.847 192.118 11.2723 192.118 11.2723C192.118 11.2723 190.583 12.9256 188.938 12.8167C188.938 12.8167 191.371 12.123 191.867 11.0444L190.819 10.2368C190.819 10.2368 189.285 12.0648 187.403 12.0091C187.403 12.0091 189.935 11.1963 190.576 10.0722L189.437 9.41643C189.437 9.41643 187.917 11.171 186.343 11.1153C186.343 11.1153 189.158 9.88229 189.166 9.28477C189.166 9.28477 188.085 8.74548 187.728 8.74042C187.728 8.74042 186.598 9.97344 185.702 9.86204C185.702 9.86204 187.495 8.83663 187.419 8.62649C187.419 8.62649 185.824 8.29987 184.925 8.56319C185.738 8.28014 186.611 8.21468 187.457 8.3733C187.168 7.92743 186.755 7.57549 186.269 7.36055C186.269 7.36055 187.211 7.13015 187.841 8.45685C187.841 8.45685 189.077 8.76321 189.209 8.92271C189.209 8.92271 188.773 7.52765 188.077 6.85418C188.077 6.85418 189.209 7.23649 189.518 9.08729L190.677 9.72025C190.677 9.72025 190.199 7.84414 189.621 7.18838C189.621 7.18838 190.718 7.75552 190.956 9.89495L191.994 10.6773C191.994 10.6773 191.705 9.02652 191.219 8.17075C191.219 8.17075 192.12 8.91512 192.282 10.9128L192.913 11.5153C192.913 11.5153 192.68 10.3152 192.584 9.97597C192.487 9.6367 192.566 9.61392 192.566 9.61392C192.968 10.2707 193.181 11.0261 193.181 11.7964C193.181 11.7964 194.407 13.1104 194.495 13.0446Z" fill="#349EFF"/>
<path opacity="0.1" d="M174.334 13.4946C174.334 13.4946 164.738 12.4261 165.531 19.2343C165.531 19.2343 165.245 20.4142 166.29 21.0066C166.29 21.0066 166.333 20.5002 167.303 20.7281C167.646 20.8019 167.996 20.8367 168.346 20.8319C168.82 20.8234 169.278 20.6607 169.65 20.3686C169.65 20.3686 172.413 19.3888 173.701 15.0213C173.701 15.0213 174.527 14.0972 174.509 13.8465L172.851 14.4592C172.851 14.4592 173.357 15.6568 172.851 16.6088C172.851 16.6088 172.904 14.5048 172.597 14.5377C172.534 14.5377 171.734 14.9023 171.734 14.9023C171.734 14.9023 172.585 16.9911 171.79 18.4469C171.79 18.4469 172.19 15.9454 171.428 15.0441L170.25 15.6517C170.25 15.6517 171.263 17.8165 170.415 19.4976C170.415 19.4976 170.744 16.8695 170.002 15.8036L168.926 16.5632C168.926 16.5632 169.868 18.6925 169.157 20.0876C169.157 20.0876 169.23 17.0139 168.691 16.7531C168.691 16.7531 167.744 17.5126 167.589 17.8266C167.589 17.8266 168.23 19.371 167.746 20.1433C167.746 20.1433 167.577 18.0848 167.354 18.0646C167.354 18.0646 166.382 19.3736 166.24 20.2977C166.328 19.4409 166.638 18.6221 167.141 17.9228C166.616 17.9954 166.123 18.2198 165.723 18.5684C165.723 18.5684 165.911 17.619 167.379 17.6089C167.379 17.6089 168.177 16.6189 168.392 16.5657C168.392 16.5657 166.941 16.3708 166.037 16.7176C166.037 16.7176 166.86 15.8517 168.668 16.3556L169.734 15.5732C169.734 15.5732 167.807 15.1833 166.992 15.4365C166.992 15.4365 167.969 14.677 170.01 15.3732L171.157 14.763C171.157 14.763 169.539 14.3276 168.559 14.406C168.559 14.406 169.615 13.8997 171.491 14.601L172.306 14.2845C172.306 14.2845 171.119 13.9883 170.769 13.9326C170.42 13.8769 170.407 13.7807 170.407 13.7807C171.173 13.6928 171.947 13.8191 172.645 14.1453C172.645 14.1453 174.352 13.6009 174.334 13.4946Z" fill="#349EFF"/>
<path opacity="0.1" d="M258.29 87.9751C258.29 87.9751 248.699 86.9067 249.492 93.7073C249.492 93.7073 249.206 94.8871 250.251 95.4796C250.251 95.4796 250.294 94.9732 251.264 95.1986C251.606 95.2748 251.957 95.3097 252.307 95.3024C252.781 95.2951 253.239 95.1323 253.611 94.839C253.611 94.839 256.374 93.8592 257.65 89.4943C257.65 89.4943 258.475 88.5676 258.457 88.3195L256.799 88.9297C256.799 88.9297 257.305 90.1298 256.799 91.0817C256.799 91.0817 256.852 88.9752 256.546 89.0107C256.482 89.0107 255.682 89.3727 255.682 89.3727C255.682 89.3727 256.533 91.4615 255.738 92.9173C255.738 92.9173 256.138 90.4184 255.376 89.5145L254.199 90.1247C254.199 90.1247 255.211 92.2894 254.366 93.9706C254.366 93.9706 254.692 91.3425 253.951 90.2741L252.874 91.0336C252.874 91.0336 253.816 93.1629 253.105 94.5555C253.105 94.5555 253.178 91.4818 252.639 91.2235C252.639 91.2235 251.695 91.9831 251.538 92.297C251.538 92.297 252.181 93.8415 251.695 94.6137C251.695 94.6137 251.525 92.5553 251.302 92.535C251.302 92.535 250.33 93.844 250.188 94.7681C250.276 93.9114 250.587 93.0926 251.089 92.3933C250.564 92.4646 250.071 92.6891 249.672 93.0389C249.672 93.0389 249.859 92.0869 251.327 92.0768C251.327 92.0768 252.128 91.0868 252.34 91.0362C252.34 91.0362 250.889 90.8387 249.986 91.1855C249.986 91.1855 250.808 90.3222 252.619 90.826L253.682 90.0437C253.682 90.0437 251.778 89.6842 250.95 89.9323C250.95 89.9323 251.928 89.1727 253.968 89.8664L255.115 89.2588C255.115 89.2588 253.497 88.8233 252.517 88.9018C252.517 88.9018 253.573 88.3954 255.449 89.0968L256.265 88.7777C256.265 88.7777 255.077 88.4815 254.728 88.4283C254.378 88.3752 254.366 88.2764 254.366 88.2764C255.131 88.187 255.906 88.3124 256.604 88.6385C256.604 88.6385 258.315 88.084 258.29 87.9751Z" fill="#349EFF"/>
<path opacity="0.1" d="M272.954 96.9328C272.954 96.9328 263.363 95.8669 264.156 102.665C264.156 102.665 263.872 103.845 264.915 104.437C264.915 104.437 264.959 103.931 265.928 104.159C266.27 104.233 266.619 104.267 266.969 104.26C267.44 104.25 267.896 104.089 268.268 103.799C268.268 103.799 271.027 102.819 272.303 98.4519C272.303 98.4519 273.131 97.5278 273.111 97.2771L271.453 97.8873C271.453 97.8873 271.959 99.0874 271.453 100.039C271.453 100.039 271.506 97.9354 271.2 97.9684C271.136 97.9684 270.336 98.3304 270.336 98.3304C270.336 98.3304 271.187 100.419 270.392 101.875C270.392 101.875 270.792 99.3761 270.03 98.4747L268.853 99.0824C268.853 99.0824 269.865 101.247 269.02 102.928C269.02 102.928 269.346 100.3 268.604 99.2343L267.528 99.9938C267.528 99.9938 268.47 102.123 267.761 103.518C267.761 103.518 267.832 100.442 267.293 100.184C267.293 100.184 266.349 100.943 266.192 101.257C266.192 101.257 266.835 102.802 266.349 103.574C266.349 103.574 266.179 101.515 265.956 101.495C265.956 101.495 264.984 102.804 264.845 103.728C264.932 102.872 265.242 102.053 265.743 101.353C265.218 101.426 264.725 101.65 264.326 101.999C264.326 101.999 264.515 101.047 265.984 101.04C265.984 101.04 266.781 100.05 266.997 99.9964C266.997 99.9964 265.546 99.8014 264.642 100.148C264.642 100.148 265.465 99.2824 267.275 99.7862L268.339 99.0039C268.339 99.0039 266.435 98.6444 265.607 98.8925C265.607 98.8925 266.584 98.1329 268.625 98.8292L269.772 98.219C269.772 98.219 268.154 97.7835 267.174 97.862C267.174 97.862 268.23 97.3556 270.106 98.057L270.921 97.7405C270.921 97.7405 269.734 97.4443 269.387 97.3886C269.04 97.3329 269.022 97.2366 269.022 97.2366C269.788 97.1488 270.562 97.275 271.26 97.6012C271.26 97.6012 272.979 97.0417 272.954 96.9328Z" fill="#349EFF"/>
<path opacity="0.1" d="M240.403 21.48C240.403 21.48 232.676 15.6998 229.914 21.9611C229.914 21.9611 229.071 22.8346 229.676 23.8803C229.676 23.8803 229.964 23.4726 230.688 24.1486C230.945 24.3872 231.229 24.5946 231.534 24.7664C231.948 24.9965 232.425 25.0854 232.894 25.0196C232.894 25.0196 235.77 25.5741 239.084 22.4573C239.084 22.4573 240.264 22.0776 240.375 21.8548L238.636 21.5408C238.636 21.5408 238.454 22.8245 237.555 23.3992C237.555 23.3992 238.666 21.6117 238.378 21.4826C238.319 21.4547 237.451 21.356 237.451 21.356C237.451 21.356 237.124 23.5891 235.707 24.4322C235.707 24.4322 237.319 22.4801 237.119 21.3155L235.795 21.2446C235.795 21.2446 235.57 23.622 233.99 24.6449C233.99 24.6449 235.605 22.546 235.509 21.2496L234.198 21.356C234.198 21.356 233.944 23.6676 232.613 24.5082C232.613 24.5082 234.233 21.8953 233.899 21.399C233.899 21.399 232.701 21.5687 232.405 21.7661C232.405 21.7661 232.177 23.422 231.367 23.8423C231.367 23.8423 232.263 21.9814 232.081 21.8522C232.081 21.8522 230.58 22.4877 229.99 23.2118C230.5 22.5185 231.182 21.9704 231.969 21.6218C231.48 21.4183 230.941 21.362 230.42 21.4598C230.42 21.4598 231.066 20.7357 232.337 21.4724C232.337 21.4724 233.524 21.0243 233.727 21.08C233.727 21.08 232.575 20.1761 231.62 20.0192C231.62 20.0192 232.77 19.69 234.073 21.0319L235.388 20.8977C235.388 20.8977 233.929 19.6318 233.089 19.4191C233.089 19.4191 234.311 19.2647 235.722 20.8901L237.021 20.9483C237.021 20.9483 235.846 19.7533 234.962 19.3229C234.962 19.3229 236.127 19.4242 237.39 20.9762L238.254 21.1155C238.254 21.1155 237.38 20.2597 237.107 20.0369C236.833 19.8141 236.874 19.7406 236.874 19.7406C237.577 20.0531 238.18 20.5544 238.616 21.1889C238.616 21.1889 240.37 21.5838 240.403 21.48Z" fill="#349EFF"/>
<path opacity="0.1" d="M246.371 63.2102C246.371 63.2102 243.707 53.936 237.717 57.2654C237.717 57.2654 236.517 57.4502 236.367 58.6503C236.367 58.6503 236.843 58.501 237.008 59.4707C237.069 59.819 237.171 60.159 237.312 60.4834C237.499 60.9197 237.825 61.2825 238.238 61.5164C238.238 61.5164 240.198 63.6938 244.72 63.2077C244.72 63.2077 245.89 63.6179 246.112 63.5065L244.915 62.2051C244.915 62.2051 243.996 63.1216 242.932 63.0355C242.932 63.0355 244.897 62.276 244.745 62.0051C244.715 61.9494 244.082 61.3442 244.082 61.3442C244.082 61.3442 242.477 62.9292 240.836 62.7444C240.836 62.7444 243.299 62.162 243.841 61.1138L242.829 60.2581C242.829 60.2581 241.213 62.0152 239.337 61.8785C239.337 61.8785 241.889 61.1771 242.593 60.0859L241.484 59.3795C241.484 59.3795 239.876 61.0632 238.317 60.9366C238.317 60.9366 241.185 59.8302 241.221 59.2352C241.221 59.2352 240.162 58.6478 239.805 58.6275C239.805 58.6275 238.623 59.8074 237.724 59.6555C237.724 59.6555 239.562 58.7111 239.497 58.4984C239.497 58.4984 237.917 58.1009 237.008 58.3212C237.831 58.0771 238.704 58.0518 239.54 58.2478C239.272 57.7896 238.876 57.42 238.4 57.1844C238.4 57.1844 239.352 56.9945 239.919 58.349C239.919 58.349 241.137 58.7086 241.264 58.8757C241.264 58.8757 240.892 57.4604 240.226 56.759C240.226 56.759 241.34 57.1894 241.565 59.0529L242.694 59.739C242.694 59.739 242.299 57.8401 241.752 57.1717C241.752 57.1717 242.821 57.787 242.965 59.934L243.978 60.7619C243.978 60.7619 243.763 59.101 243.317 58.23C243.317 58.23 244.186 59.0149 244.256 61.0151L244.859 61.6481C244.859 61.6481 244.682 60.4378 244.606 60.0935C244.53 59.7492 244.606 59.7011 244.606 59.7011C244.981 60.3745 245.16 61.139 245.125 61.9089C245.125 61.9089 246.279 63.271 246.371 63.2102Z" fill="#349EFF"/>
<path opacity="0.1" d="M187.018 84.1088C187.018 84.1088 181.845 75.9612 177.042 80.8376C177.042 80.8376 175.943 81.344 176.136 82.5466C176.136 82.5466 176.554 82.2681 176.984 83.1543C177.139 83.4683 177.331 83.7625 177.556 84.0303C177.858 84.3959 178.272 84.6521 178.734 84.7595C178.734 84.7595 181.227 86.2989 185.43 84.5569C185.43 84.5569 186.668 84.6228 186.851 84.4531L185.332 83.5417C185.332 83.5417 184.706 84.681 183.661 84.8962C183.661 84.8962 185.337 83.6303 185.111 83.3973C185.068 83.3518 184.289 82.9517 184.289 82.9517C184.289 82.9517 183.192 84.9215 181.567 85.2076C181.567 85.2076 183.767 83.9544 183.995 82.7948L182.782 82.2605C182.782 82.2605 181.726 84.4 179.888 84.7924C179.888 84.7924 182.141 83.4024 182.509 82.1567L181.243 81.7921C181.243 81.7921 180.174 83.8607 178.642 84.1772C178.642 84.1772 181.083 82.3086 180.949 81.7263C180.949 81.7263 179.769 81.4605 179.43 81.5415C179.43 81.5415 178.627 83.0074 177.721 83.1138C177.721 83.1138 179.22 81.6909 179.096 81.5035C179.096 81.5035 177.468 81.5668 176.657 82.0352C177.38 81.567 178.213 81.2964 179.073 81.2503C178.688 80.8859 178.205 80.6422 177.683 80.549C177.683 80.549 178.541 80.1009 179.455 81.2402C179.455 81.2402 180.721 81.2402 180.896 81.3668C180.896 81.3668 180.136 80.1009 179.303 79.6274C179.303 79.6274 180.493 79.7287 181.233 81.4529L182.511 81.7921C182.511 81.7921 181.597 80.0831 180.886 79.5945C180.886 79.5945 182.083 79.8831 182.825 81.9061L184.02 82.4124C184.02 82.4124 183.347 80.8807 182.671 80.1641C182.671 80.1641 183.724 80.6705 184.354 82.572L185.114 83.01C185.114 83.01 184.608 81.8985 184.428 81.5921C184.248 81.2858 184.319 81.2149 184.319 81.2149C184.867 81.7561 185.253 82.4389 185.435 83.1872C185.435 83.1872 186.95 84.1949 187.018 84.1088Z" fill="#349EFF"/>
<path d="M221.014 42.4796C221.014 42.4796 216.095 34.1776 211.14 38.9021C211.14 38.9021 210.026 39.3832 210.183 40.5833C210.183 40.5833 210.606 40.3149 211.011 41.2137C211.156 41.5332 211.339 41.8341 211.555 42.11C211.846 42.4834 212.252 42.7504 212.71 42.8696C212.71 42.8696 215.153 44.4849 219.409 42.8696C219.409 42.8696 220.645 42.9734 220.832 42.8088L219.346 41.8517C219.346 41.8517 218.688 42.9683 217.634 43.1531C217.634 43.1531 219.348 41.9302 219.133 41.6998C219.088 41.6517 218.323 41.2264 218.323 41.2264C218.323 41.2264 217.166 43.1633 215.538 43.3987C215.538 43.3987 217.776 42.2138 218.037 41.0643L216.842 40.5023C216.842 40.5023 215.72 42.6113 213.87 42.948C213.87 42.948 216.166 41.6289 216.571 40.3959L215.32 39.9908C215.32 39.9908 214.186 42.0163 212.647 42.2948C212.647 42.2948 215.143 40.5023 215.027 39.9174C215.027 39.9174 213.857 39.6136 213.507 39.6845C213.507 39.6845 212.659 41.1251 211.75 41.2036C211.75 41.2036 213.292 39.8313 213.176 39.6389C213.176 39.6389 211.545 39.6515 210.722 40.0946C211.46 39.65 212.3 39.4056 213.161 39.3857C212.786 39.0093 212.31 38.7506 211.791 38.6413C211.791 38.6413 212.664 38.2185 213.563 39.3857C213.563 39.3857 214.829 39.4287 214.999 39.5579C214.999 39.5579 214.282 38.2919 213.462 37.7704C213.462 37.7704 214.647 37.9071 215.333 39.6541L216.599 40.0339C216.599 40.0339 215.741 38.297 215.042 37.7856C215.042 37.7856 216.232 38.1122 216.91 40.1554L218.088 40.7048C218.088 40.7048 217.462 39.1528 216.822 38.4261C216.822 38.4261 217.857 38.9654 218.432 40.8846L219.174 41.3454C219.174 41.3454 218.698 40.2187 218.531 39.9073C218.364 39.5958 218.434 39.5275 218.434 39.5275C218.965 40.0853 219.331 40.7795 219.49 41.5327C219.49 41.5327 220.941 42.5632 221.014 42.4796Z" fill="#F68B39"/>
<path d="M189.89 59.9367C189.89 59.9367 190.143 50.2903 183.441 51.6499C183.441 51.6499 182.241 51.465 181.734 52.5639C181.734 52.5639 182.241 52.5639 182.099 53.5386C182.053 53.8862 182.047 54.2381 182.084 54.5868C182.13 55.0599 182.33 55.5048 182.653 55.8528C182.653 55.8528 183.861 58.5214 188.32 59.4278C188.32 59.4278 189.31 60.1747 189.558 60.1342L188.798 58.534C188.798 58.534 187.646 59.1265 186.656 58.7239C186.656 58.7239 188.758 58.5999 188.7 58.291C188.7 58.2277 188.264 57.458 188.264 57.458C188.264 57.458 186.254 58.4834 184.747 57.8099C184.747 57.8099 187.279 57.9998 188.107 57.1668L187.401 56.0452C187.401 56.0452 185.33 57.2301 183.583 56.5313C183.583 56.5313 186.228 56.6377 187.231 55.8097L186.388 54.797C186.388 54.797 184.345 55.9161 182.897 55.3236C182.897 55.3236 185.965 55.1388 186.188 54.5792C186.188 54.5792 185.357 53.7007 185.023 53.5665C185.023 53.5665 183.54 54.3261 182.729 53.9159C182.729 53.9159 184.755 53.5766 184.768 53.3513C184.768 53.3513 183.383 52.493 182.448 52.4297C183.31 52.4451 184.152 52.686 184.892 53.1285C184.776 52.611 184.512 52.1384 184.132 51.7689C184.132 51.7689 185.097 51.8777 185.228 53.3386C185.228 53.3386 186.284 54.0526 186.353 54.2501C186.353 54.2501 186.426 52.7892 186.003 51.9182C186.003 51.9182 186.935 52.6652 186.585 54.5084L187.454 55.5059C187.454 55.5059 187.651 53.5766 187.335 52.774C187.335 52.774 188.165 53.683 187.654 55.7743L188.355 56.8655C188.355 56.8655 188.654 55.2173 188.494 54.2476C188.494 54.2476 189.082 55.2603 188.545 57.1871L188.93 57.972C188.93 57.972 189.125 56.7642 189.15 56.4123C189.176 56.0604 189.272 56.0376 189.272 56.0376C189.424 56.7929 189.364 57.5757 189.097 58.2986C189.097 58.2986 189.778 59.9696 189.89 59.9367Z" fill="#F68B39"/>
<path opacity="0.1" d="M200.971 182.51C204.736 182.51 207.789 181.994 207.789 181.358C207.789 180.722 204.736 180.206 200.971 180.206C197.205 180.206 194.152 180.722 194.152 181.358C194.152 181.994 197.205 182.51 200.971 182.51Z" fill="#349EFF"/>
<path opacity="0.1" d="M176.115 200C179.881 200 182.934 199.484 182.934 198.848C182.934 198.212 179.881 197.696 176.115 197.696C172.35 197.696 169.297 198.212 169.297 198.848C169.297 199.484 172.35 200 176.115 200Z" fill="#349EFF"/>
<path opacity="0.1" d="M47.58 191.039C51.3457 191.039 54.3984 190.524 54.3984 189.887C54.3984 189.251 51.3457 188.735 47.58 188.735C43.8144 188.735 40.7617 189.251 40.7617 189.887C40.7617 190.524 43.8144 191.039 47.58 191.039Z" fill="#E7EEF1"/>
<path opacity="0.1" d="M227.83 198.848C231.596 198.848 234.648 198.332 234.648 197.696C234.648 197.06 231.596 196.544 227.83 196.544C224.064 196.544 221.012 197.06 221.012 197.696C221.012 198.332 224.064 198.848 227.83 198.848Z" fill="#349EFF"/>
<path d="M234.931 183.801C240.553 183.801 245.111 183.03 245.111 182.079C245.111 181.128 240.553 180.357 234.931 180.357C229.308 180.357 224.75 181.128 224.75 182.079C224.75 183.03 229.308 183.801 234.931 183.801Z" fill="#E7EEF1"/>
<path d="M239.038 180.24C239.484 179.818 239.809 179.247 239.969 178.605C240.09 177.954 239.852 177.176 239.32 176.938C238.722 176.672 238.083 177.153 237.597 177.64C237.111 178.127 236.56 178.684 235.925 178.582C236.251 178.238 236.495 177.801 236.633 177.315C236.771 176.828 236.798 176.309 236.713 175.806C236.685 175.598 236.61 175.403 236.494 175.241C236.161 174.827 235.561 175.006 235.162 175.331C233.899 176.367 233.547 178.364 233.539 180.164C233.413 179.516 233.52 178.84 233.517 178.183C233.515 177.527 233.357 176.768 232.873 176.423C232.577 176.231 232.241 176.133 231.901 176.14C231.333 176.118 230.699 176.183 230.312 176.667C229.826 177.266 229.955 178.276 230.373 178.93C230.791 179.584 231.43 180.005 232.018 180.464C232.489 180.791 232.891 181.237 233.194 181.768C233.229 181.842 233.257 181.92 233.279 182H236.842C237.639 181.532 238.378 180.94 239.038 180.24Z" fill="#F68B39"/>
<path d="M43.0039 184.533C43.0039 184.533 46.8903 184.414 48.0676 183.578C49.245 182.743 54.0505 181.748 54.3416 183.087C54.6328 184.426 60.1852 189.743 55.7949 189.779C51.4047 189.814 45.594 189.095 44.4243 188.381C43.2546 187.667 43.0039 184.533 43.0039 184.533Z" fill="#F68B39"/>
<path opacity="0.2" d="M55.8683 189.313C51.4781 189.348 45.6674 188.629 44.4977 187.915C43.6065 187.373 43.252 185.426 43.133 184.527H43.0039C43.0039 184.527 43.2571 187.664 44.4192 188.376C45.5814 189.087 51.3996 189.809 55.7899 189.773C57.0558 189.773 57.4938 189.313 57.471 188.644C57.2938 189.052 56.8102 189.305 55.8683 189.313Z" fill="#43536D"/>
</g>
</g>
<defs>
<linearGradient id="paint0_linear_533_2302" x1="80.4588" y1="109.736" x2="159.486" y2="109.736" gradientUnits="userSpaceOnUse">
<stop stop-color="#808080" stop-opacity="0.25"/>
<stop offset="0.54" stop-color="#808080" stop-opacity="0.12"/>
<stop offset="1" stop-color="#808080" stop-opacity="0.1"/>
</linearGradient>
<clipPath id="clip0_533_2302">
<rect width="320" height="200" fill="white"/>
</clipPath>
</defs>
</svg>
