<svg width="16" height="12" viewBox="0 0 16 12" fill="none" xmlns="http://www.w3.org/2000/svg">
<path d="M7.64371 6.58523C5.82848 6.58523 4.35693 5.10884 4.35693 3.29845C4.35693 1.48806 5.83332 0.00683594 7.64371 0.00683594C9.4541 0.00683594 10.9305 1.48322 10.9305 3.29361C10.9305 5.104 9.4541 6.58039 7.64371 6.58039V6.58523ZM7.64371 1.45902C6.63202 1.45902 5.80912 2.28192 5.80912 3.29361C5.80912 4.3053 6.63202 5.1282 7.64371 5.1282C8.6554 5.1282 9.4783 4.3053 9.4783 3.29361C9.4783 2.28192 8.6554 1.45902 7.64371 1.45902Z" fill="#465363"/>
<path d="M15.2915 12.0068H13.8393V11.5227C13.8393 10.1625 12.7357 9.05887 11.3754 9.05887H3.91606C2.55584 9.05887 1.45218 10.1625 1.45218 11.5227V12.0068H0V11.5227C0 9.36383 1.75714 7.60669 3.91606 7.60669H11.3754C13.5344 7.60669 15.2915 9.36383 15.2915 11.5227V12.0068Z" fill="#465363"/>
</svg>
