<svg width="12" height="15" viewBox="0 0 12 15" fill="none" xmlns="http://www.w3.org/2000/svg">
<path d="M12 14.8296H2.27323C1.01881 14.8296 0 13.8108 0 12.5564V2.45133C0 1.37611 0.876106 0.5 1.95133 0.5H12V14.8296ZM1.95133 1.49558C1.42367 1.49558 0.995575 1.92367 0.995575 2.45133V12.5564C0.995575 13.26 1.56969 13.8341 2.27323 13.8341H11.0044V1.49558H1.95133Z" fill="#465363"/>
<path d="M0.995575 12.3342H0C0 11.1727 0.945796 10.2302 2.1073 10.2302H11.7146V11.2258H2.1073C1.49668 11.2258 0.995575 11.7236 0.995575 12.3342Z" fill="#465363"/>
<path d="M8.67477 4.45898H3.54092C3.34115 4.45898 3.1792 4.62093 3.1792 4.82071V4.97668C3.1792 5.17646 3.34115 5.33841 3.54092 5.33841H8.67477C8.87455 5.33841 9.0365 5.17646 9.0365 4.97668V4.82071C9.0365 4.62093 8.87455 4.45898 8.67477 4.45898Z" fill="#465363"/>
<path d="M8.67477 6.61279H3.54092C3.34115 6.61279 3.1792 6.77474 3.1792 6.97452V7.13049C3.1792 7.33027 3.34115 7.49222 3.54092 7.49222H8.67477C8.87455 7.49222 9.0365 7.33027 9.0365 7.13049V6.97452C9.0365 6.77474 8.87455 6.61279 8.67477 6.61279Z" fill="#465363"/>
</svg>
