<svg width="25" height="24" viewBox="0 0 25 24" fill="none" xmlns="http://www.w3.org/2000/svg">
<path d="M24.0074 22.5673L16.9997 15.5595C18.3285 13.919 19.1228 11.833 19.1228 9.5614C19.1228 4.29075 14.832 0 9.5614 0C4.29075 0 0 4.29075 0 9.5614C0 14.832 4.29075 19.1228 9.5614 19.1228C11.833 19.1228 13.919 18.3211 15.5595 16.9923L22.5673 24L24.0074 22.5673ZM9.5614 17.0962C5.41169 17.0962 2.0266 13.7185 2.0266 9.5614C2.0266 5.40427 5.41169 2.03402 9.5614 2.03402C13.7111 2.03402 17.0962 5.41169 17.0962 9.56882C17.0962 13.726 13.7185 17.0962 9.5614 17.0962Z" fill="#465363"/>
</svg>
