<svg width="16" height="16" viewBox="0 0 16 16" fill="none" xmlns="http://www.w3.org/2000/svg">
<path d="M14.9311 14.0954L10.8646 10.0289C11.6357 9.07692 12.0966 7.86646 12.0966 6.54831C12.0966 3.48985 9.60677 1 6.54831 1C3.48985 1 1 3.48985 1 6.54831C1 9.60677 3.48985 12.0966 6.54831 12.0966C7.86646 12.0966 9.07692 11.6314 10.0289 10.8603L14.0954 14.9268L14.9311 14.0954ZM6.54831 10.9206C4.14031 10.9206 2.176 8.96062 2.176 6.54831C2.176 4.136 4.14031 2.18031 6.54831 2.18031C8.95631 2.18031 10.9206 4.14031 10.9206 6.55262C10.9206 8.96492 8.96062 10.9206 6.54831 10.9206Z" fill="white"/>
</svg>
