<svg width="16" height="16" viewBox="0 0 25 24" fill="none" xmlns="http://www.w3.org/2000/svg">
<path fill-rule="evenodd" clip-rule="evenodd" d="M10.5662 0.0805525C10.0189 0.22768 9.50254 0.597124 9.21264 1.04891C8.97342 1.42165 8.86134 1.76395 8.8154 2.26192C8.7716 2.7365 8.70816 2.87423 8.44185 3.07285C8.22344 3.23577 7.8234 3.21258 7.58993 3.0234C7.03652 2.57507 6.91264 2.49134 6.66362 2.3975C6.04767 2.16539 5.36547 2.19323 4.77291 2.47464C4.44711 2.62931 4.29318 2.75615 3.60154 3.43924C3.16361 3.87183 2.72982 4.33945 2.63754 4.47843C2.38043 4.86577 2.26219 5.27426 2.26219 5.77554C2.26219 6.43908 2.43127 6.86327 2.92734 7.44433C3.26479 7.83962 3.29774 8.18122 3.02913 8.50042C2.84715 8.71674 2.65828 8.80007 2.35018 8.80007C1.75282 8.80007 1.15766 9.05429 0.712229 9.49977C0.395528 9.81647 0.198408 10.1571 0.0891743 10.5766C-0.0199591 10.9956 -0.0199591 13.0036 0.0891743 13.4226C0.356334 14.4484 1.31219 15.1991 2.35108 15.1991C2.65833 15.1991 2.84725 15.2826 3.02913 15.4988C3.30084 15.8216 3.26444 16.1664 2.91684 16.5636C2.78526 16.7139 2.62874 16.9161 2.56895 17.0128C2.12036 17.7387 2.14896 18.7848 2.63754 19.5207C2.72982 19.6597 3.16361 20.1273 3.60154 20.5599C4.30468 21.2544 4.44396 21.3685 4.79231 21.5348C5.1806 21.7202 5.19605 21.7231 5.78666 21.7231C6.37352 21.7231 6.39471 21.7192 6.76151 21.5423C6.96773 21.4428 7.26598 21.247 7.42431 21.107C7.83634 20.7429 8.18339 20.7051 8.51924 20.9876C8.71671 21.1538 8.8112 21.3798 8.8112 21.686C8.8112 22.2565 9.07556 22.8703 9.50709 23.3019C9.82124 23.616 10.1611 23.81 10.5956 23.9232C10.935 24.0116 12.8797 24.029 13.3162 23.9475C14.2723 23.769 15.0481 22.9387 15.1701 21.9632C15.1969 21.7487 15.2293 21.4995 15.242 21.4096C15.2731 21.1896 15.5263 20.9124 15.7599 20.8424C16.0441 20.7573 16.2593 20.8211 16.5637 21.0811C17.1871 21.6133 17.5998 21.7667 18.3347 21.7397C18.7905 21.723 18.87 21.7045 19.2346 21.5314C19.5974 21.3592 19.7143 21.2618 20.4936 20.4825C21.2729 19.7032 21.3703 19.5863 21.5426 19.2235C21.7156 18.8589 21.7341 18.7794 21.7508 18.3236C21.7778 17.5886 21.6244 17.176 21.0922 16.5526C20.7568 16.1598 20.725 15.8163 20.9945 15.4961C21.167 15.2911 21.3622 15.1991 21.6249 15.1991C22.75 15.1991 23.7578 14.3812 23.9586 13.3051C24.0238 12.9559 24.0238 11.0432 23.9586 10.6941C23.7633 9.64775 22.7512 8.80007 21.6971 8.80007C21.3909 8.80007 21.1649 8.70559 20.9987 8.50812C20.7193 8.17607 20.7542 7.83597 21.1091 7.43038C21.5837 6.88812 21.7726 6.40839 21.7698 5.75339C21.7678 5.30261 21.631 4.85073 21.3839 4.47843C21.2916 4.33945 20.8578 3.87183 20.4199 3.43924C19.7167 2.74475 19.5775 2.63071 19.2291 2.46439C18.8408 2.27902 18.8254 2.27607 18.2348 2.27607C17.6488 2.27607 17.6261 2.28027 17.2599 2.45594C17.0537 2.55488 16.7698 2.73995 16.6291 2.86713C16.2293 3.22842 15.9154 3.29656 15.6097 3.08844C15.323 2.89332 15.2529 2.75175 15.2042 2.26907C15.1489 1.7214 15.0585 1.44135 14.8154 1.0652C14.4926 0.565879 14.023 0.23153 13.4258 0.0760033C13.0278 -0.027681 10.9564 -0.0244315 10.5662 0.0805525ZM13.2118 1.70181C13.4544 1.82559 13.6105 2.10729 13.6105 2.4216C13.6105 2.99111 13.8683 3.63706 14.2579 4.0434C15.1525 4.97646 16.5852 5.03955 17.5371 4.18783C17.6733 4.0659 17.8375 3.93836 17.9018 3.90432C18.0517 3.82508 18.4166 3.82468 18.5677 3.90357C18.7207 3.98346 19.8303 5.06939 20.0156 5.3206C20.1281 5.47313 20.1595 5.56912 20.1595 5.76134C20.1595 6.05584 20.1137 6.15188 19.8243 6.46428C19.1261 7.21781 19.0312 8.41858 19.5985 9.32115C19.9946 9.95145 20.8219 10.3998 21.5887 10.3998C21.903 10.3998 22.1847 10.5559 22.3085 10.7985C22.3995 10.9768 22.4091 11.0922 22.4091 11.9996C22.4091 12.907 22.3995 13.0224 22.3085 13.2007C22.1847 13.4433 21.903 13.5993 21.5887 13.5993C20.8219 13.5993 19.9946 14.0477 19.5985 14.678C19.0286 15.5847 19.126 16.7809 19.8317 17.5429C20.1127 17.8463 20.1595 17.9449 20.1595 18.2342C20.1595 18.5392 20.1218 18.5945 19.4401 19.2913C18.6995 20.0483 18.5604 20.1483 18.249 20.1483C17.9559 20.1483 17.8581 20.1022 17.554 19.8206C16.792 19.1149 15.5959 19.0175 14.6892 19.5873C14.0588 19.9835 13.6105 20.8107 13.6105 21.5776C13.6105 21.8919 13.4544 22.1736 13.2118 22.2974C13.0335 22.3884 12.9181 22.398 12.0107 22.398C11.1033 22.398 10.9879 22.3884 10.8096 22.2974C10.5626 22.1713 10.4113 21.8929 10.4102 21.5626C10.4098 21.4309 10.3755 21.1789 10.3339 21.0026C10.0395 19.7537 8.72551 18.9528 7.49605 19.2731C7.10061 19.3761 6.74041 19.5678 6.4674 19.8206C6.16335 20.1022 6.06551 20.1483 5.77246 20.1483C5.46101 20.1483 5.32188 20.0483 4.58129 19.2913C3.89959 18.5945 3.86195 18.5392 3.86195 18.2342C3.86195 17.9436 3.90839 17.8466 4.19615 17.536C4.47306 17.237 4.68642 16.7902 4.76666 16.3411C5.01677 14.9415 3.87425 13.5993 2.43272 13.5993C2.11842 13.5993 1.83671 13.4433 1.71293 13.2007C1.62194 13.0223 1.61229 12.907 1.61229 11.9966C1.61229 11.1713 1.62694 10.959 1.69343 10.8188C1.82646 10.5386 2.01503 10.4405 2.50866 10.3949C3.35933 10.3164 3.93219 10.0092 4.35162 9.40663C4.99813 8.47782 4.93109 7.25686 4.1897 6.45628C3.90809 6.15223 3.86195 6.05439 3.86195 5.76134C3.86195 5.56912 3.89329 5.47313 4.00578 5.3206C4.19115 5.06939 5.30073 3.98346 5.45371 3.90357C5.60423 3.82498 5.96918 3.82503 6.11961 3.90362C6.18395 3.93727 6.34357 4.0639 6.4743 4.18503C6.96108 4.63591 7.71276 4.86467 8.37241 4.76254C8.81859 4.6935 9.37731 4.42329 9.67776 4.13124C10.1253 3.69625 10.3398 3.21637 10.4057 2.50193C10.4512 2.00791 10.547 1.81974 10.8218 1.68431C10.9563 1.61802 11.1684 1.60322 12.0002 1.60232C12.9195 1.60127 13.0331 1.61062 13.2118 1.70181ZM11.1108 6.47733C9.73006 6.69559 8.40031 7.49477 7.55809 8.6125C5.95093 10.7453 6.05177 13.6506 7.8035 15.6859C9.01437 17.0928 11.0403 17.8305 12.858 17.5266C13.5328 17.4138 14.026 17.2491 14.6218 16.9377C17.2454 15.5666 18.342 12.3215 17.0821 9.65659C16.5055 8.43693 15.6758 7.58791 14.4853 6.99955C13.3968 6.46153 12.2921 6.29056 11.1108 6.47733ZM12.9613 8.11753C14.0018 8.40143 14.7993 8.9706 15.3597 9.82912C16.3775 11.3882 16.1644 13.4686 14.8507 14.7975C13.0522 16.6167 10.0597 16.3115 8.65907 14.1661C8.21469 13.4854 8.03851 12.8704 8.03851 11.9996C8.03851 11.131 8.21509 10.5125 8.65532 9.83957C9.25073 8.92935 10.1751 8.3023 11.2608 8.07199C11.6615 7.987 12.5724 8.01139 12.9613 8.11753Z" fill="white"/>
</svg>
