<svg width="15" height="14" viewBox="0 0 15 14" fill="none" xmlns="http://www.w3.org/2000/svg">
<path fill-rule="evenodd" clip-rule="evenodd" d="M6.67579 0.0704589C6.5944 0.113934 6.48341 0.212525 6.42915 0.289576L6.33049 0.429636V3.51267V6.59567L6.42231 6.72813C6.70151 7.13102 7.31253 7.12957 7.58696 6.72537L7.67881 6.59005V3.51244V0.434799L7.5889 0.306085C7.44509 0.100155 7.29378 0.0164277 7.04112 0.0029775C6.86051 -0.00662512 6.79879 0.00475326 6.67579 0.0704589ZM2.72751 1.45551C2.52319 1.51052 2.44341 1.5733 2.00524 2.02387C0.688988 3.37734 0 5.0706 0 6.95179C0 8.05964 0.230693 9.07167 0.704675 10.043C1.06872 10.7891 1.50935 11.3996 2.10932 11.9892C2.67814 12.5482 3.16143 12.8982 3.84766 13.2481C4.93275 13.8013 5.97253 14.0321 7.21841 13.9964C8.10497 13.971 8.78742 13.834 9.56973 13.5244C11.1862 12.8846 12.5003 11.6654 13.2864 10.0759C14.2514 8.12462 14.2573 5.81713 13.3022 3.86053C12.9262 3.09032 12.4947 2.49667 11.8669 1.88601C11.4249 1.45616 11.3215 1.39815 11.0296 1.41673C10.6487 1.44097 10.3919 1.71596 10.3919 2.09937C10.3919 2.35884 10.4708 2.49177 10.8167 2.81451C11.3085 3.27339 11.7085 3.81042 12.0184 4.42794C12.9237 6.23159 12.7851 8.42576 11.6597 10.1077C10.8277 11.3511 9.60673 12.1743 8.11171 12.5C7.82222 12.563 7.67621 12.5729 7.02109 12.574C6.34756 12.5751 6.22523 12.5668 5.90393 12.4977C3.91343 12.07 2.3236 10.6633 1.69499 8.77349C1.20595 7.3033 1.32404 5.73515 2.02661 4.37026C2.31916 3.80187 2.61056 3.40526 3.08649 2.92776C3.30998 2.70355 3.51453 2.46819 3.54103 2.40472C3.56754 2.34125 3.58924 2.21148 3.58924 2.11631C3.58924 1.66147 3.16653 1.33731 2.72751 1.45551Z" fill="#465363"/>
</svg>
