<svg width="13" height="12" viewBox="0 0 13 12" fill="none" xmlns="http://www.w3.org/2000/svg">
<path d="M0.000223888 6.00926C-0.00641216 4.94939 0.273411 3.90742 0.810118 2.99347C1.33566 2.08427 2.09083 1.3291 3.00003 0.80356C3.8029 0.339551 4.70257 0.0683507 5.62813 0.0113315C6.55369 -0.0456877 7.47985 0.113033 8.33361 0.474985C9.04712 0.775029 9.69646 1.20913 10.2464 1.75376C10.7952 2.30242 11.2298 2.95436 11.5252 3.67194C11.8363 4.39656 12.0005 5.17572 12.0081 5.96426C12.0158 6.7528 11.8669 7.53502 11.5701 8.26557C11.2732 8.99613 10.8342 9.66048 10.2787 10.2201C9.7231 10.7798 9.06197 11.2236 8.33361 11.5258C7.59535 11.8387 6.80169 12 5.99983 12C5.19798 12 4.40432 11.8387 3.66606 11.5258C2.22055 10.9289 1.07082 9.78299 0.46911 8.33948C0.152851 7.60368 -0.00682958 6.81012 0.000223888 6.00926ZM1.32163 6.00926C1.31654 6.62299 1.43624 7.23136 1.67347 7.79741C1.9107 8.36347 2.2605 8.8754 2.70165 9.30212C3.12856 9.74594 3.64203 10.0974 4.21026 10.3348C4.77849 10.5722 5.3894 10.6904 6.00516 10.6821C6.82748 10.6888 7.6361 10.4715 8.34426 10.0534C9.0524 9.64274 9.64176 9.05522 10.0546 8.34836C10.4699 7.6378 10.6887 6.8296 10.6887 6.0066C10.6887 5.1836 10.4699 4.3754 10.0546 3.66483C9.64346 2.95528 9.05382 2.36564 8.34426 1.95446C7.63352 1.5426 6.82662 1.3257 6.00516 1.3257C5.1837 1.3257 4.37681 1.5426 3.66606 1.95446C2.95728 2.36844 2.36655 2.95734 1.95036 3.66483C1.53056 4.3742 1.31311 5.18502 1.32163 6.00926ZM5.53983 6.00926V2.46065C5.53432 2.39924 5.54166 2.33736 5.56138 2.27894C5.5811 2.22053 5.61277 2.16686 5.65438 2.12136C5.69598 2.07585 5.7466 2.03951 5.80302 2.01465C5.85944 1.98979 5.92042 1.97695 5.98207 1.97695C6.04373 1.97695 6.10471 1.98979 6.16112 2.01465C6.21754 2.03951 6.26817 2.07585 6.30977 2.12136C6.35137 2.16686 6.38304 2.22053 6.40277 2.27894C6.42249 2.33736 6.42983 2.39924 6.42432 2.46065V5.56169H8.44195C8.50052 5.56073 8.55869 5.57156 8.613 5.59353C8.6673 5.6155 8.71663 5.64817 8.75806 5.6896C8.79948 5.73102 8.83215 5.78035 8.85413 5.83466C8.8761 5.88896 8.88693 5.94713 8.88597 6.00571C8.88622 6.12321 8.84029 6.23611 8.75809 6.32007C8.71813 6.3633 8.66943 6.39752 8.61524 6.42049C8.56104 6.44346 8.50257 6.45463 8.44372 6.45328H6.07443C6.04278 6.45882 6.01059 6.46061 5.97852 6.45861C5.9199 6.45982 5.86166 6.44899 5.8074 6.42679C5.75313 6.40459 5.704 6.37148 5.66305 6.32953C5.62209 6.28758 5.59018 6.23766 5.56929 6.18288C5.5484 6.1281 5.53898 6.06961 5.5416 6.01104L5.53983 6.00926Z" fill="#8B95A0"/>
</svg>
