<svg width="15" height="16" viewBox="0 0 15 16" fill="none" xmlns="http://www.w3.org/2000/svg">
<path fill-rule="evenodd" clip-rule="evenodd" d="M5.07007 0.0198507C4.76943 0.0939004 4.49445 0.318584 4.35239 0.606344C4.27443 0.764183 4.26943 0.809313 4.25899 1.44781L4.24795 2.12249L2.28483 2.1316C0.361376 2.14051 0.319881 2.14211 0.229621 2.20949C0.0546032 2.34017 0 2.44678 0 2.65772C0 2.86859 0.0545699 2.97517 0.229554 3.10595C0.313544 3.16876 0.376386 3.17563 0.952972 3.18511L1.5844 3.19545V8.75851C1.5844 14.1919 1.58593 14.3275 1.65037 14.5795C1.7431 14.9421 1.86175 15.1446 2.15078 15.4336C2.43977 15.7226 2.64231 15.8413 3.00485 15.934C3.25518 15.998 3.38747 16 7.455 16C11.5225 16 11.6548 15.998 11.9052 15.934C12.2677 15.8413 12.4702 15.7226 12.7592 15.4336C13.0483 15.1446 13.1669 14.9421 13.2596 14.5795C13.3241 14.3275 13.3256 14.1919 13.3256 8.75851V3.19545L13.957 3.18511C14.5336 3.17563 14.5965 3.16876 14.6804 3.10595C14.8554 2.97517 14.91 2.86859 14.91 2.65772C14.91 2.44678 14.8554 2.34017 14.6804 2.20949C14.5901 2.14211 14.5486 2.14051 12.6257 2.1316L10.6631 2.12249L10.6508 1.44781C10.6393 0.812716 10.6338 0.763349 10.5569 0.606344C10.4531 0.394302 10.2533 0.194134 10.0401 0.0885301L9.87329 0.00594137L7.52171 0.000571125C6.22834 -0.00236418 5.1251 0.00630828 5.07007 0.0198507ZM9.58976 1.59034V2.12403H7.455H5.32023V1.59034V1.05665H7.455H9.58976V1.59034ZM12.2575 8.7368C12.2568 14.2436 12.2563 14.2832 12.1888 14.4323C12.0976 14.6339 11.975 14.7584 11.7746 14.8531L11.6078 14.932L7.455 14.9316C3.34888 14.9312 3.30051 14.9304 3.15211 14.8632C2.95055 14.772 2.82603 14.6494 2.73127 14.449L2.65245 14.2822L2.65211 8.7368L2.65178 3.19141H7.455H12.2582L12.2575 8.7368ZM5.46867 5.37124C5.33351 5.43258 5.19405 5.60286 5.17017 5.73575C5.15953 5.79486 5.15519 7.33185 5.16049 9.15131C5.17007 12.4329 5.1707 12.4602 5.23891 12.5515C5.3684 12.725 5.47667 12.7812 5.68124 12.7812C5.91363 12.7812 6.06543 12.6865 6.1573 12.4843C6.2165 12.3539 6.21937 12.1949 6.21937 9.06201C6.21937 5.92915 6.2165 5.77014 6.1573 5.63975C6.12314 5.56457 6.04649 5.46837 5.98698 5.42598C5.85563 5.33245 5.6111 5.30663 5.46867 5.37124ZM9.05607 5.34846C8.92779 5.40126 8.80941 5.5149 8.7527 5.63975C8.6935 5.77014 8.69063 5.92915 8.69063 9.06201C8.69063 12.1949 8.6935 12.3539 8.7527 12.4843C8.84456 12.6865 8.99637 12.7812 9.22876 12.7812C9.43333 12.7812 9.5416 12.725 9.67109 12.5515C9.7395 12.4599 9.73987 12.4413 9.73987 9.06201C9.73987 5.68272 9.7395 5.66414 9.67109 5.57251C9.55684 5.4195 9.4382 5.35093 9.26701 5.33905C9.17852 5.33288 9.08359 5.33712 9.05607 5.34846Z" fill="#8B95A0"/>
</svg>
