<svg width="24" height="24" viewBox="0 0 24 24" fill="none" xmlns="http://www.w3.org/2000/svg">
<path d="M18.2612 5.92242C16.8142 2.64007 13.5389 0.345947 9.73415 0.345947C4.59533 0.345947 0.416504 4.52477 0.416504 9.66359C0.416504 10.2848 0.494151 10.9412 0.649445 11.6471V17.7389C0.649445 18.2965 1.10121 18.7412 1.6518 18.7412H6.08474C7.70121 21.7483 10.8494 23.6542 14.28 23.6542C14.9012 23.6542 15.5577 23.5765 16.2636 23.4212H22.3553C22.913 23.4212 23.3577 22.9695 23.3577 22.4189V16.3271C23.513 15.6212 23.5906 14.9718 23.5906 14.3436C23.5977 10.7083 21.5153 7.45418 18.2612 5.92242ZM2.65415 11.3859C2.49886 10.7436 2.42827 10.193 2.42827 9.66359C2.42827 5.63301 5.70356 2.35771 9.73415 2.35771C12.7977 2.35771 15.4306 4.25654 16.5106 6.93889C16.5177 6.96712 16.5177 6.99536 16.5318 7.02359C16.7859 7.67301 16.9412 8.33653 17.0118 8.99301C17.033 9.21183 17.0471 9.43771 17.0471 9.66359C17.0471 13.6942 13.7718 16.9695 9.74121 16.9695C9.2118 16.9695 8.66121 16.8989 8.01886 16.7436C7.94827 16.7224 7.87062 16.7154 7.80003 16.7154C7.80003 16.7154 7.80003 16.7154 7.79297 16.7154C7.72944 16.7154 7.66592 16.7224 7.60239 16.7365H6.71297H2.66121V11.8307C2.68945 11.6824 2.68945 11.5342 2.65415 11.3859ZM21.36 16.0589C21.3247 16.2001 21.3247 16.3412 21.353 16.4754V21.4024H16.4471C16.2989 21.3742 16.1506 21.3742 16.0024 21.4095C15.36 21.5648 14.8094 21.6354 14.28 21.6354C12.0424 21.6354 9.96003 20.5977 8.59062 18.8895C8.63297 18.8965 8.66827 18.8965 8.70356 18.9036C8.75297 18.9107 8.80945 18.9177 8.85886 18.9177C9.15533 18.953 9.44474 18.9671 9.72709 18.9671C14.8659 18.9671 19.0447 14.7883 19.0447 9.64948C19.0447 9.34595 19.0306 9.04948 19.0024 8.75301C20.6189 10.1154 21.5859 12.1342 21.5859 14.3295C21.593 14.8659 21.5153 15.4307 21.36 16.0589Z" fill="#465363"/>
</svg>
