<?xml version="1.0" standalone="no"?>
<!DOCTYPE svg PUBLIC "-//W3C//DTD SVG 1.1//EN" "http://www.w3.org/Graphics/SVG/1.1/DTD/svg11.dtd" >
<svg xmlns="http://www.w3.org/2000/svg">
<metadata>Generated by IcoMoon</metadata>
<defs>
<font id="icomoon" horiz-adv-x="1024">
<font-face units-per-em="1024" ascent="960" descent="-64" />
<missing-glyph horiz-adv-x="1024" />
<glyph unicode="&#x20;" horiz-adv-x="512" d="" />
<glyph unicode="&#xe900;" glyph-name="dowload" horiz-adv-x="1088" d="M837.542 505.101c-4.595 18.894-16.614 31.635-34.816 36.777-5.082 1.444-10.112 2.166-14.963 2.166-13.466 0-25.83-5.518-36.691-16.438-26.72-26.781-53.446-53.533-80.198-80.285-35.187-35.188-70.374-70.376-105.475-105.65-1.185-1.185-2.109-2.542-2.889-3.929v70.954c0 163.372 0 326.744 0 490.087v2.34c0 4.651 0.029 9.476-0.404 14.243-2.282 24.556-24.441 44.548-49.373 44.548-2.225 0-4.449-0.173-6.644-0.491-28.052-4.045-44.144-24.296-44.144-55.555 0-142.976 0-285.98 0-428.956v-135.84c-1.069 1.011-2.051 1.965-3.004 2.918l-42.959 42.93c-46.339 46.282-94.268 94.152-141.271 141.358-11.7 11.729-24.528 17.681-38.106 17.681-5.286 0-10.804-0.896-16.351-2.687-17.103-5.489-29.236-18.201-33.252-34.841-4.275-17.709 1.56-36.719 15.629-50.817 71.647-71.763 143.352-143.409 215.056-215.082l54.082-54.054c13.203-13.203 26.81-19.878 40.475-19.878 13.722 0 27.474 6.758 40.792 20.077 88.982 88.928 177.904 177.877 266.858 266.829l0.749 0.751c2.342 2.34 4.768 4.767 6.963 7.482 10.426 13.087 13.811 27.619 9.997 43.249l-0.058 0.115zM1024.23 213.024c0 7.68-1.184 15.11-3.379 21.491-6.848 19.936-25.568 33.312-46.573 33.312-2.541 0-5.114-0.205-7.622-0.608-25.798-4.134-43.194-24.122-43.309-49.747-0.173-41.082-0.141-82.854-0.115-123.245 0-16.582 0-33.197 0-49.779v-7.104h-822.031v54.573c-0.029 40.096-0.058 81.581 0.058 122.349 0.058 17.677-6.067 31.661-18.172 41.6-9.88 8.115-20.57 12.218-31.779 12.218-7.049 0-14.243-1.645-21.35-4.909-19.558-8.928-29.93-25.946-29.93-49.171v-65.926c-0.029-52.288-0.058-104.55 0.029-156.845 0.058-34.547 20.887-55.206 55.757-55.206 149.909 0 299.79-0.026 449.699-0.026s308.719 0 463.049 0.026c34.81 0 55.642 20.685 55.699 55.296 0.141 80.979 0.115 153.491-0.090 221.702h0.058z" />
<glyph unicode="&#xe901;" glyph-name="trash" horiz-adv-x="960" d="M376.317 629.116c-6.4 4.48-15.36 7.040-24.32 7.040-5.76 0-10.88-1.28-14.72-2.56-10.88-5.12-21.12-17.28-23.040-28.16-1.28-7.040-0.64-188.16-0.64-208.64 0-135.683 2.133-206.083 6.4-211.203 9.6-12.8 18.56-17.28 33.28-17.28 17.28 0 29.44 7.68 36.48 23.040 4.48 9.6 4.48 15.36 4.48 211.203 0 195.84 0 200.96-4.48 211.2-2.56 5.76-8.32 12.8-12.8 16l-0.64-0.64zM903.667 824.319c-5.12 3.84-48.218 5.973-129.28 6.4h-111.36v33.28c0 38.4-0.64 42.88-6.4 54.4-7.040 14.72-20.483 28.16-35.202 35.2l-14.080 5.76h-176c-41.6 0-112.64 0-117.76-1.28-20.48-5.12-39.040-20.48-48.64-39.68-5.76-11.52-5.76-16-6.4-54.4v-32.64h-111.36c-81.067 0-124.16-2.133-129.28-6.4-12.8-9.6-17.28-18.56-17.28-33.92s4.48-24.32 17.28-33.92c7.68-5.76 13.44-5.76 48.64-6.4h30.080v-329.6c0-332.159 0-338.559 4.48-355.199 5.76-23.68 14.080-37.12 32.64-55.68s32-26.24 55.68-32.64c16-3.84 21.12-4.48 272-4.48 250.882 0 256.002 0 272.002 4.48 23.68 5.76 37.12 14.080 55.68 32.64s26.88 32 32.64 55.68c3.84 16 4.48 23.040 4.48 355.199v328.96h30.080c35.2 1.28 40.96 1.28 48.64 7.040 12.8 9.6 17.28 18.56 17.28 33.92s-4.48 24.32-17.28 33.92l-1.28-0.64zM712.307 54.4h-252.162c-240.64 0-250.24 0-257.92 3.2-10.24 4.48-16.64 10.88-21.76 21.12l-3.84 6.4v664.959h566.402v-328.32c0-315.519 0-334.719-3.2-342.399-4.48-10.24-10.88-16.64-21.12-21.12l-6.4-3.84zM581.745 831.359h-242.56v48.64h242.56v-48.64zM565.135 636.156h-9.6l-1.28-1.28c-9.6-3.84-18.559-12.16-22.399-21.76-4.48-9.6-4.481-10.24-4.481-211.2 0-200.963 0.001-201.603 4.481-211.203 7.040-15.36 19.199-23.040 36.479-23.040 14.72 0 23.68 4.48 33.28 17.28 3.84 5.12 5.76 77.229 5.76 216.323s-1.92 211.2-5.76 216.32c-8.32 10.88-17.92 16.64-35.84 17.28l-0.64 1.28z" />
<glyph unicode="&#xe902;" glyph-name="eye" horiz-adv-x="964" d="M481.882 649.091c166.033 0 314.097-93.31 386.379-240.941-72.282-147.632-220.347-240.942-386.379-240.942-166.030 0-314.1 93.31-386.382 240.942 72.282 147.631 220.352 240.941 386.382 240.941zM481.882 736.706c-219.037 0-406.096-136.241-481.882-328.556 75.787-192.314 262.845-328.555 481.882-328.555 219.040 0 406.094 136.24 481.882 328.555-75.788 192.315-262.843 328.556-481.882 328.556zM481.882 517.669c60.455 0 109.519-49.065 109.519-109.519 0-60.453-49.064-109.521-109.519-109.521s-109.519 49.068-109.519 109.521c0 60.455 49.064 109.519 109.519 109.519zM481.882 605.283c-108.643 0-197.134-88.491-197.134-197.134 0-108.642 88.491-197.133 197.134-197.133s197.132 88.492 197.132 197.133c0 108.643-88.489 197.134-197.132 197.134z" />
<glyph unicode="&#xe903;" glyph-name="excel" d="M278.538 912.026c-280.959-52.768-266.676-49.397-274.583-64.825-3.897-7.605-3.955-13.008-3.955-364.298s0.058-356.694 3.955-364.299c7.924-15.462-6.859-11.997 278.81-65.296l262.793-49.041 9.314 3.541c5.719 2.176 11.427 6.289 14.781 10.667l5.467 7.134 0.591 53.393 0.592 53.4 213.807 0.526c212.411 0.52 213.844 0.55 219.331 4.629 3.038 2.258 7.381 6.578 9.643 9.603 4.13 5.494 4.13 5.73 4.651 332.923 0.572 362.079 1.527 335.764-12.655 346.534l-7.561 5.739-427.4 1.050v50.944c0 43.103-0.506 52.006-3.283 57.83-4.857 10.189-15.066 17.102-26.307 17.815-6.097 0.386-100.577-16.525-267.992-47.967zM960.196 482.903v-286.73h-384.076v63.534l53.869 0.59c50.789 0.556 54.185 0.824 59.389 4.695 8.724 6.488 13.129 13.658 14.199 23.106 1.31 11.561-3.052 21.555-12.56 28.777l-7.554 5.739-107.343 1.178v63.351l53.869 0.59c50.789 0.556 54.185 0.824 59.389 4.695 8.724 6.487 13.129 13.658 14.199 23.106 1.31 11.561-3.052 21.554-12.56 28.776l-7.554 5.739-107.343 1.179v63.351l53.869 0.589c50.789 0.556 54.185 0.824 59.389 4.695 8.724 6.488 13.129 13.658 14.199 23.106 1.31 11.561-3.052 21.555-12.56 28.777l-7.554 5.739-107.343 1.178v63.351l53.869 0.59c50.789 0.556 54.185 0.824 59.389 4.695 8.724 6.487 13.129 13.658 14.199 23.106 1.31 11.561-3.052 21.554-12.56 28.776l-7.554 5.739-107.343 1.179v63.534h384.076v-286.729zM786.61 702.667c-19.372-9.679-24.27-33.547-10.164-49.536 8.947-10.144 15.545-11.307 60.088-10.58 36.076 0.587 39.83 0.984 44.882 4.747 8.721 6.49 13.133 13.659 14.199 23.106 1.314 11.561-3.055 21.553-12.561 28.776l-7.552 5.739-41.167 0.512c-34.927 0.434-42.164 0.016-47.725-2.764zM429.4 670.788c13.993-6.608 21.928-24.451 17.059-38.356-1.168-3.336-25.645-36.136-54.397-72.893-28.75-36.757-51.984-67.624-51.633-68.592 0.354-0.968 23.147-27.375 50.653-58.679 27.505-31.305 51.64-59.825 53.635-63.375 10.622-18.93-6.117-45.286-28.763-45.286-12.993 0-19.191 5.559-68.052 61.048-26.419 30.005-48.829 54.066-49.795 53.472s-20.178-24.647-42.693-53.449c-22.514-28.801-43.354-53.945-46.313-55.875-18.85-12.294-45.98 0.788-48.543 23.406-0.646 5.705 0.137 10.973 2.29 15.418 1.799 3.715 23.503 32.609 48.235 64.211l44.963 57.457-13.499 15.252c-52.477 59.296-75.982 86.762-79.012 92.327-13.511 24.812 15.487 54.49 41.318 42.289 5.037-2.379 20.662-18.581 49.236-51.053l41.86-47.57 12.937 16.48c95.298 121.38 91.329 117.033 106.866 117.033 3.703 0 9.844-1.469 13.647-3.267zM786.61 575.232c-19.372-9.679-24.27-33.548-10.164-49.537 8.947-10.143 15.545-11.306 60.088-10.579 36.076 0.587 39.83 0.983 44.882 4.746 8.721 6.49 13.133 13.66 14.199 23.106 1.314 11.561-3.055 21.553-12.561 28.777l-7.552 5.739-41.167 0.511c-34.927 0.434-42.164 0.016-47.725-2.763zM786.61 447.796c-19.372-9.679-24.27-33.547-10.164-49.537 8.947-10.143 15.545-11.306 60.088-10.579 36.076 0.587 39.83 0.984 44.882 4.747 8.721 6.49 13.133 13.659 14.199 23.106 1.314 11.561-3.055 21.553-12.561 28.776l-7.552 5.739-41.167 0.512c-34.927 0.434-42.164 0.016-47.725-2.764zM786.61 320.361c-19.372-9.679-24.27-33.548-10.164-49.537 8.947-10.144 15.545-11.306 60.088-10.58 36.076 0.588 39.83 0.984 44.882 4.747 8.721 6.49 13.133 13.66 14.199 23.106 1.314 11.561-3.055 21.553-12.561 28.777l-7.552 5.739-41.167 0.511c-34.927 0.434-42.164 0.016-47.725-2.763z" />
<glyph unicode="&#xe904;" glyph-name="csv" horiz-adv-x="878" d="M103.664 956.979c-8.149-3.53-16.612-11.265-21.001-19.193-2.916-5.264-3.269-21.17-3.755-168.821l-0.537-163.008-17.87-0.852c-21.795-1.039-34.808-6.132-45.617-17.861-15.64-16.967-14.878-7.579-14.878-183.248 0-155.227 0.019-156.014 4.141-164.926 10.407-22.508 27.125-32.66 56.328-34.21l17.845-0.951 0.562-103.877c0.618-113.986 0.097-108.954 12.501-120.737 12.666-12.032-11.662-11.242 347.475-11.242 359.139 0 334.811-0.79 347.472 11.242 12.405 11.783 11.886 6.751 12.5 120.737l0.563 103.877 17.847 0.951c29.206 1.551 45.919 11.703 56.327 34.21 4.125 8.912 4.14 9.699 4.14 164.926 0 175.669 0.761 166.281-14.877 183.248-10.818 11.738-23.815 16.822-45.67 17.864l-17.92 0.854-0.197 58.378c-0.102 32.108-0.797 60.559-1.529 63.223-1.609 5.786-192.668 224.802-200.076 229.35-4.681 2.871-26.783 3.147-246.067 3.079-210.898-0.066-241.769-0.442-247.706-3.013zM568.672 818.658v-102.658l11.306-12.656 180.511-1.081v-96.764h-643.261v315.818h451.445v-102.658zM254.842 564.767c22.942-2.766 42.587-8.814 42.533-13.092-0.050-3.974-10.85-46.844-12.121-48.113-0.486-0.486-7.756 1.074-16.157 3.464-21.421 6.098-54.402 6.039-72.43-0.127-38.772-13.267-58.149-43.083-58.269-89.661-0.127-49.196 20.611-79.441 62.894-91.733 18.929-5.503 53.462-3.787 79.842 3.964 3.79 1.116 4.34-0.25 8.345-20.751 2.36-12.069 4.724-23.439 5.255-25.264 2.772-9.544-54.53-18.653-93.904-14.927-25.308 2.395-38.919 6.103-59.382 16.182-20.935 10.312-36.367 23.624-48.444 41.793-30.667 46.13-32.341 117.025-3.956 167.493 29.557 52.549 92.852 79.568 165.797 70.77zM471.796 563.909c19.472-2.976 42.625-9.924 42.625-12.788 0-0.94-3.161-13.011-7.024-26.824l-7.023-25.116-9.744 3.84c-21.993 8.669-53.441 11.949-70.134 7.314-4.292-1.191-10.947-5.38-15.016-9.449-6.309-6.309-7.31-8.515-7.31-16.109 0-15.469 9.455-23.132 47.971-38.87 27.615-11.284 35.679-15.421 48.43-24.842 33.292-24.593 41.353-70.933 18.98-109.112-18.139-30.95-66.281-48.266-120.991-43.513-30.847 2.679-64.142 12.346-64.142 18.621 0 1.496 2.741 13.664 6.091 27.040 5.012 20.023 6.64 24.134 9.204 23.257 1.711-0.585 10.522-3.658 19.58-6.828 19.005-6.648 47.013-10.67 61.033-8.762 25.31 3.443 38.992 18.773 33.841 37.91-3.021 11.214-15.52 20.803-39.939 30.64-58.717 23.651-80.282 43.193-85.802 77.747-10.301 64.485 54.23 108.862 139.369 95.842zM619.104 558.514c3.966-9.049 46.346-160.672 53.209-190.363 3.941-17.050 7.461-31.307 7.824-31.68 0.786-0.814 2.968 7.237 9.5 35.052 5.38 22.919 18.792 70.286 40.463 142.912l14.166 47.47 34.267 0.529c26.726 0.413 34.267-0.013 34.282-1.938 0.007-1.356-21.577-66.755-47.952-145.334l-47.969-142.866-77.556-0.053-46.018 143.862c-25.31 79.125-46.007 144.517-45.989 145.315 0.015 0.798 15.742 1.453 34.945 1.453 34.354 0 34.949-0.070 36.829-4.359zM760.488 111.426v-93.001h-643.261v186.002h643.261v-93.001z" />
<glyph unicode="&#xe905;" glyph-name="images" d="M47.092 830.763c-17.937-5.507-33.784-19.215-41.856-36.209l-5.236-11.021v-699.366l5.236-11.021c6.302-13.267 17.284-24.576 30.834-31.763l10.020-5.312h931.817l10.4 5.485c13.594 7.168 23.994 17.952 30.464 31.59l5.229 11.021v699.366l-5.229 11.021c-6.47 13.636-16.87 24.424-30.464 31.592l-10.4 5.481-462.901 0.337c-254.598 0.186-465.159-0.355-467.914-1.201zM958.874 531.667v-236.838l-5.51 5.139c-47.616 44.367-127.616 115.237-133.76 118.49-10.31 5.455-30.848 5.717-41.082 0.525-3.859-1.956-37.92-34.355-75.699-71.996-40.691-40.548-69.273-67.569-70.134-66.308-7.473 10.95-258.946 308.755-263.69 312.274-17.253 12.797-43.182 12.292-58.476-1.136-3.843-3.375-59.404-67.125-123.469-141.667-64.067-74.544-117.708-136.851-119.205-138.47-2.294-2.47-2.721 33.182-2.721 226.947v229.876h893.747v-236.836zM751.469 683.516c-23.866-5.922-47.494-24.31-58.074-45.183-23.462-46.304-4.627-100.58 42.682-122.994 12.614-5.976 14.714-6.342 36.429-6.342 21.798 0 23.789 0.351 36.653 6.442 36.525 17.302 58.419 57.368 51.827 94.826-9.171 52.063-59.437 85.681-109.517 73.251z" />
<glyph unicode="&#xe906;" glyph-name="pdf" horiz-adv-x="808" d="M760.449 736.337c-4.312 9.162-214.501 218.813-222.044 221.507-4.851 1.617-125.575 2.156-225.28 2.156-86.232 0-233.364 0-241.987-2.156-33.415-6.467-62.518-36.109-68.985-70.602-2.695-16.168-2.695-852.615 0-869.322 7.006-35.571 35.032-64.135 70.602-71.141 10.779-2.156 278.636-2.156 309.356-2.156s298.036 0 308.815 2.156c35.571 7.006 64.135 35.032 71.141 70.602 1.078 7.006 2.156 128.808 2.156 360.556 0 330.914 0 351.394-3.234 357.322l-0.539 1.078zM54.43 879.158c2.695 11.318 14.552 24.253 25.331 26.408 5.389 1.078 74.914 2.156 217.735 2.156h204.8v-59.823c0-32.337 0.539-70.063 2.156-77.069 6.467-35.571 35.029-64.135 71.139-70.602 7.006-1.078 44.733-2.156 77.069-2.156h60.362v-328.758c0-164.379 0-334.147-2.156-343.309-1.617-7.006-3.234-10.24-9.701-16.707-7.006-7.006-10.24-8.623-16.707-9.701-7.545-1.078-134.198-2.156-301.269-2.156-167.074 0-293.726 1.078-301.272 2.156-12.396 2.695-24.253 14.552-26.947 26.408-3.234 19.941-3.234 833.752 0 853.693l-0.539-0.539zM618.706 750.888c-39.343 0-43.116 2.695-52.278 11.857-10.779 10.779-11.857 14.552-11.857 73.297v34.493l119.107-119.107h-54.434l-0.539-0.539zM192.4 113.33c9.701 0 19.402 2.156 28.025 5.928 38.265 17.246 78.147 60.901 112.64 123.419l3.773 10.24 24.253 8.084c28.025 9.162 58.206 17.246 93.777 24.792l20.48 5.928 13.474-9.701c22.636-16.168 36.648-25.331 53.894-34.493 14.013-7.006 17.785-8.623 31.798-8.623 18.863 0 29.103 3.234 41.499 11.857 12.935 8.623 21.019 23.175 22.097 42.038 2.695 30.181-12.935 49.583-46.349 57.667-9.162 2.156-25.331 2.695-33.954 2.695-17.785 0-35.031-1.078-46.887-3.234-9.701-1.617-18.324-3.234-18.863-3.234-7.006 2.695-56.051 46.888-81.381 75.99l-9.162 6.467 8.623 27.486c16.707 52.817 19.402 66.829 18.324 93.238-1.617 36.648-10.779 57.667-31.798 68.985-8.084 4.851-14.552 5.389-29.642 5.928h-8.084c-9.162 0-15.629-0.539-20.48-2.156-26.947-10.24-40.421-32.337-44.194-71.141-3.773-38.265 7.545-70.602 40.96-118.568l9.162-9.162-12.396-37.725c-17.246-52.817-30.72-87.309-32.337-90.004-2.156-1.617-21.558-11.318-53.356-26.408-62.518-30.181-84.615-42.577-99.166-56.589-13.474-13.474-19.402-24.792-21.019-39.882-1.078-12.935 3.234-25.331 12.396-36.109 12.396-14.013 32.876-22.636 53.356-22.636l0.539-1.078zM226.893 187.166c-15.629-14.552-25.869-20.48-35.571-20.48-3.234 0-6.467 0.539-10.24 2.156h-1.078v1.078c1.617 2.156 6.467 7.545 10.779 10.779 6.467 4.312 39.882 22.636 59.823 32.876-7.545-8.623-16.707-19.402-24.253-25.869l0.539-0.539zM354.084 570.356c0 0 5.389 3.234 8.623 3.234 4.312 0 8.084-1.617 9.701-3.773 3.234-4.312 5.928-28.025 2.695-42.577-1.078-5.928-4.851-19.941-8.623-33.415-1.078-3.773-2.156-7.006-2.156-9.701-1.078 2.695-3.234 5.928-5.389 9.701-9.701 18.863-12.935 30.181-12.935 45.272 0 16.168 2.156 25.869 7.545 31.259h0.539zM422.53 333.22c-6.467-1.078-24.253-5.928-39.343-9.701-7.006-2.156-13.474-3.773-17.785-4.851 4.312 14.013 14.013 42.038 18.324 54.973 4.851-4.851 40.421-39.882 40.421-39.882h-2.156l0.539-0.539zM581.519 298.728l4.312-4.312c0 0-1.078-2.695-8.084-2.695-4.312 0-13.474 3.773-22.636 8.623h2.695c10.24 0 20.48-1.078 23.175-1.617h0.539z" />
<glyph unicode="&#xe907;" glyph-name="copy" horiz-adv-x="832" d="M768 960h-612.572c-5.028 0-9.143-4.114-9.143-9.143v-64c0-5.028 4.115-9.142 9.143-9.142h566.856v-786.284c0-5.030 4.115-9.146 9.146-9.146h64c5.024 0 9.139 4.115 9.139 9.146v831.998c0 20.229-16.339 36.571-36.57 36.571zM621.714 813.715h-585.142c-20.229 0-36.571-16.343-36.571-36.572v-606.513c0-9.715 3.886-18.976 10.743-25.83l198.057-198.054c2.515-2.515 5.372-4.576 8.457-6.291v-2.17h4.8c4-1.485 8.228-2.285 12.572-2.285h387.085c20.232 0 36.571 16.346 36.571 36.57v804.573c0 20.228-16.339 36.572-36.571 36.572zM217.143 54.63l-98.4 98.515h98.4v-98.515zM576 18.285h-285.715v162.285c0 25.261-20.457 45.715-45.714 45.715h-162.286v505.144h493.715v-713.144z" />
<glyph unicode="&#xe908;" glyph-name="back" horiz-adv-x="1195" d="M88.889 501.333h1066.667c14.143 0 27.711-5.619 37.712-15.621s15.622-23.567 15.622-37.712c0-14.145-5.621-27.711-15.622-37.712s-23.569-15.621-37.712-15.621h-1066.667c-14.145 0-27.711 5.619-37.712 15.621s-15.621 23.567-15.621 37.712c0 14.145 5.619 27.711 15.621 37.712s23.567 15.621 37.712 15.621zM110.953 448.002l442.346-442.239c10.015-10.018 15.64-23.598 15.64-37.763 0-14.16-5.626-27.745-15.64-37.757-10.014-10.018-23.597-15.639-37.76-15.639s-27.745 5.621-37.76 15.639l-480 479.999c-4.967 4.954-8.907 10.84-11.596 17.319s-4.073 13.426-4.073 20.441c0 7.015 1.384 13.961 4.073 20.441s6.629 12.365 11.596 17.319l480 480c10.015 10.015 23.598 15.641 37.76 15.641s27.746-5.626 37.76-15.641c10.015-10.015 15.64-23.597 15.64-37.76s-5.626-27.746-15.64-37.76l-442.346-442.24z" />
<glyph unicode="&#xe909;" glyph-name="home" d="M1032.389 501.975l-520.372 421.632-520.375-421.632 53.321-65.829 82.286 66.816v-530.581h769.204v530.581l82.286-66.816 53.65 65.829zM427.099 56.971v339.678h169.838v-339.349h-169.838v-0.329zM811.864 56.971h-130.009v424.597h-339.675v-424.268h-130.011v514.453l299.849 242.907 299.846-242.907v-514.782z" />
<glyph unicode="&#xe90a;" glyph-name="report" d="M983.376 62.288v-85.643h-973.734v973.729h85.644v-888.087h888.090zM434.758 523.088l193.629-193.629 225.9 225.9v-170.356h85.643v316.509h-316.507v-85.644h170.353l-165.388-165.391-193.629 193.63-228.694-228.694 60.509-60.509 168.185 168.184z" />
<glyph unicode="&#xe90b;" glyph-name="inventory" horiz-adv-x="1138" d="M904.334 900.222l-49.966-86.54c-8.488-14.697-3.453-33.49 11.247-41.976 14.694-8.486 33.49-3.45 41.978 11.248l49.96 86.54c8.488 14.697 3.453 33.49-11.247 41.976-14.694 8.485-33.49 3.45-41.973-11.248zM1052.444 678.4h-113.778c-17.283 0-31.289-14.008-31.289-31.289s14.006-31.289 31.289-31.289h113.778c17.283 0 31.289 14.008 31.289 31.289s-14.006 31.289-31.289 31.289zM742.895 840.884l-36.841 63.813c-10.598 18.356-34.071 24.645-52.423 14.047-18.358-10.598-24.65-34.069-14.052-52.424l36.847-63.813c10.593-18.356 34.065-24.645 52.423-14.047 18.352 10.597 24.644 34.068 14.046 52.424zM398.671-50.352l2.633-1.377 408.959 213.134v449.872l-408.958 206.209-406.993-206.217v-449.858l404.36-211.763zM401.479-11.423l-371.409 194.509v406.239l371.409 188.106 373.024-188.113v-406.226l-373.024-194.514zM399.65 377.617l2.628-1.371 405.242 210.739-16.452 31.716-388.778-201.995-386.806 201.99-16.677-31.685 400.842-209.393zM420.153 391.111v5.689h-35.759v-433.983h35.759v428.294zM266.233 348.9l4.794-4.517v118.979l402.867 214.219-136.441 68.647-394.020-216.244v-103.515l24.211-2.94 27.549-30.143 30.185-6.034 40.855-38.451zM240.385 414.644l-0.591 0.556-28.98 5.828-28.522 31.13-8.788 1.116v59.037l364.714 199.859 70.312-35.378-367.572-195.382v-67.302l-0.572 0.537zM706.606 245.646l-196.134-103.714 11.398-21.555 196.131 103.714-11.395 21.555zM690.796 439.875h-24.377v-162.542h24.377v162.542zM648.528 361.853l-20.804 12.84 47.138 77.043 51.035-34.621-13.653-20.155-29.906 20.317-33.809-55.425zM560.77 374.864h-24.381v-162.543h24.381v162.543zM518.5 296.841l-20.805 12.84 47.136 77.045 51.034-34.623-13.653-20.156-29.905 20.315-33.808-55.421z" />
<glyph unicode="&#xe90c;" glyph-name="setting" horiz-adv-x="1067" d="M450.825 956.563c-23.351-6.277-45.383-22.040-57.752-41.317-10.207-15.904-14.989-30.508-16.949-51.755-1.869-20.249-4.576-26.125-15.938-34.6-9.319-6.951-26.387-5.962-36.349 2.11-23.612 19.129-28.898 22.701-39.523 26.705-26.281 9.903-55.388 8.716-80.67-3.291-13.901-6.599-20.468-12.011-49.978-41.156-18.685-18.457-37.193-38.409-41.131-44.339-10.97-16.527-16.015-33.955-16.015-55.343 0-28.311 7.214-46.41 28.38-71.202 14.398-16.866 15.804-31.441 4.343-45.060-7.764-9.23-15.823-12.785-28.969-12.785-25.487 0-50.881-10.847-69.886-29.854-13.513-13.513-21.923-28.046-26.584-45.945-4.656-17.877-4.656-103.552 0-121.429 11.399-43.767 52.182-75.797 96.508-75.797 13.109 0 21.17-3.563 28.93-12.787 11.593-13.773 10.040-28.484-4.791-45.431-5.614-6.413-12.292-15.040-14.843-19.166-19.14-30.972-17.92-75.605 2.927-107.004 3.937-5.931 22.446-25.882 41.131-44.339 30.001-29.632 35.943-34.5 50.806-41.596 16.567-7.91 17.226-8.034 42.426-8.034 25.039 0 25.943 0.166 41.594 7.714 8.799 4.245 21.524 12.599 28.279 18.573 17.58 15.535 32.387 17.148 46.717 5.094 8.425-7.091 12.457-16.734 12.457-29.798 0-24.341 11.279-50.53 29.691-68.945 13.404-13.402 27.904-21.679 46.443-26.509 14.481-3.772 97.455-4.514 116.079-1.037 40.794 7.616 73.894 43.042 79.1 84.663 1.143 9.152 2.526 19.785 3.068 23.62 1.327 9.387 12.13 21.214 22.097 24.201 12.126 3.631 21.308 0.909 34.295-10.185 26.598-22.707 44.207-29.252 75.563-28.1 19.447 0.713 22.839 1.502 38.396 8.887 15.479 7.347 20.467 11.503 53.717 44.753s37.406 38.238 44.757 53.717c7.381 15.556 8.171 18.948 8.883 38.396 1.152 31.36-5.393 48.964-28.1 75.563-14.31 16.759-15.667 31.415-4.169 45.077 7.36 8.747 15.689 12.672 26.897 12.672 48.004 0 91.004 34.897 99.571 80.811 2.782 14.899 2.782 96.508 0 111.403-8.333 44.644-51.516 80.812-96.491 80.812-13.065 0-22.707 4.031-29.798 12.457-11.921 14.167-10.432 28.678 4.71 45.984 20.25 23.136 28.309 43.605 28.19 71.552-0.085 19.233-5.922 38.513-16.465 54.398-3.938 5.93-22.447 25.882-41.131 44.339-30.003 29.632-35.942 34.497-50.807 41.594-16.567 7.909-17.225 8.035-42.423 8.035-25.003 0-25.971-0.179-41.596-7.674-8.798-4.221-20.911-12.118-26.914-17.544-17.058-15.415-30.451-18.322-43.494-9.443-12.233 8.325-15.223 14.365-17.301 34.96-2.359 23.367-6.217 35.316-16.589 51.365-13.773 21.304-33.809 35.57-59.29 42.206-16.981 4.424-105.361 4.285-122.010-0.194zM563.703 887.389c10.351-5.281 17.011-17.3 17.011-30.711 0-24.299 10.999-51.86 27.622-69.197 38.17-39.811 99.298-42.502 139.913-6.162 5.811 5.202 12.817 10.644 15.561 12.096 6.396 3.381 21.965 3.398 28.412 0.032 6.528-3.409 53.871-49.742 61.777-60.46 4.8-6.508 6.14-10.604 6.14-18.805 0-12.565-1.954-16.663-14.302-29.992-29.79-32.151-33.839-83.383-9.634-121.893 16.9-26.893 52.198-46.022 84.915-46.022 13.41 0 25.429-6.66 30.711-17.011 3.883-7.607 4.292-12.531 4.292-51.247s-0.41-43.639-4.292-51.247c-5.282-10.351-17.301-17.007-30.711-17.007-32.717 0-68.015-19.132-84.915-46.025-24.316-38.686-20.16-89.724 9.95-122.236 11.989-12.945 13.986-17.152 13.986-29.495 0-13.013-1.609-15.373-30.694-45.103-31.599-32.299-37.534-36.565-50.82-36.565-12.506 0-16.678 1.967-29.653 13.982-32.512 30.11-83.546 34.266-122.231 9.954-26.897-16.905-46.025-52.198-46.025-84.919 0-13.41-6.66-25.429-17.011-30.711-7.607-3.883-12.531-4.292-51.247-4.292s-43.639 0.41-51.247 4.292c-10.539 5.38-16.994 17.259-17.041 31.351-0.017 5.619-1.481 16.371-3.255 23.893-12.561 53.286-68.625 87.458-121.082 73.792-16.872-4.395-32.241-12.574-43.889-23.36-12.973-12.015-17.147-13.982-29.651-13.982-13.289 0-19.225 4.267-50.823 36.565-29.086 29.73-30.692 32.090-30.692 45.103 0 12.399 1.981 16.538 14.259 29.79 11.815 12.757 20.918 31.821 24.342 50.982 10.671 59.716-38.076 116.983-99.581 116.983-13.41 0-25.43 6.656-30.711 17.007-3.882 7.612-4.294 12.531-4.294 51.375 0 35.213 0.625 44.271 3.462 50.253 5.676 11.955 13.722 16.141 34.783 18.086 36.295 3.349 60.737 16.457 78.633 42.166 27.584 39.629 24.724 91.724-6.909 125.882-12.015 12.973-13.984 17.147-13.984 29.651 0 8.201 1.337 12.297 6.137 18.805 7.909 10.718 55.251 57.051 61.778 60.46 6.422 3.353 21.993 3.351 28.412-0.002 2.745-1.436 9.556-6.839 15.133-12.007 20.769-19.238 52.841-28.998 80.986-24.64 19.037 2.946 42.876 14.475 55.695 26.935 19.095 18.56 28.247 39.034 31.059 69.517 1.941 21.078 6.029 29.107 17.754 34.885 5.739 2.828 14.788 3.46 50.278 3.498 39.223 0.045 44.070-0.354 51.695-4.245zM474.061 683.634c-58.912-9.312-115.648-43.411-151.582-91.101-68.572-90.999-64.27-214.959 10.471-301.798 51.664-60.028 138.103-91.503 215.659-78.537 28.791 4.813 49.835 11.84 75.255 25.126 111.94 58.5 158.729 196.958 104.973 310.661-24.602 52.039-60.002 88.264-110.797 113.367-46.443 22.956-93.577 30.25-143.979 22.281zM553.015 613.652c44.395-12.113 78.421-36.398 102.332-73.028 43.426-66.521 34.334-155.284-21.717-211.984-76.736-77.619-204.416-64.597-264.176 26.94-18.96 29.043-26.477 55.283-26.477 92.437 0 37.060 7.534 63.45 26.317 92.161 25.404 38.836 64.844 65.59 111.167 75.417 17.097 3.626 55.962 2.586 72.555-1.943z" />
<glyph unicode="&#xe90d;" glyph-name="message" d="M779.145 707.31c-61.739 140.047-201.485 237.93-363.821 237.93-219.256 0-397.553-178.296-397.553-397.553 0-26.505 3.313-54.511 9.939-84.63v-259.917c0-23.791 19.275-42.765 42.767-42.765h189.139c68.969-128.303 203.292-209.621 349.664-209.621 26.505 0 54.515 3.315 84.634 9.941h259.913c23.795 0 42.769 19.273 42.769 42.765v259.917c6.626 30.118 9.937 57.826 9.937 84.629 0.303 155.106-88.546 293.949-227.388 359.304zM113.244 474.202c-6.626 27.405-9.638 50.897-9.638 73.485 0 171.971 139.746 311.718 311.718 311.718 130.711 0 243.049-81.017 289.129-195.464 0.303-1.204 0.303-2.409 0.905-3.614 10.842-27.709 17.468-56.019 20.48-84.029 0.905-9.336 1.506-18.974 1.506-28.611 0-171.973-139.746-311.719-311.718-311.719-22.588 0-46.080 3.012-73.487 9.638-3.012 0.905-6.325 1.203-9.337 1.203 0 0 0 0-0.301 0-2.711 0-5.421-0.299-8.131-0.9h-210.824v209.314c1.205 6.327 1.205 12.651-0.301 18.978zM911.36 274.82c-1.506-6.025-1.506-12.045-0.299-17.771v-210.219h-209.318c-6.323 1.203-12.651 1.203-18.974-0.303-27.409-6.626-50.901-9.638-73.489-9.638-95.471 0-184.319 44.275-242.747 117.158 1.807-0.299 3.313-0.299 4.819-0.602 2.108-0.303 4.518-0.602 6.626-0.602 12.649-1.506 24.998-2.108 37.044-2.108 219.256 0 397.551 178.295 397.551 397.552 0 12.951-0.602 25.6-1.805 38.249 68.971-58.129 110.229-144.264 110.229-237.93 0.303-22.886-3.012-46.985-9.638-73.788z" />
<glyph unicode="&#xe90e;" glyph-name="search" horiz-adv-x="1067" d="M1024.316-2.871l-298.995 298.999c56.695 69.995 90.586 158.997 90.586 255.919 0 224.881-183.074 407.953-407.953 407.953-224.881 0-407.953-183.072-407.953-407.953 0-224.879 183.072-407.953 407.953-407.953 96.922 0 185.924 34.206 255.919 90.901l298.999-298.995 61.444 61.129zM407.953 230.562c-177.054 0-321.485 144.115-321.485 321.485s144.431 321.168 321.485 321.168 321.485-144.114 321.485-321.485c0-177.373-144.115-321.168-321.485-321.168z" />
<glyph unicode="&#xe90f;" glyph-name="location" horiz-adv-x="768" d="M541.373 561.662c22.271 94.263-36.169 188.712-130.531 210.96s-188.912-36.131-211.183-130.394c-22.272-94.262 36.169-188.712 130.531-210.96s188.912 36.131 211.183 130.394zM712.348 612.229c0-236.093-307.093-676.229-356.103-676.229s-356.245 429.501-356.245 676.229c0 192.009 159.494 347.771 356.102 347.771s356.103-155.762 356.103-347.771h0.143z" />
<glyph unicode="&#xe910;" glyph-name="doc" d="M174.875 895.812l495.935 0.188 52.128-56.813c28.685-31.124 66.56-72.374 116.627-126.937l-0.941-726.561-4.499-11.251c-2.624-6.189-8.064-15.002-12.186-19.501-4.691-5.062-12.378-10.502-31.13-18.938h-614.997l-11.812 5.248c-6.938 3.187-14.625 8.627-19.313 13.69-4.125 4.499-9.562 13.312-16.687 30.752l0.375 860.623 4.312 11.25c2.438 6.188 7.875 15 12 19.5 4.5 4.687 12.563 10.5 18.938 13.5l11.25 5.25zM179.937 841.812c-1.875-2.438-2.25-87.375-2.25-425.812 0-364.499 0.375-423.373 2.625-426.56 2.625-3.75 4.875-3.75 303-3.75 298.127 0 300.374 0 302.998 3.75 2.253 3.187 2.624 51.558 2.624 346.497v342.563c-127.309 0-134.624 0.375-140.435 3.375-3.373 1.687-7.872 6.188-9.749 9.75-3.375 6.188-3.563 11.437-3.563 81.188v74.437c-346.5-0.188-448.5-0.75-450-1.313s-3.937-2.437-5.25-4.125v0zM684.499 764.75l0.378-36.563c59.251-0.75 70.31-0.375 70.496 1.125 0.192 1.125-14.81 18.188-32.998 37.875-18.374 19.875-33.939 36.75-34.502 37.688-0.749 0.938-1.683 0.563-2.432-0.938-0.563-1.5-1.126-19.124-0.941-39.187zM258.312 770.375l1.688-6.938c0.938-3.937 7.5-31.5 14.25-61.5 6.937-29.812 13.312-57.562 14.25-61.312 0.938-3.938 2.438-7.125 3.563-7.125 0.937 0 1.875 1.125 1.875 2.437 0 1.125 7.875 32.063 34.688 134.438h34.687l1.875-6.938c0.938-3.937 7.5-32.063 14.813-62.438 7.125-30.374 13.5-58.125 14.063-61.312 0.563-3.375 1.687-6.188 2.625-6.188 0.75 0 2.438 4.875 3.75 10.687 1.5 6 9.375 36.563 17.625 68.063s15 57.375 15.187 57.75c0.188 0.188 8.438 0.188 36.375-0.563l-57-200.625h-35.063l-8.812 36.562c-4.875 20.063-12.188 50.25-16.125 67.125-3.938 16.687-7.5 30.375-8.063 30.375s-6.188-19.5-12.75-43.5c-6.563-24-15-54.375-25.688-91.687l-33.75 0.188-25.125 98.812c-13.875 54.563-25.5 100.125-26.063 101.437-0.749 1.688 3.563 2.25 37.125 2.25v0zM727.066 610.063l5.062-5.25c3.936-3.938 5.248-6.938 5.248-12.563s-1.312-8.625-10.31-17.812h-236.253l-5.063 5.25c-3.937 3.937-5.25 6.938-5.25 12.375 0 4.312 1.5 9 3.375 11.437s5.25 4.875 7.5 5.812c2.25 0.75 56.25 1.313 235.691 0.75zM727.066 486.312l5.062-5.25c3.936-3.937 5.248-6.938 5.248-12.563s-1.312-8.625-10.31-17.812l-234.941-0.563c-186-0.375-235.875 0-240.188 1.875-3 1.313-6.563 4.125-8.062 6.188-1.313 2.063-2.438 6.563-2.438 9.937 0 3.188 0.75 7.688 1.875 9.75 0.938 2.062 4.687 5.062 7.875 6.563 5.438 2.25 38.063 2.625 475.878 1.875zM251.375 376.625h236.813c222.564 0 237.374-0.188 241.873-3.188 2.624-1.875 5.44-5.812 6.566-9 1.12-3.563 1.12-7.688 0-11.251-1.126-3-4.128-7.124-6.752-8.812-4.314-3.188-18.938-3.375-477.188-3.375l-5.625 4.688c-4.5 3.75-5.625 6.188-5.812 12.938-0.188 6.562 0.563 9 4.875 13.124l5.25 4.876zM727.066 266.938l5.248-5.248c3.75-3.942 5.062-6.938 5.062-12.563s-1.312-8.813-10.31-17.811l-231.94-0.563c-127.688-0.378-234.75-0.192-238.125 0.371s-8.25 3.187-10.876 5.811c-3.187 3.194-4.687 6.752-4.687 11.629 0 3.936 1.313 8.998 3 11.437s4.875 5.062 7.124 5.997c2.25 0.941 109.313 1.504 475.503 0.941zM488.938 157.062c216.752 0.186 232.125 0 238.128-3.187 3.744-1.69 7.686-5.626 8.998-8.435 1.312-2.816 1.875-7.693 1.312-10.688-0.563-3.187-3.379-7.686-12.186-15.002l-474.565 0.934-4.688 5.062c-2.812 3.379-4.5 7.501-4.5 11.814 0 3.565 0.938 8.25 1.875 10.31 1.125 2.067 4.687 4.877 8.062 6.381 5.251 2.432 38.625 2.81 237.563 2.81z" />
<glyph unicode="&#xe911;" glyph-name="paper-clip" horiz-adv-x="964" d="M635.711 957.149c-29.588-4.964-61.996-18.397-86.968-36.049-13.608-9.618-11.27-7.336-294.643-287.393-107.44-106.183-196.001-194.774-196.804-196.869-0.8-2.095-4.269-7.72-7.71-12.499-35.904-49.897-54.572-118.674-48.433-178.44 5.187-50.477 18.491-88.757 44.345-127.59 41.334-62.091 101.584-102.472 177.761-119.139 27.202-5.951 80.124-5.903 108.224 0.090 36.125 7.716 69.466 21.341 98.613 40.303 8.565 5.578 16.916 10.644 18.558 11.264 3.301 1.253 515.109 506.938 515.109 508.948 0 0.693-10.607 11.838-23.564 24.768l-23.57 23.512-8.921-8.441c-8.391-7.942-257.078-253.508-421.459-416.167-57.947-57.338-78.159-76.155-90.75-84.48-98.687-65.247-228.312-39.647-292.486 57.76-12.846 19.504-21.028 38.195-27.765 63.434-4.22 15.806-4.824 21.853-4.824 48.273 0 26.413 0.604 32.461 4.824 48.267 11.138 41.72 26.869 68.091 62.252 104.353 66.994 68.658 443.718 438.674 453.242 445.171 25.162 17.166 49.503 24.557 80.476 24.433 39.376-0.157 69.084-12.629 97.256-40.83 26.504-26.523 38.141-52.679 39.936-89.727 1.614-33.42-8.186-64.455-28.293-89.572-11.782-14.714-452.744-450.709-463.242-458.016-12.238-8.523-22.373-11.535-39.184-11.643-25.463-0.163-45.086 10.445-58.449 31.599-8.3 13.137-11.115 24.709-10.048 41.315 1.712 26.672-6.234 17.727 175.136 197.112 89.793 88.812 179.815 177.894 200.048 197.963l36.785 36.487-48.774 48.884-118.735-117.385c-278.4-275.236-287.414-284.344-295.866-299-4.325-7.493-10.071-20.233-12.768-28.311-4.338-12.981-4.909-17.733-4.943-41.099-0.034-24.052 0.432-27.787 5.198-41.526 20.318-58.603 71.608-95.352 133.011-95.298 29.044 0.018 60.808 10.583 83.348 27.708 9.662 7.349 448.048 440.217 464.829 458.985 56.862 63.594 68.259 153.529 29.082 229.493-41.050 79.59-130.879 124.272-219.835 109.354z" />
<glyph unicode="&#xe912;" glyph-name="user" horiz-adv-x="945" d="M472.615 408.615c-157.145 0-275.692 118.548-275.692 275.692s118.548 275.692 275.692 275.692c157.145 0 275.692-118.548 275.692-275.692s-118.548-275.692-275.692-275.692zM945.231-59.904h-945.231v78.769c0 217.167 176.679 315.077 393.846 315.077h157.538c217.167 0 393.846-97.91 393.846-315.077v-78.769z" />
<glyph unicode="&#xe914;" glyph-name="clock" horiz-adv-x="1088" d="M0 746.067l254.956 213.933 66.745-79.544-254.955-213.933-66.746 79.544zM799.398 945.834l254.957-213.933-64.032-76.31-254.957 213.933 64.032 76.311zM475.153 228.845l-27.153-27.149-155.153 155.151 54.305 54.305 100.847-100.849 260.845 260.849 54.31-54.305-288.003-288.003zM880.998 383.229c0 201.044-162.976 364.022-364.020 364.022s-364.023-162.979-364.023-364.022c0-201.047 162.979-364.023 364.023-364.023s364.020 162.976 364.020 364.023zM964.205 383.229c0-246.999-200.23-447.229-447.227-447.229s-447.228 200.23-447.228 447.229c0 246.997 200.231 447.228 447.228 447.228s447.227-200.23 447.227-447.228z" />
<glyph unicode="&#xe915;" glyph-name="close" horiz-adv-x="1109" d="M932.437 943.448l-420.33-420.328-420.328 420.328c-10.109 9.251-23.398 14.245-37.098 13.942s-26.755-5.881-36.445-15.571c-9.69-9.69-15.267-22.745-15.571-36.445s4.69-26.989 13.942-37.098l420.115-420.329-420.221-420.221c-5.134-4.89-9.238-10.761-12.071-17.263s-4.337-13.508-4.425-20.599c-0.088-7.091 1.243-14.123 3.914-20.693s6.628-12.544 11.64-17.562c5.011-5.018 10.975-8.977 17.541-11.665 6.566-2.679 13.601-4.019 20.693-3.942s14.096 1.579 20.601 4.403c6.505 2.816 12.381 6.912 17.281 12.041l420.435 420.223 420.33-420.326c10.112-9.25 23.398-14.251 37.094-13.943 13.705 0.307 26.761 5.879 36.446 15.573 9.694 9.685 15.266 22.741 15.573 36.446 0.307 13.696-4.693 26.982-13.943 37.094l-420.326 420.328 420.326 420.436c5.137 4.892 9.242 10.762 12.075 17.263s4.335 13.504 4.42 20.595c0.094 7.091-1.237 14.129-3.908 20.698s-6.63 12.539-11.639 17.557c-5.018 5.018-10.974 8.984-17.545 11.664-6.562 2.68-13.602 4.021-20.693 3.943s-14.097-1.572-20.599-4.396c-6.502-2.824-12.382-6.919-17.28-12.046v-0.107z" />
</font>
</defs>
</svg>
