<svg width="59" height="50" viewBox="0 0 59 50" fill="none" xmlns="http://www.w3.org/2000/svg">
<g clip-path="url(#clip0_904_1832)">
<path d="M18.21 36.4201C28.2672 36.4201 36.4201 28.2672 36.4201 18.21C36.4201 8.15292 28.2672 0 18.21 0C8.15292 0 0 8.15292 0 18.21C0 28.2672 8.15292 36.4201 18.21 36.4201Z" fill="#E7EEF1"/>
<path d="M52.0639 12.7854H7.31501C6.31044 12.7854 5.48853 13.6073 5.48853 14.6119V44.7489H53.8904V14.6119C53.8904 13.6073 53.0684 12.7854 52.0639 12.7854Z" fill="white"/>
<path d="M5.48853 44.7489V14.6119C5.48853 13.6073 6.31044 12.7854 7.31501 12.7854H52.0639C53.0684 12.7854 53.8904 13.6073 53.8904 14.6119V44.7489" stroke="#011837" stroke-width="1.5" stroke-miterlimit="10"/>
<path d="M57.5434 44.7488H35.6256L34.7123 45.662H23.7534L22.8402 44.7488H0.922363V46.5753C0.922363 48.0821 2.15524 49.315 3.66209 49.315H54.8036C56.3196 49.315 57.5434 48.0912 57.5434 46.5753V44.7488Z" fill="white" stroke="#011837" stroke-width="1.5" stroke-miterlimit="10"/>
<path d="M19.1873 35.6165H14.6211V42.0091H19.1873V35.6165Z" fill="#6BFFFF"/>
<path d="M27.4063 31.0503H22.8401V42.0092H27.4063V31.0503Z" fill="#6BFFFF"/>
<path d="M35.6255 21.0046H31.0593V42.0092H35.6255V21.0046Z" fill="#6BFFFF"/>
<path d="M43.8448 27.3972H39.2786V42.0091H43.8448V27.3972Z" fill="#6BFFFF"/>
<path d="M14.6211 42.0091V35.6165H19.1873V42.0091" stroke="#011837" stroke-width="1.5" stroke-miterlimit="10"/>
<path d="M22.8401 42.0092V31.0503H27.4063V42.0092" stroke="#011837" stroke-width="1.5" stroke-miterlimit="10"/>
<path d="M31.0593 42.0092V21.0046H35.6255V42.0092" stroke="#011837" stroke-width="1.5" stroke-miterlimit="10"/>
<path d="M39.2786 42.0091V27.3972H43.8448V42.0091" stroke="#011837" stroke-width="1.5" stroke-miterlimit="10"/>
</g>
<defs>
<clipPath id="clip0_904_1832">
<rect width="58.2283" height="50" fill="white"/>
</clipPath>
</defs>
</svg>
