<svg width="20" height="20" viewBox="0 0 20 20" fill="none" xmlns="http://www.w3.org/2000/svg">
<g clip-path="url(#clip0_621_5580)">
<circle cx="10" cy="10" r="9.25" stroke="#F68B39" stroke-width="1.5"/>
<path d="M9.3125 16.1875H10.6875V8.625H9.3125V16.1875ZM10 6.5625C9.79604 6.5625 9.59666 6.50202 9.42707 6.3887C9.25748 6.27539 9.1253 6.11433 9.04725 5.92589C8.9692 5.73746 8.94877 5.53011 8.98857 5.33006C9.02836 5.13002 9.12657 4.94627 9.2708 4.80205C9.41502 4.65782 9.59877 4.55961 9.79881 4.51982C9.99886 4.48002 10.2062 4.50045 10.3946 4.5785C10.5831 4.65655 10.7441 4.78873 10.8575 4.95832C10.9708 5.12791 11.0313 5.32729 11.0313 5.53125C11.0313 5.80475 10.9226 6.06706 10.7292 6.26045C10.5358 6.45385 10.2735 6.5625 10 6.5625Z" fill="#F68B39"/>
</g>
<defs>
<clipPath id="clip0_621_5580">
<rect width="20" height="20" fill="white"/>
</clipPath>
</defs>
</svg>
