<svg width="50" height="50" viewBox="0 0 50 50" fill="none" xmlns="http://www.w3.org/2000/svg">
<g clip-path="url(#clip0_904_205)">
<path d="M25 50C38.8071 50 50 38.8071 50 25C50 11.1929 38.8071 0 25 0C11.1929 0 0 11.1929 0 25C0 38.8071 11.1929 50 25 50Z" fill="#E7EEF1"/>
<g clip-path="url(#clip1_904_205)">
<path d="M39.351 26.1489C39.351 34.734 32.3829 41.7021 23.7978 41.7021C15.2127 41.7021 8.24463 34.7446 8.24463 26.1489C8.24463 17.5531 15.2127 10.5957 23.7978 10.5957C25.7553 10.5957 27.6276 10.9574 29.351 11.617" stroke="#011837" stroke-width="1.5" stroke-miterlimit="10"/>
<path d="M38.8084 10.7021L24.7871 24.7234L18.9361 18.883L14.2659 23.5532L24.7871 34.0745L43.4786 15.3724L38.8084 10.7021Z" fill="#6BFFFF" stroke="#011837" stroke-width="1.5" stroke-miterlimit="10"/>
</g>
</g>
<defs>
<clipPath id="clip0_904_205">
<rect width="50" height="50" fill="white"/>
</clipPath>
<clipPath id="clip1_904_205">
<rect width="37.1596" height="32.9255" fill="white" transform="translate(7.44678 9.57446)"/>
</clipPath>
</defs>
</svg>
