<svg width="50" height="46" viewBox="0 0 50 46" fill="none" xmlns="http://www.w3.org/2000/svg">
<g clip-path="url(#clip0_214_5628)">
<path d="M0 33.4517H50V39.0968C50 42.6613 47.1129 45.5484 43.5484 45.5484H6.45161C2.8871 45.5484 0 42.6613 0 39.0968V33.4517Z" fill="#E7EEF1"/>
<path d="M47.5806 31.8387C47.6048 30.9112 47.9597 27.4032 45.6532 26.8387C45.4516 26.4596 44.5887 24.5887 43.8548 22.9919C43.1774 21.508 41.6936 20.5483 40.0565 20.5483H33.871V35.8709H47.2581C47.2581 35.8709 48.3871 35.1048 48.3871 34.258C48.3871 33.4112 48.5887 32.1048 47.5806 31.8387Z" fill="#6BFFFF"/>
<path d="M5.64519 4.41931H4.03229" stroke="#A2A9B1" stroke-width="1.5" stroke-miterlimit="10"/>
<path d="M2.41936 4.41931H0.806458" stroke="#A2A9B1" stroke-width="1.5" stroke-miterlimit="10"/>
<path d="M29.8387 4.41937H21.9113C21.5564 3.61292 20.7177 2.94356 19.75 2.94356C19.4435 2.94356 19.1452 2.98388 18.879 3.08872C18.3387 1.64517 16.9435 0.612915 15.3064 0.612915C13.2016 0.612915 11.4919 2.81453 11.4919 4.42743H7.25806" stroke="#A2A9B1" stroke-width="1.5" stroke-miterlimit="10"/>
<path d="M49.1936 8.45164H46C45.4678 7.64519 44.3629 6.79842 43.0404 6.95971C42.4597 5.96777 41.4033 5.21777 40.1694 5.21777C38.3387 5.21777 36.8549 6.83874 36.8387 8.45164H29.0323" stroke="#A2A9B1" stroke-width="1.5" stroke-miterlimit="10"/>
<path d="M33.871 35.8709H47.2581C47.2581 35.8709 48.3871 35.1048 48.3871 34.258C48.3871 33.4112 48.5887 32.1048 47.5806 31.8387C47.6048 30.9112 47.9597 27.4032 45.6532 26.8387C45.4516 26.4596 44.5887 24.5887 43.8548 22.9919C43.1774 21.508 41.6936 20.5483 40.0565 20.5483H33.871" stroke="#011837" stroke-width="1.5" stroke-miterlimit="10"/>
<path d="M41.9516 26.9274L40.629 24.1048C40.5322 23.8951 40.3226 23.7661 40.0967 23.7661H37.0887V27.7984H41.3871C41.8387 27.7984 42.1371 27.3306 41.9435 26.9193L41.9516 26.9274Z" fill="white" stroke="#011837" stroke-width="1.5" stroke-miterlimit="10"/>
<path d="M33.871 13.2903H7.25806V35.8709H33.871V13.2903Z" fill="white" stroke="#011837" stroke-width="1.5" stroke-miterlimit="10"/>
<path d="M17.75 35.8629C17.75 37.6371 16.3065 39.0806 14.5242 39.0806C12.7419 39.0806 11.2984 37.6371 11.2984 35.8629C11.2984 34.0887 12.7419 32.6451 14.5242 32.6451C16.3065 32.6451 17.75 34.0887 17.75 35.8629Z" fill="#E7EEF1" stroke="#011837" stroke-width="1.5" stroke-miterlimit="10"/>
<path d="M42.75 35.8629C42.75 37.6371 41.3065 39.0806 39.5242 39.0806C37.7419 39.0806 36.2984 37.6371 36.2984 35.8629C36.2984 34.0887 37.7419 32.6451 39.5242 32.6451C41.3065 32.6451 42.75 34.0887 42.75 35.8629Z" fill="#E7EEF1" stroke="#011837" stroke-width="1.5" stroke-miterlimit="10"/>
<path d="M23.3871 23.7742H2.41937V39.0968H23.3871V23.7742Z" fill="white" stroke="#011837" stroke-width="1.5" stroke-miterlimit="10"/>
<path d="M16.129 23.7742H9.67743V27.8064H16.129V23.7742Z" fill="#6BFFFF" stroke="#011837" stroke-width="1.5" stroke-miterlimit="10"/>
<path d="M4.83868 35.871H6.45159" stroke="#011837" stroke-width="1.5" stroke-miterlimit="10"/>
<path d="M8.06451 35.871H9.67742" stroke="#011837" stroke-width="1.5" stroke-miterlimit="10"/>
<path d="M11.2903 35.871H12.9032" stroke="#011837" stroke-width="1.5" stroke-miterlimit="10"/>
</g>
<defs>
<clipPath id="clip0_214_5628">
<rect width="50" height="45.5484" fill="white"/>
</clipPath>
</defs>
</svg>
