<svg width="52" height="47" viewBox="0 0 52 47" fill="none" xmlns="http://www.w3.org/2000/svg">
<path d="M27.6618 32.1906C36.551 32.1906 43.7571 24.9845 43.7571 16.0953C43.7571 7.2061 36.551 0 27.6618 0C18.7726 0 11.5665 7.2061 11.5665 16.0953C11.5665 24.9845 18.7726 32.1906 27.6618 32.1906Z" fill="#E7EEF1"/>
<path d="M17.1999 20.1191H5.12845V21.7286H3.51892V24.9477H5.12845V37.0191H17.1999V20.1191Z" fill="white" stroke="#011837" stroke-width="1.5" stroke-miterlimit="10"/>
<path d="M7.54272 12.0715V20.1191" stroke="#011837" stroke-width="1.5" stroke-miterlimit="10"/>
<path d="M10.7618 16.0953V20.1191" stroke="#011837" stroke-width="1.5" stroke-miterlimit="10"/>
<path d="M8.34747 23.3381H9.957" stroke="#011837" stroke-width="1.5" stroke-miterlimit="10"/>
<path d="M33.2952 23.3381H22.8333V29.7762H33.2952V23.3381Z" fill="#E7EEF1" stroke="#011837" stroke-width="1.5" stroke-miterlimit="10"/>
<path d="M22.8333 23.3381H12.3713V29.7762H22.8333V23.3381Z" fill="#E7EEF1" stroke="#011837" stroke-width="1.5" stroke-miterlimit="10"/>
<path d="M43.7571 23.3381H33.2952V29.7762H43.7571V23.3381Z" fill="#E7EEF1" stroke="#011837" stroke-width="1.5" stroke-miterlimit="10"/>
<path d="M27.6618 16.9H17.1999V23.3381H27.6618V16.9Z" fill="#E7EEF1" stroke="#011837" stroke-width="1.5" stroke-miterlimit="10"/>
<path d="M38.1238 16.9H27.6619V23.3381H38.1238V16.9Z" fill="#E7EEF1" stroke="#011837" stroke-width="1.5" stroke-miterlimit="10"/>
<path d="M30.0762 27.362L25.2476 29.7763C25.2476 29.7763 6.13442 29.7763 2.71417 29.7763V35.4096C2.71417 37.0192 3.09241 38.0412 3.62356 38.7896L4.29151 38.2505C5.04799 37.6388 6.03785 37.6952 6.74604 38.3792L8.13023 39.7151C8.428 40.0048 8.77405 40.1738 9.12814 40.2382H9.73976C10.0536 40.1819 10.3514 40.0451 10.625 39.8117L12.4277 38.2746C13.1681 37.6469 14.1579 37.671 14.8742 38.3309L16.4354 39.7634C16.709 40.0129 17.0229 40.1738 17.3448 40.2382H18.0208C18.3427 40.1738 18.6485 40.0209 18.9221 39.7795L20.5558 38.3148C21.2801 37.663 22.2699 37.6549 23.0023 38.2907L24.7406 39.7956C25.0142 40.029 25.32 40.1738 25.6258 40.2302H26.2616C26.6076 40.1658 26.9376 40.0048 27.2273 39.7312L28.6759 38.3551C29.3841 37.6791 30.382 37.6388 31.1304 38.2585L33.0377 39.8278C33.3033 40.0451 33.6091 40.1819 33.9149 40.2302H34.4863C34.8645 40.1658 35.2266 39.9887 35.5325 39.6829L36.804 38.4034C37.5041 37.7032 38.502 37.6308 39.2666 38.2263L40.6749 39.3288C41.6648 35.9891 47.7649 33.3655 47.7649 27.3539H30.0762V27.362Z" fill="#6BFFFF"/>
<path d="M40.6427 39.4335C41.544 36.0454 47.781 33.4299 47.781 27.362H30.0762L25.2476 29.7763C25.2476 29.7763 6.13442 29.7763 2.71417 29.7763V35.4096C2.71417 36.9226 3.03608 37.9205 3.51894 38.6528" stroke="#011837" stroke-width="1.5" stroke-miterlimit="10"/>
<path d="M47.7809 12.8762H41.6728C41.2624 11.9588 40.2886 11.2345 39.1619 11.2345C38.7998 11.2345 38.4618 11.315 38.1479 11.4437C37.5202 9.76984 35.9026 8.5144 34.0034 8.5144C31.5649 8.5144 29.5852 11.0414 29.5772 12.8762H25.2395" stroke="#465363" stroke-width="1.5" stroke-miterlimit="10"/>
<path d="M16.3951 9.65714H11.9689C11.9689 7.65328 10.3514 6.03571 8.34749 6.03571C6.34363 6.03571 4.72605 7.65328 4.72605 9.65714H1.10461" stroke="#A2A9B1" stroke-width="1.5" stroke-miterlimit="10"/>
<path d="M18.8094 5.63336H28.4666" stroke="#A2A9B1" stroke-width="1.5" stroke-miterlimit="10"/>
<path d="M42.6787 40.8981L39.2746 38.2343C38.5101 37.6388 37.5121 37.7112 36.812 38.4114L35.5405 39.691C34.8242 40.4072 33.8102 40.4635 33.0457 39.8358L31.1384 38.2665C30.39 37.6549 29.4001 37.6871 28.6839 38.3631L27.2353 39.7392C26.511 40.4313 25.497 40.4555 24.7405 39.8036L23.0023 38.2987C22.2699 37.6629 21.2801 37.671 20.5558 38.3229L18.9221 39.7875C18.1817 40.4555 17.1677 40.4474 16.4273 39.7714L14.8661 38.339C14.1498 37.679 13.16 37.6549 12.4196 38.2826L10.6169 39.8197C9.86045 40.4635 8.84645 40.4233 8.12216 39.7231L6.73797 38.3872C6.02978 37.7032 5.03992 37.6469 4.28344 38.2585L1 40.9061" stroke="#011837" stroke-width="1.5" stroke-miterlimit="10"/>
<path d="M51 45.7267L47.5959 43.0629C46.8313 42.4674 45.8334 42.5398 45.1333 43.24L43.8618 44.5196C43.1455 45.2358 42.1315 45.2921 41.367 44.6644L39.4597 43.0951C38.7113 42.4835 37.7214 42.5238 37.0052 43.1917L35.5566 44.5679C34.8323 45.26 33.8183 45.2841 33.0618 44.6322L31.3235 43.1273C30.5912 42.4916 29.6013 42.4996 28.8771 43.1515L27.2434 44.6161C26.503 45.2841 25.489 45.276 24.7486 44.6L23.1874 43.1676C22.4711 42.5077 21.4813 42.4835 20.7409 43.1112L18.9382 44.6483C18.1817 45.2921 17.1677 45.2519 16.4435 44.5518L15.0593 43.2159C14.3511 42.5318 13.3612 42.4755 12.6047 43.0871L9.32129 45.7348" stroke="#011837" stroke-width="1.5" stroke-miterlimit="10"/>
<path d="M33.2952 30.5811H30.8809" stroke="#011837" stroke-width="1.5" stroke-miterlimit="10"/>
</svg>
