<svg width="50" height="50" viewBox="0 0 50 50" fill="none" xmlns="http://www.w3.org/2000/svg">
<path d="M37.1596 37.8403C44.2511 31.1248 44.556 19.9319 37.8404 12.8403C31.1249 5.74878 19.932 5.44396 12.8404 12.1595C5.74885 18.8751 5.44403 30.0679 12.1596 37.1595C18.8751 44.2511 30.068 44.5559 37.1596 37.8403Z" fill="#E7EEF1"/>
<path d="M21.9446 9.44702L1.78473 29.5627" stroke="#A2A9B1" stroke-width="1.5" stroke-miterlimit="10"/>
<path d="M30.5951 42.2141L23.8235 48.993" stroke="#A2A9B1" stroke-width="1.5" stroke-miterlimit="10"/>
<path d="M19.7489 35.531L20.7068 42.9583L18.7026 43.872L15.1879 38.0068" fill="#E7EEF1"/>
<path d="M19.7489 35.531L20.7068 42.9583L18.7026 43.872L15.1879 38.0068" stroke="#011837" stroke-width="1.5" stroke-miterlimit="10"/>
<path d="M15.5784 31.3678L8.1511 30.4026L7.23743 32.4068L13.1027 35.9215" fill="#E7EEF1"/>
<path d="M15.5784 31.3678L8.1511 30.4026L7.23743 32.4068L13.1027 35.9215" stroke="#011837" stroke-width="1.5" stroke-miterlimit="10"/>
<path d="M32.5548 21.988L25.2012 29.2238L29.8875 33.9101L34.6401 42.8258L36.7548 42.7963L32.5548 21.988Z" fill="#6BFFFF" stroke="#011837" stroke-width="1.5" stroke-miterlimit="10"/>
<path d="M8.31316 14.3542L8.28369 16.469L17.1994 21.2216L21.8931 25.9079L29.1214 18.5542L8.31316 14.3542Z" fill="#6BFFFF" stroke="#011837" stroke-width="1.5" stroke-miterlimit="10"/>
<path d="M41.6255 9.48372C40.4761 8.33425 36.5192 10.4195 35.3698 11.569L16.8236 30.1152C15.5857 31.353 10.17 38.4635 11.4078 39.7014C12.6457 40.9393 19.7488 35.5235 20.9941 34.2857L39.5476 15.7321C40.6897 14.59 42.775 10.6258 41.6255 9.48372Z" fill="white" stroke="#011837" stroke-width="1.5" stroke-miterlimit="10"/>
<path d="M32.6803 31.6699L24.8699 39.4878" stroke="#011837" stroke-width="1.5" stroke-miterlimit="10"/>
</svg>
