<svg width="8" height="10" viewBox="0 0 8 10" fill="none" xmlns="http://www.w3.org/2000/svg">
<path fill-rule="evenodd" clip-rule="evenodd" d="M3.63245 0.0270295C3.70185 0.0506806 3.98253 0.324357 5.82184 2.16166C7.75882 4.0965 7.93452 4.27679 7.96671 4.36267C8.0111 4.481 8.0111 4.57026 7.96671 4.68859C7.93452 4.77447 7.75882 4.95478 5.82184 6.88964C3.80347 8.90583 3.70793 8.99849 3.61676 9.02789C3.23712 9.15034 2.89486 8.76729 3.05939 8.4041C3.0794 8.35993 3.7258 7.70042 4.99262 6.43169L6.8958 4.52563L4.99262 2.61957C3.75265 1.37772 3.07921 0.690904 3.06008 0.648626C2.95147 0.408613 3.0661 0.123438 3.30751 0.0331148C3.42 -0.0089689 3.52132 -0.0108794 3.63245 0.0270295Z" fill="white"/>
<path fill-rule="evenodd" clip-rule="evenodd" d="M0.61536 0.0270295C0.684757 0.0506806 0.965438 0.324357 2.80475 2.16166C4.74173 4.0965 4.91743 4.27679 4.94962 4.36267C4.99401 4.481 4.99401 4.57026 4.94962 4.68859C4.91743 4.77447 4.74173 4.95478 2.80475 6.88964C0.786384 8.90583 0.690842 8.99849 0.599669 9.02789C0.220032 9.15034 -0.122227 8.76729 0.0423045 8.4041C0.0623116 8.35993 0.708708 7.70042 1.97553 6.43169L3.87871 4.52563L1.97553 2.61957C0.735561 1.37772 0.0621166 0.690904 0.0429945 0.648626C-0.0656199 0.408613 0.0490088 0.123438 0.290419 0.0331148C0.402908 -0.0089689 0.504234 -0.0108794 0.61536 0.0270295Z" fill="white"/>
</svg>
