<svg
    width="18"
    height="18"
    viewBox="0 0 18 18"
    fill="none"
    xmlns="http://www.w3.org/2000/svg"
  >
    <path
      d="M18 16.9255L12.7458 11.6697C13.7421 10.4392 14.3377 8.87473 14.3377 7.17105C14.3377 3.21806 11.1206 0 7.16883 0C3.21707 0 0 3.21806 0 7.17105C0 11.124 3.21707 14.3421 7.16883 14.3421C8.87199 14.3421 10.436 13.7408 11.666 12.7442L16.9202 18L18 16.9255ZM7.16883 12.8221C4.05751 12.8221 1.51948 10.2889 1.51948 7.17105C1.51948 4.0532 4.05751 1.52552 7.16883 1.52552C10.2801 1.52552 12.8182 4.05877 12.8182 7.17662C12.8182 10.2945 10.2857 12.8221 7.16883 12.8221Z"
      fill="#8B95A0"
    />
</svg>