<svg width="51" height="50" viewBox="0 0 51 50" fill="none" xmlns="http://www.w3.org/2000/svg">
<g clip-path="url(#clip0_904_98)">
<path d="M21.1454 50C32.8236 50 42.2907 40.5329 42.2907 28.8546C42.2907 17.1763 32.8236 7.70923 21.1454 7.70923C9.46711 7.70923 0 17.1763 0 28.8546C0 40.5329 9.46711 50 21.1454 50Z" fill="#E7EEF1"/>
<path d="M27.3128 14.7578H19.3833V26.2116H27.3128V14.7578Z" fill="#6BFFFF" stroke="#011837" stroke-width="1.5" stroke-linejoin="round"/>
<path d="M35.2423 0.660889H27.3127V26.2115H35.2423V0.660889Z" fill="#6BFFFF" stroke="#011837" stroke-width="1.5" stroke-linejoin="round"/>
<path d="M43.1718 9.47144H35.2423V26.2115H43.1718V9.47144Z" fill="#6BFFFF" stroke="#011837" stroke-width="1.5" stroke-linejoin="round"/>
<path d="M42.2907 23.5682L36.837 27.066C36.4669 26.0528 35.5066 25.3303 34.3612 25.3303H29.0749C27.859 25.3303 26.0176 23.5682 24.5639 23.5682H19.3832C17.2511 23.5682 15.1718 25.2158 14.0969 26.2114C12.4405 27.8677 9.28632 31.11 8.81055 31.4977C11.4449 33.7796 16.4141 38.7048 17.6211 39.7708C19.2599 38.1321 19.9031 36.784 21.2511 36.784H34.3612C35.5859 36.0968 43.1718 29.7356 43.1718 29.7356C43.1718 29.7356 48.3172 24.1937 49.3392 21.8061C48.696 20.9426 44.7136 19.6563 42.2907 23.5682Z" fill="white"/>
<path d="M25.5506 30.6166H34.3612C35.8238 30.6166 37.0044 29.436 37.0044 27.9735C37.0044 26.5109 35.8238 25.3303 34.3612 25.3303H29.0749C27.859 25.3303 26.0176 23.5682 24.5638 23.5682H19.3832C17.2511 23.5682 15.1718 25.2158 14.0969 26.2114C12.4405 27.8677 9.28632 31.11 8.81055 31.4977C11.4449 33.7796 16.4141 38.7048 17.6211 39.7708C19.2599 38.1321 19.9031 36.784 21.2511 36.784H34.3612C35.5859 36.0968 43.1718 29.7356 43.1718 29.7356C43.1718 29.7356 48.3172 24.1937 49.3392 21.8061C48.696 20.9426 44.7136 19.6563 42.2907 23.5682L36.7841 27.0924" stroke="#011837" stroke-width="1.5" stroke-miterlimit="10"/>
<path d="M8.11451 27.9865L2.63928 33.4636L14.7962 45.6163L20.2714 40.1391L8.11451 27.9865Z" fill="#6BFFFF" stroke="#011837" stroke-width="1.5" stroke-miterlimit="10"/>
<path d="M7.92957 33.26L9.69168 35.0221" stroke="#011837" stroke-width="1.5" stroke-miterlimit="10" stroke-linecap="round"/>
<path d="M11.4537 16.5198V21.8061" stroke="#A2A9B1" stroke-width="1.5" stroke-miterlimit="10"/>
<path d="M8.81055 19.1628H14.0969" stroke="#A2A9B1" stroke-width="1.5" stroke-miterlimit="10"/>
<path d="M14.0969 7.70923V12.9956" stroke="#A2A9B1" stroke-width="1.5" stroke-miterlimit="10"/>
<path d="M11.4537 10.3523H16.7401" stroke="#A2A9B1" stroke-width="1.5" stroke-miterlimit="10"/>
<path d="M4.40527 9.47144V14.7578" stroke="#A2A9B1" stroke-width="1.5" stroke-miterlimit="10"/>
<path d="M1.76208 12.1145H7.04843" stroke="#A2A9B1" stroke-width="1.5" stroke-miterlimit="10"/>
</g>
<defs>
<clipPath id="clip0_904_98">
<rect width="50.0969" height="50" fill="white"/>
</clipPath>
</defs>
</svg>
