<svg width="48" height="50" viewBox="0 0 48 50" fill="none" xmlns="http://www.w3.org/2000/svg">
<g clip-path="url(#clip0_854_26961)">
<path d="M21.0527 50.0001C30.8909 50.0001 38.8664 42.0246 38.8664 32.1863C38.8664 22.3481 30.8909 14.3726 21.0527 14.3726C11.2144 14.3726 3.23889 22.3481 3.23889 32.1863C3.23889 42.0246 11.2144 50.0001 21.0527 50.0001Z" fill="#E7EEF1"/>
<path d="M33.1984 24.8987L17.004 29.757L0.809692 24.8987V5.46548L17.004 0.607178L33.1984 5.46548V24.8987Z" fill="#6BFFFF"/>
<path d="M33.1984 5.46558L17.004 10.3239L0.809692 5.46558" stroke="#011837" stroke-width="1.5" stroke-linecap="round" stroke-linejoin="round"/>
<path d="M33.1984 24.8987L17.004 29.757L0.809692 24.8987V5.46548L17.004 0.607178L33.1984 5.46548V24.8987Z" stroke="#011837" stroke-width="1.5" stroke-linecap="round" stroke-linejoin="round"/>
<path d="M17.004 10.3237V29.7569" stroke="#011837" stroke-width="1.5" stroke-linecap="round" stroke-linejoin="round"/>
<path d="M40.4858 3.84619V5.46562" stroke="#A2A9B1" stroke-width="1.5" stroke-miterlimit="10"/>
<path d="M40.4858 7.08496V8.70439" stroke="#A2A9B1" stroke-width="1.5" stroke-miterlimit="10"/>
<path d="M39.6761 6.27539H38.0566" stroke="#A2A9B1" stroke-width="1.5" stroke-miterlimit="10"/>
<path d="M42.915 6.27539H41.2955" stroke="#A2A9B1" stroke-width="1.5" stroke-miterlimit="10"/>
<path d="M10.5263 37.0444L8.90686 38.6639" stroke="#A2A9B1" stroke-width="1.5" stroke-miterlimit="10"/>
<path d="M14.5749 32.9958L12.9554 34.6153" stroke="#A2A9B1" stroke-width="1.5" stroke-miterlimit="10"/>
<path d="M12.9554 37.0444L14.5749 38.6639" stroke="#A2A9B1" stroke-width="1.5" stroke-miterlimit="10"/>
<path d="M8.90686 32.9958L10.5263 34.6153" stroke="#A2A9B1" stroke-width="1.5" stroke-miterlimit="10"/>
<path d="M2.4292 40.2834V41.9029" stroke="#A2A9B1" stroke-width="1.5" stroke-miterlimit="10"/>
<path d="M2.4292 43.5222V45.1416" stroke="#A2A9B1" stroke-width="1.5" stroke-miterlimit="10"/>
<path d="M1.61943 42.7126H0" stroke="#A2A9B1" stroke-width="1.5" stroke-miterlimit="10"/>
<path d="M4.85832 42.7126H3.23889" stroke="#A2A9B1" stroke-width="1.5" stroke-miterlimit="10"/>
<path d="M25.5466 31.8137L15.8057 41.5546C15.2146 42.1457 15.247 43.1417 15.8786 43.7732L16.4535 44.3481C17.0851 44.9797 18.081 45.0121 18.6721 44.421L28.3401 34.753L25.5466 31.8218V31.8137Z" fill="#6BFFFF"/>
<path d="M25.5466 31.8137L15.8057 41.5546C15.2146 42.1457 15.247 43.1417 15.8786 43.7732L16.4535 44.3481C17.0851 44.9797 18.081 45.0121 18.6721 44.421L28.3401 34.753" stroke="#011837" stroke-width="1.5" stroke-miterlimit="10"/>
<path d="M35.3199 37.0445C41.8042 37.0445 47.0608 31.7879 47.0608 25.3036C47.0608 18.8193 41.8042 13.5627 35.3199 13.5627C28.8356 13.5627 23.579 18.8193 23.579 25.3036C23.579 31.7879 28.8356 37.0445 35.3199 37.0445Z" fill="white" stroke="#011837" stroke-width="1.5" stroke-miterlimit="10"/>
<path d="M35.6276 26.5183V29.7572" stroke="#011837" stroke-width="1.5" stroke-miterlimit="10" stroke-linecap="round"/>
<path d="M42.1053 25.7085V29.7571" stroke="#011837" stroke-width="1.5" stroke-miterlimit="10" stroke-linecap="round"/>
<path d="M38.8665 20.8501V29.757" stroke="#011837" stroke-width="1.5" stroke-miterlimit="10" stroke-linecap="round"/>
<path d="M32.3887 20.8501V29.757" stroke="#011837" stroke-width="1.5" stroke-miterlimit="10" stroke-linecap="round"/>
<path d="M29.1499 23.2793V29.757" stroke="#011837" stroke-width="1.5" stroke-miterlimit="10" stroke-linecap="round"/>
</g>
<defs>
<clipPath id="clip0_854_26961">
<rect width="47.668" height="50" fill="white"/>
</clipPath>
</defs>
</svg>
