<svg width="52" height="50" viewBox="0 0 52 50" fill="none" xmlns="http://www.w3.org/2000/svg">
<g clip-path="url(#clip0_904_224)">
<path d="M28.8286 38.3589C39.3666 38.3589 47.9094 29.772 47.9094 19.1795C47.9094 8.58693 39.3666 0 28.8286 0C18.2906 0 9.7478 8.58693 9.7478 19.1795C9.7478 29.772 18.2906 38.3589 28.8286 38.3589Z" fill="#E7EEF1"/>
<path d="M5.59979 5.83716L0.622192 10.8405V48.3655H32.147V5.83716H5.59979Z" fill="white"/>
<path d="M7.25899 12.5083H0.622192V10.8405L5.59979 5.83716H7.25899V12.5083Z" fill="#6BFFFF"/>
<path d="M32.147 24.1827V5.83716H5.59979L0.622192 10.8405V48.3655H32.147V45.03" stroke="#011837" stroke-width="1.5" stroke-miterlimit="10" stroke-linecap="round"/>
<path d="M2.28137 12.5082H7.25897V7.50488" stroke="#011837" stroke-width="1.5" stroke-miterlimit="10"/>
<path d="M37.1246 25.0166L27.999 29.186V40.0266L37.1246 44.1961L46.2502 40.0266V29.186L37.1246 25.0166Z" fill="#6BFFFF" stroke="#011837" stroke-width="1.5" stroke-linecap="round" stroke-linejoin="round"/>
<path d="M27.999 29.186L37.1246 33.3555L46.2502 29.186" stroke="#011837" stroke-width="1.5" stroke-linecap="round" stroke-linejoin="round"/>
<path d="M37.1246 33.3555V44.196" stroke="#011837" stroke-width="1.5" stroke-linecap="round" stroke-linejoin="round"/>
<path d="M36.295 49.4245L50.3982 42.9869V26.2257L36.295 19.7881" stroke="#A2A9B1" stroke-width="1.5" stroke-miterlimit="10"/>
<path d="M8.16321 17.3469H22.4489" stroke="#A2A9B1" stroke-width="1.5" stroke-miterlimit="10"/>
<path d="M8.16321 23.4695H18.3673" stroke="#A2A9B1" stroke-width="1.5" stroke-miterlimit="10"/>
<path d="M10.2044 32.7103C10.2026 32.7544 10.2095 32.7983 10.2247 32.8395C10.2399 32.8807 10.2631 32.9182 10.2928 32.9498C10.3226 32.9814 10.3582 33.0063 10.3976 33.023C10.437 33.0398 10.4792 33.0481 10.5218 33.0473H11.6084C11.7902 33.0473 11.935 32.8931 11.9587 32.7062C12.0773 31.8113 12.67 31.1592 13.7263 31.1592C14.6298 31.1592 15.4569 31.6272 15.4569 32.7526C15.4569 33.6189 14.9643 34.0172 14.1859 34.6229C13.2995 35.29 12.5975 36.0689 12.6476 37.3335L12.6515 37.6296C12.6529 37.7191 12.6882 37.8044 12.7498 37.8672C12.8114 37.93 12.8944 37.9652 12.9808 37.9651H14.049C14.1363 37.9651 14.22 37.9292 14.2818 37.8653C14.3435 37.8013 14.3782 37.7146 14.3782 37.6241V37.4809C14.3782 36.5014 14.7378 36.2163 15.7085 35.4537C16.5106 34.8221 17.347 34.1209 17.347 32.6489C17.347 30.5876 15.6664 29.5918 13.8264 29.5918C12.1576 29.5918 10.3295 30.3967 10.2044 32.7103ZM12.2551 40.5721C12.2551 41.2992 12.8149 41.8367 13.5854 41.8367C14.3875 41.8367 14.9393 41.2992 14.9393 40.5721C14.9393 39.8191 14.3861 39.2898 13.584 39.2898C12.8149 39.2898 12.2551 39.8191 12.2551 40.5721Z" fill="#011837"/>
</g>
<defs>
<clipPath id="clip0_904_224">
<rect width="51.0204" height="50" fill="white"/>
</clipPath>
</defs>
</svg>
