<?xml version="1.0" encoding="UTF-8"?>
<svg id="Layer_1" data-name="Layer 1" xmlns="http://www.w3.org/2000/svg" version="1.1" viewBox="0 0 500 500">
  <defs>
    <style>
      .cls-1 {
        stroke-linecap: round;
        stroke-linejoin: round;
      }

      .cls-1, .cls-2, .cls-3, .cls-4 {
        fill: #6bffff;
      }

      .cls-1, .cls-5, .cls-6, .cls-3, .cls-7, .cls-8, .cls-4, .cls-9 {
        stroke: #011837;
      }

      .cls-1, .cls-5, .cls-3, .cls-7, .cls-10 {
        stroke-width: 9.64px;
      }

      .cls-2, .cls-11, .cls-12, .cls-13 {
        stroke-width: 0px;
      }

      .cls-5, .cls-6, .cls-3, .cls-14, .cls-7, .cls-8, .cls-4, .cls-9, .cls-10 {
        stroke-miterlimit: 10;
      }

      .cls-5, .cls-8, .cls-13 {
        fill: #fff;
      }

      .cls-6, .cls-14, .cls-7, .cls-10 {
        fill: none;
      }

      .cls-6, .cls-14, .cls-8, .cls-4, .cls-9 {
        stroke-width: 7.42px;
      }

      .cls-14 {
        stroke: #465363;
      }

      .cls-11 {
        fill: #e7eef1;
      }

      .cls-12 {
        fill: #e6eff3;
      }

      .cls-9 {
        fill: #ebeff2;
      }

      .cls-10 {
        stroke: #a2a9b1;
      }

      .cls-15 {
        display: none;
      }
    </style>
  </defs>
  <g class="cls-15">
    <g>
      <circle class="cls-12" cx="240.99" cy="240.66" r="199.59" transform="translate(-99.59 240.9) rotate(-45)"/>
      <line class="cls-14" x1="166.98" y1="73.67" x2="31.7" y2="208.68"/>
      <polyline class="cls-9" points="152.24 248.74 158.7 298.56 145.25 304.69 121.64 265.35"/>
      <polyline class="cls-9" points="124.26 220.76 74.43 214.3 68.31 227.75 107.65 251.36"/>
      <polygon class="cls-4" points="238.22 157.81 188.85 206.37 220.33 237.84 252.2 297.69 266.42 297.47 238.22 157.81"/>
      <polygon class="cls-4" points="75.53 106.58 75.3 120.8 135.16 152.67 166.63 184.14 215.19 134.78 75.53 106.58"/>
      <path class="cls-8" d="M299.11,73.89c-7.69-7.69-34.27,6.3-41.96,13.99l-124.52,124.52c-8.32,8.32-44.65,56.02-36.35,64.32,8.31,8.31,56-28.02,64.32-36.35l124.52-124.52c7.69-7.69,21.68-34.27,13.99-41.96Z"/>
    </g>
    <g>
      <polygon class="cls-8" points="260.58 301.56 186.4 301.56 186.4 311.45 176.51 311.45 176.51 331.23 186.4 331.23 186.4 405.41 260.58 405.41 260.58 301.56"/>
      <line class="cls-6" x1="201.24" y1="252.1" x2="201.24" y2="301.56"/>
      <line class="cls-6" x1="221.02" y1="276.83" x2="221.02" y2="301.56"/>
      <line class="cls-6" x1="206.18" y1="321.34" x2="216.07" y2="321.34"/>
      <rect class="cls-9" x="295.2" y="321.34" width="64.29" height="39.56"/>
      <rect class="cls-9" x="230.91" y="321.34" width="64.29" height="39.56"/>
      <rect class="cls-9" x="359.49" y="321.34" width="64.29" height="39.56"/>
      <rect class="cls-9" x="260.58" y="281.77" width="64.29" height="39.56"/>
      <rect class="cls-9" x="324.88" y="281.77" width="64.29" height="39.56"/>
      <path class="cls-2" d="M339.71,346.07l-29.67,14.84h-138.47v34.62c0,9.9,2.3,16.16,5.58,20.77l4.11-3.31c4.63-3.74,10.73-3.42,15.08.79l8.49,8.23c1.82,1.77,3.95,2.81,6.15,3.19h3.76c1.9-.35,3.76-1.2,5.42-2.6l11.1-9.43c4.54-3.86,10.62-3.73,15.05.32l9.6,8.79c1.69,1.55,3.62,2.52,5.61,2.92h4.15c1.96-.39,3.87-1.32,5.55-2.82l10.03-8.98c4.46-3.99,10.53-4.05,15.04-.14l10.69,9.26c1.66,1.44,3.54,2.32,5.46,2.68h3.92c2.12-.39,4.17-1.4,5.94-3.08l8.92-8.46c4.38-4.15,10.47-4.39,15.06-.61l11.74,9.66c1.65,1.36,3.49,2.16,5.37,2.49h3.54c2.32-.38,4.56-1.48,6.45-3.38l7.8-7.85c4.3-4.32,10.42-4.77,15.11-1.09l8.64,6.77c6.1-20.53,43.59-36.66,43.59-73.58h-108.8Z"/>
      <path class="cls-6" d="M404.66,420.25c5.52-20.83,43.85-36.89,43.85-74.18h-108.8l-29.67,14.84h-138.47v34.62c0,9.28,1.99,15.41,4.93,19.94"/>
      <path class="cls-14" d="M448.51,257.05h-37.51c-2.53-5.64-8.48-10.08-15.43-10.08-2.2,0-4.3.5-6.22,1.28-3.87-10.31-13.79-18.02-25.45-18.02-15,0-27.17,15.54-27.2,26.82h-26.67"/>
      <path class="cls-6" d="M417.19,429.25l-20.91-16.38c-4.69-3.68-10.81-3.24-15.11,1.09l-7.8,7.85c-4.38,4.41-10.64,4.77-15.35.89l-11.74-9.66c-4.6-3.78-10.69-3.54-15.06.61l-8.93,8.46c-4.47,4.23-10.71,4.39-15.32.4l-10.69-9.26c-4.51-3.91-10.59-3.85-15.04.14l-10.03,8.98c-4.56,4.08-10.79,4.04-15.31-.1l-9.6-8.79c-4.42-4.05-10.51-4.18-15.05-.32l-11.1,9.43c-4.65,3.95-10.9,3.71-15.33-.59l-8.49-8.23c-4.35-4.21-10.45-4.54-15.08-.8l-20.17,16.28"/>
      <path class="cls-6" d="M468.3,458.93l-20.91-16.38c-4.69-3.68-10.81-3.24-15.11,1.09l-7.8,7.85c-4.38,4.41-10.64,4.77-15.35.89l-11.74-9.66c-4.6-3.78-10.69-3.54-15.06.61l-8.92,8.46c-4.47,4.23-10.71,4.39-15.32.4l-10.69-9.26c-4.51-3.91-10.59-3.85-15.04.14l-10.03,8.98c-4.56,4.08-10.79,4.04-15.31-.1l-9.6-8.79c-4.43-4.05-10.51-4.18-15.05-.32l-11.1,9.43c-4.65,3.95-10.9,3.71-15.33-.59l-8.49-8.23c-4.35-4.21-10.45-4.54-15.08-.8l-20.17,16.28"/>
      <line class="cls-6" x1="359.49" y1="365.85" x2="344.66" y2="365.85"/>
    </g>
  </g>
  <g class="cls-15">
    <circle class="cls-11" cx="211.43" cy="217.86" r="160.71" transform="translate(-80.99 136.27) rotate(-30.27)"/>
    <path class="cls-13" d="M385,442.86v-173.57c-28.41-42.46-81.71-64.29-135-64.29s-106.59,21.82-135,64.29v173.57h270Z"/>
    <g>
      <line class="cls-10" x1="314.29" y1="134.29" x2="359.29" y2="134.29"/>
      <line class="cls-10" x1="372.14" y1="134.29" x2="385" y2="134.29"/>
      <line class="cls-10" x1="397.86" y1="134.29" x2="410.72" y2="134.29"/>
      <line class="cls-10" x1="410.72" y1="102.14" x2="423.57" y2="102.14"/>
      <line class="cls-10" x1="436.43" y1="102.14" x2="449.29" y2="102.14"/>
      <path class="cls-10" d="M217.86,102.14h63.21c2.83-6.43,9.49-11.78,17.25-11.78,2.46,0,4.81.31,6.96,1.17,4.32-11.53,15.41-19.76,28.45-19.76,16.78,0,30.38,17.52,30.41,30.38h33.72"/>
      <path class="cls-10" d="M63.57,134.29h25.45c4.24-6.43,13.04-13.19,23.58-11.91,4.6-7.92,13.07-13.86,22.89-13.86,14.59,0,26.41,12.92,26.54,25.78h62.26"/>
      <line class="cls-10" x1="237.14" y1="134.29" x2="250" y2="134.29"/>
      <line class="cls-10" x1="262.86" y1="134.29" x2="275.72" y2="134.29"/>
    </g>
    <rect class="cls-7" x="153.57" y="346.43" width="96.43" height="90"/>
    <rect class="cls-7" x="250" y="346.43" width="96.43" height="90"/>
    <rect class="cls-7" x="205" y="256.43" width="96.43" height="90"/>
    <line class="cls-7" x1="115" y1="269.29" x2="115" y2="442.86"/>
    <line class="cls-7" x1="385" y1="269.29" x2="385" y2="442.86"/>
    <path class="cls-1" d="M250,172.86c-70.71,0-126.29,31.35-160.71,77.14l25.71,19.29c28.41-42.46,81.71-64.29,135-64.29s106.59,21.82,135,64.29l25.71-19.29c-34.43-45.79-90-77.14-160.71-77.14Z"/>
    <rect class="cls-7" x="237.14" y="256.43" width="32.14" height="25.71"/>
    <rect class="cls-1" x="237.14" y="256.43" width="32.14" height="25.71"/>
    <rect class="cls-1" x="185.72" y="346.43" width="32.14" height="25.71"/>
    <rect class="cls-1" x="282.14" y="346.43" width="32.14" height="25.71"/>
  </g>
  <g class="cls-15">
    <circle class="cls-11" cx="307.86" cy="295" r="135"/>
    <polygon class="cls-13" points="211.07 417.14 365.71 336.55 365.71 167.28 211.07 89.29 57.14 167.28 57.14 336.55 211.07 417.14"/>
    <polygon class="cls-11" points="57.14 167.28 211.43 247.88 211.43 417.14 57.14 336.55 57.14 167.28"/>
    <line class="cls-7" x1="352.86" y1="102.14" x2="352.86" y2="70"/>
    <line class="cls-7" x1="375.77" y1="106.26" x2="391.09" y2="79.74"/>
    <line class="cls-7" x1="393.05" y1="123.54" x2="419.57" y2="108.23"/>
    <line class="cls-7" x1="397.86" y1="147.14" x2="430" y2="147.14"/>
    <line class="cls-7" x1="328.56" y1="106.26" x2="313.25" y2="79.74"/>
    <polygon class="cls-7" points="211.07 417.14 365.71 336.55 365.71 167.28 211.07 89.29 57.14 167.28 57.14 336.55 211.07 417.14"/>
    <polyline class="cls-7" points="57.14 167.28 211.43 247.88 366.43 167.28"/>
    <line class="cls-7" x1="211.43" y1="250" x2="211.43" y2="417.14"/>
    <polygon class="cls-3" points="265.03 116.26 115 198.57 115 230.71 121.54 231.49 132.63 243.62 144.33 245.98 153.57 254.69 153.57 217.86 305.93 136.84 265.03 116.26"/>
    <line class="cls-7" x1="334.01" y1="311.82" x2="256.43" y2="352.86"/>
    <line class="cls-7" x1="320.71" y1="230.71" x2="320.71" y2="295"/>
    <polyline class="cls-7" points="304.72 259.04 320.71 232.84 336.71 243.68"/>
    <line class="cls-7" x1="269.29" y1="256.43" x2="269.29" y2="320.71"/>
    <polyline class="cls-7" points="253.29 284.75 269.29 258.55 285.28 269.39"/>
  </g>
  <g class="cls-15">
    <circle class="cls-11" cx="238.29" cy="253.29" r="165.34"/>
    <rect class="cls-5" x="105.36" y="318.53" width="270" height="115.71"/>
    <polygon class="cls-5" points="375.36 247.82 247.32 247.82 105.36 247.82 53.93 312.1 53.93 318.53 247.32 318.53 426.79 318.53 426.79 312.1 375.36 247.82"/>
    <path class="cls-3" d="M271.71,151.39c0-57.86-51.17-105.54-147.07-77.24v17.84c45-10,87.86,20.83,87.86,59.41h-28.92l57.68,71.71,57.68-71.71h-27.23Z"/>
    <rect class="cls-3" x="208.21" y="395.67" width="70.71" height="38.57"/>
    <line class="cls-7" x1="368.93" y1="189.96" x2="368.93" y2="157.82"/>
    <line class="cls-7" x1="391.85" y1="194.08" x2="407.16" y2="167.56"/>
    <line class="cls-7" x1="409.12" y1="211.36" x2="435.64" y2="196.04"/>
    <line class="cls-7" x1="413.93" y1="234.96" x2="446.07" y2="234.96"/>
    <line class="cls-7" x1="344.64" y1="194.08" x2="329.32" y2="167.56"/>
    <line class="cls-7" x1="124.64" y1="408.53" x2="137.5" y2="408.53"/>
    <line class="cls-7" x1="150.36" y1="408.53" x2="163.21" y2="408.53"/>
  </g>
  <g>
    <circle class="cls-11" cx="307.86" cy="295" r="135"/>
    <polygon class="cls-13" points="211.07 417.14 365.71 336.55 365.71 167.28 211.07 89.29 57.14 167.28 57.14 336.55 211.07 417.14"/>
    <polygon class="cls-11" points="57.14 167.28 211.43 247.88 211.43 417.14 57.14 336.55 57.14 167.28"/>
    <line class="cls-7" x1="352.86" y1="102.14" x2="352.86" y2="70"/>
    <line class="cls-7" x1="375.77" y1="106.26" x2="391.09" y2="79.74"/>
    <line class="cls-7" x1="393.05" y1="123.54" x2="419.57" y2="108.23"/>
    <line class="cls-7" x1="397.86" y1="147.14" x2="430" y2="147.14"/>
    <line class="cls-7" x1="328.56" y1="106.26" x2="313.25" y2="79.74"/>
    <polygon class="cls-7" points="211.07 417.14 365.71 336.55 365.71 167.28 211.07 89.29 57.14 167.28 57.14 336.55 211.07 417.14"/>
    <polyline class="cls-7" points="57.14 167.28 211.43 247.88 366.43 167.28"/>
    <line class="cls-7" x1="211.43" y1="250" x2="211.43" y2="417.14"/>
    <polygon class="cls-3" points="265.03 116.26 115 198.57 115 230.71 121.54 231.49 132.63 243.62 144.33 245.98 153.57 254.69 153.57 217.86 305.93 136.84 265.03 116.26"/>
    <line class="cls-7" x1="334.01" y1="311.82" x2="256.43" y2="352.86"/>
    <line class="cls-7" x1="320.71" y1="230.71" x2="320.71" y2="295"/>
    <polyline class="cls-7" points="304.72 259.04 320.71 232.84 336.71 243.68"/>
    <line class="cls-7" x1="269.29" y1="256.43" x2="269.29" y2="320.71"/>
    <polyline class="cls-7" points="253.29 284.75 269.29 258.55 285.28 269.39"/>
  </g>
</svg>