<?xml version="1.0" encoding="UTF-8"?>
<svg id="Layer_1" data-name="Layer 1" xmlns="http://www.w3.org/2000/svg" version="1.1" viewBox="0 0 500 500">
  <defs>
    <style>
      .cls-1, .cls-2, .cls-3, .cls-4, .cls-5, .cls-6, .cls-7, .cls-8 {
        stroke: #011837;
      }

      .cls-1, .cls-2, .cls-5 {
        stroke-linejoin: round;
      }

      .cls-1, .cls-2, .cls-5, .cls-6, .cls-9 {
        stroke-width: 9.64px;
      }

      .cls-1, .cls-2, .cls-6 {
        stroke-linecap: round;
      }

      .cls-1, .cls-4, .cls-5, .cls-10 {
        fill: #fff;
      }

      .cls-11, .cls-7 {
        fill: #6bffff;
      }

      .cls-11, .cls-12, .cls-13, .cls-10 {
        stroke-width: 0px;
      }

      .cls-2, .cls-3, .cls-14, .cls-6, .cls-9 {
        fill: none;
      }

      .cls-3, .cls-14, .cls-4, .cls-6, .cls-7, .cls-8, .cls-9 {
        stroke-miterlimit: 10;
      }

      .cls-3, .cls-14, .cls-4, .cls-7, .cls-8 {
        stroke-width: 7.42px;
      }

      .cls-14 {
        stroke: #465363;
      }

      .cls-12 {
        fill: #e7eef1;
      }

      .cls-13 {
        fill: #e6eff3;
      }

      .cls-8 {
        fill: #ebeff2;
      }

      .cls-9 {
        stroke: #a2a9b1;
      }

      .cls-15 {
        display: none;
      }
    </style>
  </defs>
  <g class="cls-15">
    <g>
      <circle class="cls-13" cx="240.99" cy="240.66" r="199.59" transform="translate(-99.59 240.9) rotate(-45)"/>
      <line class="cls-14" x1="166.98" y1="73.67" x2="31.7" y2="208.68"/>
      <polyline class="cls-8" points="152.24 248.74 158.7 298.56 145.25 304.69 121.64 265.35"/>
      <polyline class="cls-8" points="124.26 220.76 74.43 214.3 68.31 227.75 107.65 251.36"/>
      <polygon class="cls-7" points="238.22 157.81 188.85 206.37 220.33 237.84 252.2 297.69 266.42 297.47 238.22 157.81"/>
      <polygon class="cls-7" points="75.53 106.58 75.3 120.8 135.16 152.67 166.63 184.14 215.19 134.78 75.53 106.58"/>
      <path class="cls-4" d="M299.11,73.89c-7.69-7.69-34.27,6.3-41.96,13.99l-124.52,124.52c-8.32,8.32-44.65,56.02-36.35,64.32,8.31,8.31,56-28.02,64.32-36.35l124.52-124.52c7.69-7.69,21.68-34.27,13.99-41.96Z"/>
    </g>
    <g>
      <polygon class="cls-4" points="260.58 301.56 186.4 301.56 186.4 311.45 176.51 311.45 176.51 331.23 186.4 331.23 186.4 405.41 260.58 405.41 260.58 301.56"/>
      <line class="cls-3" x1="201.24" y1="252.1" x2="201.24" y2="301.56"/>
      <line class="cls-3" x1="221.02" y1="276.83" x2="221.02" y2="301.56"/>
      <line class="cls-3" x1="206.18" y1="321.34" x2="216.07" y2="321.34"/>
      <rect class="cls-8" x="295.2" y="321.34" width="64.29" height="39.56"/>
      <rect class="cls-8" x="230.91" y="321.34" width="64.29" height="39.56"/>
      <rect class="cls-8" x="359.49" y="321.34" width="64.29" height="39.56"/>
      <rect class="cls-8" x="260.58" y="281.77" width="64.29" height="39.56"/>
      <rect class="cls-8" x="324.88" y="281.77" width="64.29" height="39.56"/>
      <path class="cls-11" d="M339.71,346.07l-29.67,14.84h-138.47v34.62c0,9.9,2.3,16.16,5.58,20.77l4.11-3.31c4.63-3.74,10.73-3.42,15.08.79l8.49,8.23c1.82,1.77,3.95,2.81,6.15,3.19h3.76c1.9-.35,3.76-1.2,5.42-2.6l11.1-9.43c4.54-3.86,10.62-3.73,15.05.32l9.6,8.79c1.69,1.55,3.62,2.52,5.61,2.92h4.15c1.96-.39,3.87-1.32,5.55-2.82l10.03-8.98c4.46-3.99,10.53-4.05,15.04-.14l10.69,9.26c1.66,1.44,3.54,2.32,5.46,2.68h3.92c2.12-.39,4.17-1.4,5.94-3.08l8.92-8.46c4.38-4.15,10.47-4.39,15.06-.61l11.74,9.66c1.65,1.36,3.49,2.16,5.37,2.49h3.54c2.32-.38,4.56-1.48,6.45-3.38l7.8-7.85c4.3-4.32,10.42-4.77,15.11-1.09l8.64,6.77c6.1-20.53,43.59-36.66,43.59-73.58h-108.8Z"/>
      <path class="cls-3" d="M404.66,420.25c5.52-20.83,43.85-36.89,43.85-74.18h-108.8l-29.67,14.84h-138.47v34.62c0,9.28,1.99,15.41,4.93,19.94"/>
      <path class="cls-14" d="M448.51,257.05h-37.51c-2.53-5.64-8.48-10.08-15.43-10.08-2.2,0-4.3.5-6.22,1.28-3.87-10.31-13.79-18.02-25.45-18.02-15,0-27.17,15.54-27.2,26.82h-26.67"/>
      <path class="cls-3" d="M417.19,429.25l-20.91-16.38c-4.69-3.68-10.81-3.24-15.11,1.09l-7.8,7.85c-4.38,4.41-10.64,4.77-15.35.89l-11.74-9.66c-4.6-3.78-10.69-3.54-15.06.61l-8.93,8.46c-4.47,4.23-10.71,4.39-15.32.4l-10.69-9.26c-4.51-3.91-10.59-3.85-15.04.14l-10.03,8.98c-4.56,4.08-10.79,4.04-15.31-.1l-9.6-8.79c-4.42-4.05-10.51-4.18-15.05-.32l-11.1,9.43c-4.65,3.95-10.9,3.71-15.33-.59l-8.49-8.23c-4.35-4.21-10.45-4.54-15.08-.8l-20.17,16.28"/>
      <path class="cls-3" d="M468.3,458.93l-20.91-16.38c-4.69-3.68-10.81-3.24-15.11,1.09l-7.8,7.85c-4.38,4.41-10.64,4.77-15.35.89l-11.74-9.66c-4.6-3.78-10.69-3.54-15.06.61l-8.92,8.46c-4.47,4.23-10.71,4.39-15.32.4l-10.69-9.26c-4.51-3.91-10.59-3.85-15.04.14l-10.03,8.98c-4.56,4.08-10.79,4.04-15.31-.1l-9.6-8.79c-4.43-4.05-10.51-4.18-15.05-.32l-11.1,9.43c-4.65,3.95-10.9,3.71-15.33-.59l-8.49-8.23c-4.35-4.21-10.45-4.54-15.08-.8l-20.17,16.28"/>
      <line class="cls-3" x1="359.49" y1="365.85" x2="344.66" y2="365.85"/>
    </g>
  </g>
  <g>
    <circle class="cls-12" cx="250" cy="195.36" r="147.86"/>
    <polygon class="cls-11" points="127.86 298.21 127.86 394.64 250 452.5 372.14 394.64 372.14 298.21 127.86 298.21"/>
    <polygon class="cls-10" points="179.29 258.29 179.29 190.68 217.86 208.21 250 188.93 282.14 208.21 320.71 190.68 320.71 258.29 250 291.79 179.29 258.29"/>
    <polyline class="cls-6" points="372.14 311.07 372.14 394.64 250 452.5 127.86 394.64 127.86 311.07"/>
    <polyline class="cls-9" points="340 446.07 404.29 413.93 404.29 362.5"/>
    <polyline class="cls-9" points="160 446.07 95.71 413.93 95.71 362.5"/>
    <line class="cls-6" x1="250" y1="298.21" x2="250" y2="452.5"/>
    <polygon class="cls-1" points="76.43 285.36 198.57 343.21 250 298.21 250 291.79 127.86 233.93 76.43 278.93 76.43 285.36"/>
    <polyline class="cls-2" points="153.11 221.97 127.86 233.93 76.43 188.93 76.43 182.5 118.77 162.45"/>
    <polygon class="cls-1" points="423.57 285.36 301.43 343.21 250 298.21 250 291.79 372.14 233.93 423.57 278.93 423.57 285.36"/>
    <polyline class="cls-2" points="346.89 221.97 372.14 233.93 423.57 188.93 423.57 182.5 381.23 162.45"/>
    <line class="cls-6" x1="250" y1="188.93" x2="250" y2="266.07"/>
    <polygon class="cls-5" points="147.14 176.07 217.86 208.21 250 188.93 250 182.5 179.29 150.36 147.14 169.64 147.14 176.07"/>
    <line class="cls-6" x1="179.29" y1="190.68" x2="179.29" y2="233.93"/>
    <polygon class="cls-5" points="352.86 176.07 282.14 208.21 250 188.93 250 182.5 320.71 150.36 352.86 169.64 352.86 176.07"/>
    <polygon class="cls-5" points="147.14 124.64 217.86 92.5 250 111.79 250 118.21 179.29 150.36 147.14 131.07 147.14 124.64"/>
    <polygon class="cls-5" points="352.86 124.64 282.14 92.5 250 111.79 250 118.21 320.71 150.36 352.86 131.07 352.86 124.64"/>
    <line class="cls-6" x1="320.71" y1="190.68" x2="320.71" y2="233.93"/>
  </g>
</svg>